<mxfile host="app.diagrams.net" modified="2023-04-08T07:20:24.789Z" agent="Mozilla/5.0 (Windows NT 10.0; Win64; x64) AppleWebKit/537.36 (KHTML, like Gecko) Chrome/111.0.0.0 Safari/537.36 Edg/111.0.1661.62" etag="L-YaEStEpCddHusSfG-v" version="21.1.5" type="github">
  <diagram id="C5RBs43oDa-KdzZeNtuy" name="Page-1">
    <mxGraphModel dx="472" dy="786" grid="1" gridSize="10" guides="1" tooltips="1" connect="1" arrows="1" fold="1" page="1" pageScale="1" pageWidth="2339" pageHeight="3300" math="0" shadow="0">
      <root>
        <mxCell id="WIyWlLk6GJQsqaUBKTNV-0" />
        <mxCell id="WIyWlLk6GJQsqaUBKTNV-1" parent="WIyWlLk6GJQsqaUBKTNV-0" />
        <mxCell id="cbopwnuPYHyfXbzAhab7-1" value="" style="shape=image;verticalLabelPosition=bottom;labelBackgroundColor=default;verticalAlign=top;aspect=fixed;imageAspect=0;image=data:image/png,iVBORw0KGgoAAAANSUhEUgAAAnAAAAI4CAYAAADqGNSiAAAgAElEQVR4nOy9ebgcxXU2/lZ3zz5z93u1XO0LCAnQAkIIYYFBDmDMjo2JsY1xvH3O4thP7O9J/OUXP47j77PjGANJ7CSOYwMxMZvZzb4IDEKSEYsAIRYtaN/uOktv9ftjbl317anqnu7pmblX1Ps8QqJr6rynT9U5Vd1dp4qYpklN00ShUEBbWxvcME0TiqJAUZSKssHBQSQSCcTj8THXbduGbdvQNK2ijmVZAABVVblcqqqCEFJRNjAwgHQ6XSHTTx5Pd0opLMsScvX39yOXy1XUi5rLtm3s3LkTM2bMqCizLAuEEK7dRXbysrtt2xgcHERra2tkuou4TNNEPp9HS0tLYC6R7pRSrt11XUepVEIul4tEd682LhaLsCwLmUym7lz5fB6EEKRSKS5XGN8S+fHQ0BBisRgSiUQkuvvFjGQyiVgsFogrqC8A5ZiRyWQqdJwoMYNnC0opBgYGGuLHlmVhaGioIVyGYaBQKAhjBk9eWF8olUowDAPZbDYS3b24CoUCbNuONGaIfGF4eBiKolTEjHr5cTwejzRmePlxKpXixgzRuFCLH2ez2YbFjJaWFu7Y78XllFfZMhINRT6fB6W02WpISEhISEhITCCMTpPZbNE9mRDNLhVFgWVZo3+c9dgsnAc2u+RNWkzTBKW0YkZKCIFlWTBNE4SQMXX95HnNjHlcTCarG0T3oFy2baO1tRWWZVXYy++tg0ieyO62bXPbqhbdeVyEEJimGZpLpDultEKWk8utTxjdAXEbMy5Wt55czLcIIUKuIPIAfz8mhEDTtMj8mMfl9GNFUQJxBfUFJ5dbz3rFDJEfh+XigZWx+6pVdz8/ZnGjETHDi4snL4wvsH7RqJjh5ImKi+cLzI9543jUftyMsd+yLG7M4I0LXrp72Z3FW6ZLEN1rmWeI3sBVY6fRCRzrFLzBRBSMnWU8Ml7AZb/jlTFZPMOKuKqRxzMspZTL5VcvSi5CCPcTD6snGrREdnKWi64HaWM/O/G4/PpFNVw88MqcXG5bhdGd1fO6L/e/68lFCPHkqlYeu9ZoP46SK6gvNCtm8CYZtXC5wa5HqTtPP2cfbFTM8OPi2TaoLxwLMYPnCxPFj/24gvgxkxnleOzkC6p7I2NGxQTOeQPVKOf8Pa+eSIEwjci4nINaEHlBDduoRrRtG319fdzv4PWYwInaKspgzK7VwsWDl6PyuKIOxuwaa5d6c4l8K+oJHOPi+VZY3evBFcYXGh0zeDrWYwLnZ4vx4sdRc0UxgQOq861G+nEUEzgvrrC6j6exX8QV5QSOcTVqAueMT0G5WB3+aCnRMAwPD3OfYCQkJCQkJCQkRJATuCajvb1d+AQmISEhISEhIcGDnMA1EYSQivRyCQkJCQkJCQk/VG7W4oLoG7dXmV+dqLmCyvP6dt9oLrYGrlp51XAFqRNW93pxieqIUA/dJwJXVPImClfUfU2ERsYM3l5ZrI5XWTJemfQUVp5ojRNQ3oeqUVyxmAZYfK5j2Y8nYmwdT1xB5Y2nsT8KLo1dNAwDAwMDFT9mKbJuoYQQ5PN56Lpe4bCUUti2zc2uZCnGPEdmqcJssbibi21iF1Qeu2mnTBEXcHRvNvc918LFNt9zZ8P19fWhtbWVyyVqYBGX0+48rkKhUCHLLY9XxmxeLZdlWdB1ffR31XC5+4yby7kYlF1n/dYwjNHf1MJFCBlN4eZx6bou3OrAaacouIrF4uj9udsxqG+5/djNVSgUoGkaYrFYzVzMFl5+bBhGhUw/Lj9fEPkxKw+qexA/ZlxeMUNTVWiaggN9BWzbl8fBAQO6YYEQTsCmgE0pFIUTyCmgG3rF5ullLuotjxDAXUQpKAWXi1IKwzAawlXevsFCMhFHayaGGT1J9HalR+6XPwaF9S3DMEa3Lam3H5dKJVBaubWHV3/343JODBoVM9xlbOxvVMzgjf1eSSx+Y5pXzLBte1zEjGq4NGYIVVUrdnBmFQjhZ71YloV4PB5oh2Q/eSKjm6aJVCrFncAF5WKdzIsrmUxW1PPTPSgXpRSdnZ1IpVIVZWHs5Oc8lmUFamM/3UVcLKAlk8nAXCLdRW2sqioURang8tLdS55XGQugUXIB3tlmIq6gunv1J7ZzOu9ElbB+7FWWSCQqHvrqETNYWzU7ZigKASEKXnrrADa+dRBdnW3obGtHTNMAlCc1YzAy9+HmNhFAIQS2XVnI1BLKA/tPFXVGykiDuUzLwsBQEY9vOoCZ3Wl8aPFUZDJxAPwMxDC+wAbvRsQMVt6ImMHkubnC6u7nd7FYLNKY4edbUcSMavw4lUpxJ3D14qpl7B+1iKIoFRMxdl2kAHtqd9fzcix2TZQiK3ICxhXkDZyX7qInLcYVj8cr6vnpHoarpaWF+4TLZu08eSI7+T3VlUqlwG1c7ROpW55hGJFyiZ60gHIf4HGF0b2aANkILrbBYxCusL5QDz/24wry1j6MLzCueDwe6Gm6HjFDURQ89+oevLUrjzNPXYBcOi4zz71AgAWze/DKW3vwyIZduGTVTOFn2TC+wGzfCD9mG/lGySXyhVgsxo1PYXUfb2M/L2aIxoVa/JjZ0Yl6xgw3gtjJdw0cMxJPOd5nK6/rrCxqrqDy2HU/Ll69KLls28aRI0eQzWaFXEH187K7X1kQ3evFFVae6HoYLhEazRVEh2rkjXc/9uMK4gt+XEF1DxszFEXBG9sOYcvOQaxcMhvJuAbD5J8eIHEUKiE4ZeE0rHtlO9a+vBsfPmVGxW8mih/Xg2si+3GjuGrx4yh0b8Q8Q2ahNhlDQ0OeDSYhITFxYZgWNm87jBlTO5FJxmBa/GOGJMbCHhmojp89Cdv25TEwVGy2ShIS4w5yAtdEEELQ1tbGnZ1LSEhMfAwMlzBUpJja0wLDlJO3ILBtGy2ZBBLJJN4/MNRsdSQkxh3GHGYvysrhvVZUFGXMIb3OcnZN9E1YBFbGy3phi/DdmSN+8ni6U0qFXEx/UaZh1FyZTIZ7+C9byMh7OyeS52V3UVuF1V3ExRb6h+US6c6zg5OL9d9adGf68dBILuZbrP15XGF8y8uPnfdWi+5eXE4/VlU1EFdQX3By8TLDgupeTcxw209VFRRKOkyLIp2IyU+nAUEpkIgRqKqKgXw5q93ZdmF8gfWLRsWMenDxfIH5MatfTz9uxtgv4hJ9vQrjx8yuPD3rOc/gJTF4cTnljXkDF+RTnvP7br0/ATo5GvG5sVGfNG3bRn9/P3cCVw80qq0kV+1cx6JvHatcbj7HVVCbrVmquwrHJlhWKycTNgya4VuSa2JxNQpRcI2+gSOECDNiWJaFG6qqjv5xgmXJiLIvWF0eF8s4q5bLTx5Pd2Y4Py5R1mNUXIQQDA0NCblEqcQiO3nZnV2PUnevPlMLF093JtMNUVuF1d0pV3StUVyi1HRRHS95jfbjqLmC+oIXVxjdw8YMxiFXudYGZkdnm4X1BVVVRzPKnWiWHwflEvkC63/j2Y+9uIL6sde4ENaPmf0aGTNES6iqsZNcA9dk8DbxlZCQkJCQkJDwgpzANRGEEO4xWhISEhISEhISXpATuCaCUor+/v5mqyEhISEhISExwSAncE3GwMBAQxdOSkhISEhISEx8jNlGhLd1BjvQ1r1AT1EUWJY1+oeXSswDS4PlTVpM0wSllTsTsy0c2PFCvC0BRPJEiwuZzqJ0Z1Y3iO5BuSilyOVyo1s4uLlEi1VFdvKyO0tZDtLGXrqLuAgpH4IclkukOy9DyMnl1ieM7oC4jRmXM6W9XlzMt5wp9G6uIPIAfz8mhEDTtMj8mMfl9GP3dkB+XEF9wcnl1rNeMcPtx5qmHE37596ZRLVgdmTtCYTzBdYvGhUznDxRcfF8gfkxbxyP2o+bMfbzthATjQteunvZncVbpksQ3WuZZ4i2EanGTmOO0mIZJE4wxXjB2P3HDa9z6IKeKcY6rZurGnk8w7LMES8uUVZJVFyUUrS0tAjLRIOWl51E+rH7CtLGfnYScTnbKQwXD6IyJ5ezPKzufm3Ma5eoudx+JeIKqruXH/N8K4zuXlyMLwxXGF9odMyo1JF/jxLBMZp1F4EvVONbUcWMenDxfKGe4/F4GPtFXF7jwnge+51cvHvy46qYwPkFyKBlIgXCNqKXkfzkBTVso7gopRgcHERLS0tDJnBB27GWCVwtXDz4OSpvkK7nBK4RXLygFfUEzq8srO5Rc4XxhfEQM9j/y0UStYHZMYoJXKNjBlD5ciTqCZzzvsazH/txBfEtJrMek6pGxoxIJnASjQelFAMDA5g6dap8UpeQkAgNCkDVVCQTIxdsoFS0YNLKz7dEVaGpgFGyfL7tEsTiCmDZ0E0gkVKgObamsgygpMvTJSQkmgU5gWsyeG/fJCQkJIJAVQjyB7fj5be3Y6hgQGuZhmWnHI8ktWBYBEQhAC3P5ozBfhweBNqm5qDYKB8TwVlLpBIb+3a/DZqZi96Mgc0bX8LBQQvZRAyFwhBaph6H+XN6odhUvmGUkGgC+O8/JRoCQghaW1ubrYaEhMREBlGQjAEb7vtHfPvH/4b16x/B/f/99/jnOx5DSVURTyiwTQM2FKTSCg5seBQ3/+OjKOYUxDUCyzBAFAWacvRBUtFU2ENb8a9/93Xc88LrSKRMvLP5eTx1+//F1/7Pl3HnQ4/grffeB1UI5POnhERzMOYNHC/rgX3H5WXYiMpE150cXlw8eHEF1d1Lv0ZysU+omUyGW+bHVa0OYcuilldPLvbvKOS5ZTWai/mW+3dR6N5IP46y/f24eGh2zHC3Y11h28gjixV//GX88LpF6Nv9Mv7hz/8OG5YsQ/ubd+LGe5+DphJc/df/F8bae/DE8yaWP3sy+tbdhidffQfJrjn4/F/+Nea3KtBNQFGB7ZvXY9qp5+HIlk149bSTcPWffR2XnjMHu//7afz5X/4/nJgGDg1YsBswgQvjd+7fu+sFlTeeuRrpx+Np7I8yznjpUs+Ywbvux8UwZhsRlpbrBEuDdV9XFGVMerSznF0Tpc6KMJpy76rH0nt5qcR+8kSGFXEx/XlbYETJRUg5Pbqvrw89PT3c+xINACLdvewuaqswuntxsfsKyyXSnWcHN5dou40gdhK1cSO5mG+xfs/jCuNbXn7M7i0qPxYFfsalqmogrqC+4ORy161XzHDbT9OU0bZrxEsqhQBGfgCHhgGaXIylqzPYvvtdpM1efOPvfoydz9yEe9ZuxV985AqcO2BgTq+FrV2r8Z3vXYv//NlNePyVPVi0ZgYMk0JDP159dRjLL7kKg7/5GXbseB8LpkxD/8AwrJKOwT5gmNCG7Y/C7OhsuzC+4PSpRsSMenDxfIH5MatfTz9uxtgv4hJNjsL4sTNmBNW9lnmGuyyInXyzUCkVH2gryr5gGTdRHmirKEpDDphvNFdLS4uwzKtNwhxm75fJE0R3Ly5mu7BcPN3ZPYu43LqE1d0pV3StEVzOLLkoDvD282Nef6/Fj6PmCuoLXlxhdK8mZoyLLFRCQBQASgn9O4ahzZ0ENfEQ/v0ff4vB/fvRctH5iCdTSMQTaJvcjUO7/wk/+q6FN3ZRXPThGAgAkiSwdmzE2qfvQP6VPwD9L6EtuxrnnTGtafvZMTtG4QvOTL5G+DGrHxVX0CzUevlxI8d+EZdoXAjrx0z3Rhxmz+KTaA18NXaq2AeOd0PuFGi/Mr86UXNFKa+RXIqioK2tLZQNo6ozHrl4151/11v3icI1kXVvdt+NUvdquBoByzRgmBbUGLDv9QexcUc3Lle24qafG/jCjd/Dnjv+Fk+X8rBME5TaeOuxB3Dfyytxw41n4Ppvfx/5kazUdFzHg//9ELILPoe/+duPwX5vM371g19j3e6zsFi1oRs67IbNSMsQtdl46Z+N5JrIukfNFaW8icgls1CbCErL+8Bls9lmqyIhITGBQRUVPe0ZvHf7j/EXL/0cQ3ocq7/wN1ixvANvLLkVt3z/u5g/qRcn5tJIztLQ//qdeP/cj+Kk1n/H//veNvSkTkBvyURJBWKHD+LtBMW8cz6GqZk2mHMWYcqcBDa9sB9LlnRjWvdUJFTAYxmRhIREAyAncE1GX18fJk+e3NAndQkJiWMI1EahBCy9+G/wn2uGUdAtqIksOtqSKJjAJ//3DTi/v4RUrgMxWKAa8PX/XgzEU7hg9XIMDCtoackBlgl9wIKudOOzX/l7aGoCfX0WiNKKy/7iBzAsG2bsI/g/f7IGhFgoyS3gJCSaCjmBazJyuZycvElISNQMosSQbmlHeuT/Td0CBUCUDNo6MuWF1iCADcQzWVDbBiGtaG8HKLVByUgiFVEQUzRQ2wZIuYxoChIqYFMCVVXGLMiXkJBoDuQErokghKCtra3ZakhISBwDoNQGL4GN2hbcl+3RA7P5r9HcEzRq2yOJGBR2oxfASUhIcKEB5YmEYRjo6+sb8zaIEALTNLnndRFCkM/noes6NG3sPJBtScLLomCBgZfZwrYJcW+pwbhM06yQWY08tujPvZUAjwsA8vk8KKUV91wLF8sccV6nlOLIkSPcVGKWis17Oyfictqdx1UoFCpkueXxypzZl9VwWZYFXddHf1cNl7vPuLlYpo/zOuu3hmFw07iDchFCRtO0eVy6rntuMSPKGgrDVSwWR+/P3Y5Bfcvtx26uQqEATdNQKpVq5mK28PJjwzAqZPpx+fmCyI9ZeVDdg/gx43LHDFUhGBoaKl+vYJKoFoQQDOeHkR8ehGGO3YojjG8ZhgHTNIXbHEXpx8yn3DHDq7/7cTkXsjcqZrjL2NjfqJjBG/ud44JIXpiYYdt202JGUC6NGULTNLS0tFRUYI0oSuFPJBKIx+MVCti2XTGxYwoA/BRZ1kg8o1NKkUqlKmT6yROl9zoNy+PKZrMV9aLmsm0bu3btwvTp07lchPDTxUV28rI76xS5XC4y3UVcpmmiUChwkzP8uES6i9LFWRBxc4XV3auNi8UiLMuq2Hi5HlzMSVOpFJcrjG+J/BgAYrEYEonEmGu1+LFXzEgmk4jFYoG4gvoC48pkMhU6NjJmpPM2CBmUR03VABb7U6kMkq7rYXyhVCrBMIyGxAxVVWHbdqQxQ+QL7Lo7ZtTLj+PxeKQxw8u3RDFDNC7U4seNjBm8JVRB7OS7D5xoDxa/MlbOU1pU5tyfxw2mn2ivlSD6ud/oNJMrl8txG5jNzIPaSaSf876i0l3ExX4flosHUVnUuvu1MU+PenHxbOhlpzD9068srO5Rc4XxBa++EVT3sDFDdJ8SwaAQBURRxrzJjNoX6uXHvLJauMKM1WF1H89jP5M5Ucd+xsUb+/24WB0ZXZoIuQZOQkJCQkJCIgzkBK6JoJRieHi42WpISEhISEhITDDICVyT0dfXV7G4UUJCQkJCQkLCC6EPsyfE+5DZehxoeywdZs94UqmU0O68zBWnHqLFr6J7CnvAfBAulikVlkukO88OXlxhdGf68dBoLlZHxBXGt7z8WB5m7617NTHDbT9VJaPJQzILtTbU6zD7Rvhx1Fw8X2BcrH4j/FgeZh+ei+lf62H2od/AiRZeSlQPuQYuOjSyP9abyym/kVwSUUPaNirU4yPFsRoz6o1jOWZMtHvzzUJlWRRBsi/YHiW8NFgG0f43opRbRVGgqqow60UkzyujpNlclFIUi0W0trZ6ZqnwuHjyvOxeTSZPEN29uJjtwnLxdBelizMuty5hdXfKFV1rBBe7Jy+uIPL8/JjX32vx46i5gvqCF1cY3auJGbx6jMOyy3vBycUSwUBp2faxWNmOUfiCM5OvEX7M6kfFFTQLtV5+3MixX8QlGhfC+jHTXaR/PeYZokljNXaSa+CaCErLG/nKNXASEscmUgkNiRjBUF6Hokysp/tmgxCgpNswLROtmbh/BQmJDxjkBK7JSKfTE+61rYSERHVoySTRllaxfc8RxDQZboNAU1Uc6s/DKJUwfVLlpuASEh90yIjSRBBC0N7e3mw1JCQk6gRFIThlwSQcONSHvYeGEY+JP5lIlEEIoKkKirqJN97dg6XzOpCMx/wrSkh8wCAPs28iKKXI5/Pc460kxh+0ZJK7LJ0Qwj06BoBwDQngvXZHS6cDc3nKE9QBAC2Tgeax9iQol8RRWJaFqV1ZnLGoB2tf3Yn5syZhalcLEnEV8otqJSgFdNPGgb5hbH57L2b1pLB4fvfoCQQS0aKmmOGxNi5yLo/1hUHkecVPxuW1/nm8Ycw2IrytM0TnfCmKAsuyRv/wUol5YGmwvHVfpmlyHZVt4WCapnBLAJE80eJCprMo3ZnVDaJ7EC52T4cPH0ZnZyd3exTRYlWRnbzszlKWg7Sxl51EXISUD0EOyyXSXZTOzrjc+oTRHRjbxoqmgVKKwffew/DuXSgODcGm5XP5xuhCKSzbhqoo5dcHY+7Lhm3zF9p6HSRdKhVBQBBPJPhcoQ6LJiCkkqtYKEBRVcTjMYyl8tOdQtU0JNo70DpvPuKZDGzbFrax04/d/d2vTYL6gpOrfC/1jxmsH7qvm6aJBTPbkUooWPvyHuzccwjJRAKqqoTKrhRtqVIPNIqLlMlg2zZ0w0CxWMDSeZ1YMr8bJd0QHjkkihmiNmb9ol4xg8fl3AYjCi6eL7DxmDeOO+URVYVCCPL792PgvXdRGhwEQKEolT7uFTMKhTw0TUMsFjRmiOMTL34SAuTzBcTjcWiaWsFFabB45xWrGVcikaiQORrvVA2J9na0zp2HeC7nGe+qnWeIthGpZo5UkYXqruSVAeIs45FFdR6aF1c18oKeUeZVLyouFhjT6bTwvvyyjURPpKInE1FbhbUTj8uvX1TDxQOvzMnltlUY3Vk9jDylDe/bi+333gvkBxGPlQdcAsBw9/UR+WZZAL+MNwiOlNk83xkpE3IFlAdCYPH0A6DWwGVRirxpYt8Tj6N75UpMOv0MqJoGguB9A5w6ZZWD+0KzYgZvklH+G5g5uQ3Te1qwfe8g9h/Jo6gbI2d8uuTR8oChqBxfoEChkEcqnaoosq3y/ltCeYpSsbMJtUfui8Nl2zZKxVJDuCzLgl7SkWlNoz3billTpiGViAGOtufZVhQzRG1ct5jhweX+d61cPF+oxrc0TYNlGHjvgfsw/O47SCaSUNXyRCZozNDqEJ+48RNAnBBQD65AunvF6hEumyeTxTvbRt6ysPfJx9G1/HRMXrVKGO9qjRnVxLsx7xJZCjCvAk8Y+z2vnkiBMBM4xsXKnOX1CMaiLTei5lJVFR0dHcL7inoCJ2qrKCdw7FotXDyIykRctQRIVVXR//ZW7Lj7TnTNnIm2xScjlslAGaev0ZsJSimsUhH5Awew5/fPorhvH2ZcfJnw86DIjxmimsB5cdUrZvB0ZFyjaf+KgtlTWzF7amuFjGphFIcRS2ZC1x+fXBRmqQAtkR572TXhGlMjxASuLJI/bkU9gasXl8gXvMZjVVVhDA/j7Vt/hQSA2aetQKK1FWpMri0MgnK8KyF/8CD2rn8Bpf17MfPSK0AUUrHkpdp5RmQTOInGglKKQqEg18CNIyiKgvz+/dh5/32YsnAh2mfPgWUYsHQd4v2xP9gghCA7ZSrmdHTinaefwp7n1qL3zA81W61xD79PL7y1OpRS5EsmWpPB5fH2nGKf13hclmU1jMswTBRKJloSlVwStYEQAts0se3eu5FSVUw7fSWoZcG2LNgjSwwkqgchBNnJkzG7owPvPf0Udq99GtPOOrspusgs1Cbj8OHDDVvPIlEd9vz+OWQyaXTMnQezVAIVrEeRKINSCsswoCYS6F2yFIfWPQ99aLDZaklISKA84Tj81haUdu5E76nLYZsmbMvifkKU8AeLd0osht5ly3Bo/Qso9fc3RRc5gWsyUqmU8BW6RONh5PMovr8TnfPmwTKMZqszoWCZJlIdHUimUuh/661mqyMhITGCvtdfQ8fMmSCqKh9II4JtWUi2tSOdyaJvy5tN0WHMu2zemyD2HTdImV8dPy4evLiC6u6lX6O52tvbI7NTmLYKq/t45woljxDo+Tys4SEk29rLT6kS1YNSqIkE4vE4CgcOjFyqrl1kzKiOazz4VrO4gtZx/l1v3cczFwhB6cABdM2ZKydvUYJSkHgc8WQKhQP7Ry6NTZaqJmbwrrtlieqM2UaEbdfgBEuDdV9XFGVMerSznF0Tpc6KwMp4GWVsGwx3ho2fPJHziLiY/rwtMKLmsm0b+XyeexoDSxfnNaKXPJHdRW1Vi+48LnfqfFAuke48Ozi5WP+tRXdF02BZZtkxNQ1Urg8JDkJAFGX07aXTZ5x+rKpqoJgR1BecXO669YoZov4elovHw/o5T249/DjouFAvLp48LzuJ7M76RVQxoxlcPF9g4zGrP1pOCIiqwjZNEFUueY8aLBPb5MS7aucZvLFfBLe8MduIiDarE2WhskNf3fW8FqsyYq/DYnk3q6oqNE2rqOcnT7TQlt2vFxcvVTtKLsuy0NfXh0mTJnG5RNlGTIcgi4Ttkb3DotLdi4tSGppLpDuT6YamaaMTe3eafhjdR68JnpokqoOildvKbWORH/vFjKC+4MVVr5ihqmqkMcPLt4JsHB3WF5i8RsQMTdNgGEagccHLTl52V1V1dKuTKGKGHxfru1FxiXyB9T+eHkRRAMiYVi+oI23lbLNq5xm8BxpWzuWSh9mPDxBCkEwm5Ro4CQkJCQkJiUCQE7gmghCCzs7OZqshISEhISEhMcEgJ3BNBKUUxWKx2WpISEhISEhITDDICVyTIfeBk5CQkJCQkAiKiixUJ1i2S9Ay0XVWBkBYxhaXOic1flxe8lgdd+aOiMtL/1q4eKnBlNKRw4CDczEeJ1c1OvjpLipjCzKDcImy1KrpM9VwOfuFiIuXzSXiEmU6SgQHr00aGTO8ZEbtx/XiitqPJ3LMCOvHYWJGNXGrVq4gMbJWLrnGuv4QxQa/mCHq10B1Y78GlBvYNE0MDAyMEcau887rIlj6W8cAACAASURBVIQgn8/DMIyKbBlGwsuiYErxsmic2YTuDlgoFEa3Hwgqzx20vLgAoFAojPJGxcUyR9yNm06nMTQ0VCHP2UjVcjntzuMqFAq+8nhlzObVclmWBV3XuRMiEZe7z/ACP6vnDFqGYcAYSeGulYsoCvJDQ6PBUiIcCCEoFIsYKpVgl0pjrufzeZimWeHHfjHDzxd4fpzP50cnd255QHR+DDQ2ZoT146Axw7ZtFIvFCRczCCGj2y3wYoau68JtUHhjTC1cpVJptC5vgh6Gi7Whm4u1lWmaY8dPTYNpmjKm1QnM9kOlEqiuNzRmaMDRN0FtbW0VFURn3jHixMjGnW4FRGnQrLPzOi4L7KKOlk6nK2T6yQt6Xh9DLperqBc1l23b0HUdLS0tFWXMUXl2F9nJbxsRQghaWysP0Y76XEPTNJHP59HS0hKYK+g2Irquo1QqVZwnG1Z3tVTEfvkmriZQSpFKpZBLJoHk2IM0WeZ1zHWItl/MCOoLjCuTyVT0m4kSM0TbiDTKj9lg0QguwzBQKBSEMUO0jYjITl52L5VKMAwD2Ww2Et29uAqFAmzbRiaTiYxL5AtsG5FUKlVRpmmajGl1gijeVRMzRGM/UN0cSa6BazLkGrgPHgghIAjyaaO8WaSzvlAup6jy7RWBopDy3/KpXELiA4co3sY5Y5IfF3H8O0oEj6VVCZ0wbyvlBK7JcL+9lDj2MbLCAXrJgF3V3J2ObiysqOVPhTZn0k/B33/YNErQTWvMLykFQC3oVIU6QYKVhIRE7fCKIVWD2igVDfgfzEVhWTYUVRn5vyhBYeglmDRKyQS2qUM3DADjPy7KCVwTQUh5H7iJMtuXCAMKEBWJbCsSbW1IxIp49Lc34tl3d2HjU29iX8lGIpFEorUViWwKKgAtkUEimy1fSyehH9qGu296HIdTbVAHd+CuB5/BriEgkcuVf5PJINFqY90v78MLWwYQT8aQSOWQaG1DIpPE7reexabte0BiKSQ6e5AY2Iqv/+BhvHNwB3761MPYbyrQZB+UkDjmQbQ4lIGduOuBZ7Arr5TjR2sLEgkVsCliicxI3EkAFEik00i05JDIZJGIlT/pJpJZJIzDWPvomzhsAvF4YjRWEVCoMRbP0khoFjY8+Tus3VaEOrQVt93+M+y0u5BIqKAgSMQTiMc0JLIZJHKtSOSy0AgFiIZErgWJXAaJVAKawh5QKbR4GonWdiTiJl575Rm8s30rfnH9k9htK9AUAlAKosTK8lpzSGgEoASJ9EhMTWjlmJxpKcfQVLL8G6hItOUwuHsTXnxzCwwliUQmV7ZPXCnLYP+f0MbFaT3ycLQmQ9f1ZqsgUUcQNQ7NOIhf/9f12HigDdddfSnyfbuhl2x0KwoS8QT6t23Ed29/AslZy/HNK87E4T/cg8e3HMEb7x/A8suuweJtj+GfH34ROOdkdA+9gYMts9A7VcP6O36J/9myG/ETVuHPz8jhjkfvwN69cSxbfAneeOyfcfuGIzjvkmsxLxaHosYQM/biVz+6AfuG+7Fp2yxoXbNwBnkCj258H59dPR1mUZ79KiFx7IJAU0p4+KVN2N92PKZ1GPjNLTdh/bt5rPrwFbjorFl47/e/xU8feR1zlpyLL56/BH/43e/w6NadaGtP4riVZ+DsGTOw6fWnscNoQXtCRSwRR377S7j+9sehz1uBv7r0LJTeeQHfv/sZZOeejm9efhYWzO/G7ZsewswVCzDcdwCvvHw/DvaegBWTUnj5zVdgKj049MpL2HB4K4zEbHzpj6/GZHM7/vNnd2GfMQmTTpiHs048DrNyMUBV8f5rv8Nv172JxNQTcFJ3DqqVx+73j0BH+Z2ZEovDGtyB//qvO/HaYBaXX/kprJwdx9MP3oz7Xt6F086/Gh8/TsEjd/4SfzhoIz19EVYuWoxTp+h46u7XkekxEdNiSKZNbLjjF7htyyDOOu8qXLg8i2du+xnufXsQZ533CVy4rAdVvIKsK8ZsI8I7wF20WFVRFFiWNfrHnb3ES4EFji7Q4637YtkzvIxXy7JGM2ncWR5e8rwW2oqyDRmXaEFyFFzsng4ePIi2traKLDq/hds83b3szg7ODdLGXnYScbEsqLBcIt15GWNOLrc+YXRXRrK1IgMhiMHE48/+FhsT87CqJ48Na99DLJdF1jyMZx95D5kTk3jq1y/gxDPPwaHND+JHz3fgpJfuxQP6anxiEnDLLx/HcZfPxdLpfZicLGD3tq1YctYVsN59ApsGbFz2sbPxwM+fwrqpa7Bg1nxMPX4W9r52H27ZFcd5J87F2y9sw1DyaRzuTcJ87mX84Ugnzj2+hKdfOwKiZbBwzml45fkXsXvlXEwmJoyIHiptq2xfpz2dfuzu734xI6gvOLkANCRmsH7ovh6WiwdWxuun9fBjFjcaETO8uHjyvOwksjvrF1HFjGq4WN2ouHi+wMbjinGclA+zp5RCUVWYA/ux5/C7WH7hJ7D7d/+DV17P4rKL5+Od/v3Ytult/MuzL2PNmvPxzH0P477eHPY9fg+2TT4Pn50yjBvveRkn/UkOGx56DMkVH8arj+xG16pO3H/bi5h68nIUh17FC68msen+P2DZ2edg+0v34XtrJ+N7q0+AumU71r53BG0taeQPHcQdW3bg5Evb8eK6d7DwhMP4xZ2PY82fXIjnn7wL97x5JpZvfwQv7mnHJacU8A+/vQdzF/x/mNuRAxQDb/7hIdy1eyZ+/KEurHv0Vkw/7SqkEyq0WApKSxyKXcCDD92PZ1pOxpdmE+x/eRdeObwN928CLj73BPzi6buQs07CHc8+g4WX/gV6XnkWa/uzOOFDR/CbHfvxUX0f3jWnos3Yi+d26Th78Qys3/cGtNt3YuM7SVx8dhtuvud/MHXqV3DK1NiYPuD0y2rnGaIkhmrmSGPewPFS9ZmTig5bd/5xgxdwmVK8MsYjyihzps8GkccLMs5tKURcvHpRcimKgng8Lrwv0aDlZSeRfuy+grSxn51EXM77CcPFg6jMyeU+LDqo7kRwP2FBiArL3I231r6CNZ/7Mc5flAOG9+G2nxuwiIp0Lgvz4Ht46P1XsPTVGIzd/dhj7MOJXV24dOG5+OTkA9i7+WWoHTNw0uQBdLcSvPNGOyafbyKbOQFtLTvx9Asv4P2dh3B6ph3zJ8+FfUIX3nvuFiya9RlceOnpAEp47tZHUTL78PSWNFZ88mJctHAPXn1mPSzDRiZrIJF6B33DGqamEdlSktEsKU7c4PV3BlHMCOMLjY4ZPB1r5XKjGluMFz+Omos3gfOyk4jLyVNrzGgGF6/9qxmPiUJQGBxA8a1uTLkSaJkzC1NefBIPbwA+euVpiK2/Bdue2IYXsq/j4KHX8O7e09GWWYpzzzwTpy8ewNPP3IYNr+ewRT0FX5/Tgf9KH8Hw9tfxYKYD/3rBR9CduQj5l27D3257CWe/omLg/X7st/cBH52BXtqBgb4+5KFg8bxliO9ZixfengKr92Qcn9uPGTNX49qLLkBq8BB2H9iNF4f6MefC63DBsgE8tlPFG+sfwCO3bkXvnHMxK9uGK874MJYdNwOvPB2DSoBYMoHdrz+CXz/2MhLzTsWHZixEyzPr8XhpNj5z+TnY8tBdeHhnCR0vd2HXa33YMr0fJx6/ABeuvADTslvwrde34sknilg64wTM6yzh4N48nn1aR37WOfjYpxbjY8OH8YvvP4ffvkuhdqex55WD2Ll/CKdMz4za391m1c4zeP1a1P5uXxidwAUNCn5lIgXCTuC8AoafvKBBplFchBB0dXUJGzHqCVzQdqwlGNfCxYPXBE40SIfVPTJQQCFx0LSJQVBguA/b3tkHnRBkAVBqA2oS7Z0zcPrS09FyQjeK2ekw3rSQiykYLpQARYFllGBa5YSXRK4ALZ3Auw/djmefK+Djn1uFvc/cB8OyoZRMJEgSsQxwGBZAS9iz9X0M6BS2mkBnrgTdNoF8H/YVh0EJAbVVUCuBKG8bOJqh5rZn2JgRxheOhZjhBrveCD9uxmQxSBuHncBFHTP8uIDKlyONbBPGT2l5O5FESx5m0UKiYzo+fPmlKBzahF8++SguUdvQM2cBVi1filJHFl2zevD62t2IwQAyU3DC0iz+484HcN6Vn0NnTINp2VBjccSHDCiKBv3AW9gyoGNSz2ysXHo64vM7Ucj2AkUTeQLoRAE1bXRP6cW23n78y28O4BvfWAnsPYiElgO18ygaFGosjrSRx74jfYBpYWiwH52TFmNOSytau3sw+KqNlhhg6wYoLT9zWoaFTMd0nHFqDKR9CmZ0A1+6qBvvrduEh37+FLqO78Bxs9pw7mnzMHvyIUzrUvDyQQqrmEd6wRmYecfN+FW6E58+Yxla9m6EQXLIaDqGdB2wS9i+bReK2ThOXDgTa06ZjSnZQ5jXlYBtjt2zLcgEzqtfi9pfOIGTaA7YJrQSxx4otUBi3TjlQ6fgX2/9Pp4vGJiz9AK0qQpAKcxSAanelfjsrB247/fPAwd247SrF2IStTFslzNPLYsilUtj14Hnse6NBcBc4LXdw1g1qQeFoafx1Es9UCYPQ7cpstl9uPd3z+Mrl5+H3Xf9Gv97/W+Q7jkbJ+WAIrpwySUF/P0vf4DXplg4os9FKkZx+HABeWsxpuR0mCX/e5KQkJiYsG2KZFsbMN3Am0dKSO7cjJ8/uBHdk1RMm78ai07rxitH3sBjzzyL4b2H8ekTTwRo+XMzYjksn9yOb23uw7VfXYi4shmmXkKudxEuzbyKv/re38PQCrj8kk/gC7MP4YHfPw9z3y6c/qnTgaEjOGS+j8nTT8TBnQUUs9OwOhPHLbSA6V1dsHeZsCyzPBmzDAxrLbj6lJPxrf+4Ad96XsGWgcm4duYCrJyWBlQLT76kozSyRIPS8vIaQ9eR6zkOy2YvBGBg/QM34NcbFGRjJZy0cBVWLJmE1zY+goee3YHdhU58evZcwLRgWwbQPhPHde7FbVtSOHNRJ45s0zFkpvBHa2bg5ptvxbf+6m4M967AdStPQeGO3+Phte9ix5GZOO0jcSgR59UGhZzANRGUUhw8eBAdHR3CpzCJiQwKw7Rx+opPIxNbh21mFquXL4F5cCqsVDsW/68ZaG3pwsJPXgTlxc1QU+fh7JOnY6Dny7AyOajKfHziK9PR0d6Ca75+DdA2A+a+I/jd2qew6rKL8bWvTMHbg3Es+fAZyKS7gE98ArldBmbMXIi/vjiL9bsLWHbqSrSVjkc/zaG3YyH+9OPt2JPowKIrp6M9vxe3bXkRs5ddh1Zbh5y/SUgcw7BNkMw0LJ92Ih5+7vc48/JVuC4VwzuH4liydBF6OjL40gWfwlOv7UDrH52AFXO6MPNzGaitrdD7h9G58Hzc/bNVmNxhQ7dn4Lo/60ZXphuXfO5KZDduQXrKQpx9wlTovTlgwxtIZC/AuUt6sfmZe0AwB+edvAT9U3uRLr2JJzcX8dGVZ6NLM0HnnIwvfInCzhN89JzzUNJaMKn7fHzrS9NwYM/bePsPwxgYHgbyFLpl4+QPfxHHa+0wEcMFF38JsXQ7TvrTGWinRehDAFQVS8/4DOz4JuxPZrHq1Nlo1yg+dw3FS+8cwpXzTsXCKSZmtc5CS2wI+hDFWdf8H9w6nEBuaD+0ky7FlUYM06b24NOfTeDlvTqWnHQKZvTG0a214aXd/fjEolMwv0WBbckJ3AcasVhMTt6OYVBqoWSrOOn0c3ESsWEWCiA9swDbhNKWg1kyYMU6ccGajwDUgJHX0dYzB8TWYdIYemfnYJYsHL9oOWBbQOeJOFLciaEBHQuXnImFtgVqUtiWDpqdhzMmU+jFIiYfdzouXqjALuZhpaZhCjVRMigWrTwLi2wbIEBx337E5nwMZ81tgWHwF4NLSEgcOzBLNk48aTH6zJ0Y7LewaNnZWAQbtFiEPjyMeOdcfPSPjgdMHaWSgUkzJ4GaZnlxfrwVC6Z0wDSKsJQ0ZszNwijpIKnJ+OiaGeU6+WEoyR58dM00gJqwikMw1S58eNVSpJQY0r2zMbh9PQ7mZmHNh09FTB+GlW7FzFZAL1qY1NUDQi3oBRMLF50KHDcThxNvYWZWg2VTUIuitWsmFGrCsCgmTZ4N2zLQ2ZaDWTLLSaGmBTuRxYo1awBajrl6EeidcRKmzVUBo4iSHsfUKS2wjBJsiyDT3o3juyhKRQOp1inIEQq9UMKMhcsx8yQCWiqg1F/CtOOXYfoiBdCLKJUMaKnmTqHGsPOyHth3XF6GjahMdN3J4cXFgxdXUN299Gs0V2dnZ2R28rN70LKo5dWTi/27FnmsT0cOaqNUGD76/+bI1jGlkUwz20Rp2JFVOPotk8IY+U2pWBhRsgVnrlwMU9dRHB4eu9WkXYI18kVeLxVw9JWaPprtXsrnR2WTtln4VBeBoVezIWdAjJix2naWMaM6rkb7ViN19+Oqh7xaY8Z44fIaj+F8QUAtlEgLzjydE0MIgWWWYDnWUhi6cVSGbaKkmyine9nQR2ITtQyUho/+znb+PzScdPoZ5cmdaYIYBhJTFuNPPrccdn4YugkQYkEvlcUajizOUn4AlGRw2arlsPUSdMsGIYBl6mCPm4ZR1tUqOSIYAahtoTQ8POaarhcBx65dhjGy8QgBLNOAZR7Vn/1MZ3GXyXDGVU5iVLVt7CznXXfLEtUZs42I+8BdAMJDfxVFGZMe7Sxn10SpsyKwMt5if5ZiriiV2214yRMFGREX05+Xzh41FzsLlaWGu+WJJhRe8kR2F7VVLbrzuNyp80G5RLrz7FBNmn4Q3RVN82zjcQFqo1Qqh5fa3tuygByFUpVgbeG0p9OP1ZGtDZy/94oZQX3ByeWuW6+YIervYbl4PCxO8+SOJz+Omosnz8tOIruzfhFVzGgGF88X2HjM6o+Wk6PbiBwljyqGVAejVDrKRUh5wjdkMPU8QECohVLROlp/nIIX76qdZ/DGfhHc8nyzUCkNnvXEMm54h7Ey8MoopcKDXxVFGT2sN4g8r8ywZnMRQnD48GF0dnYKM4dEbSKSJ7I7kxWkjf10F3Ex24Xl4unO7lnE5dalFt0lagfLQnXbU+RbfjEjqC94cTFEHTO8smvDconqRBmDvHwh6LhQLy7RYfasrgi8MmcmXxQxw4+L1Y+KK2wWqkT9wGxebRuzOl4H3VczR6rYB84N1pmClPnViZorSnmN5CKEQNM0bipxPewetS3qxcW77vy73rpL1A5Rm42XvsvTbTxy8TBR/PiDFjPGs50k6oug8c6rLEh/inj3J4kgIKS8D5yEhISEhISERBDICVyTMe7XXElISEhISEiMO8gJXBNBaXkfOFGWioSEhISEhIQED2OyUHlZRaJDdQkZm7bMyyjj1WXXeN93WeYN75uwM0vWzeUljwcmS/RtmpUH1T0ol23bY7KH3GWitQxe8rzsHrSN/XTncRFCauLy0p3XL0RcoXQXtIVEcLC2cNrTz4+92j+oLzi53Jnr9YoZvLhRCxevXMQTVvd6+XHUXDx5fjGDyXZzicatMLo3g0u0NorLNSJfviKoL3jxrtp5Bq/9germSJq7sFpHrWYbkSgncF5cXvJ48DNsWN2DclFK0dHRIQz8UU/gePYLq7tfMA7LFWYCx8qrdR6R7qLJtERwUJs/gQsbM8JM4JoRM4IGYy8u0QTOLz4F0b2aSVWjYoYXV5QTuChjRjO4eH3JbxsRyK88dYXT9gz1ihncCRwh4rRlUWqyqqqjf3iKaVrlLsWMWMQlSqtVVRWaplXU85MnSnVn9+vFxdvqIEou5mSapnGdnxB+ujjTQeT4PLvbts1tq7C6e3GxVOcwXCLdRduIaCN7t7llhtV99JqMdzVBUctt4baxyI/9YkZQX/DiqlfMEG2PEpbLy7d4ZWF097I7k9eImKFpGgzDCDQueNnJy+6qqsK27chihh8X67tRcYl8gfU/0VZMchJXJ9Cjbe9ss2rnGbyxn5Xz4JQn18A1EXIN3PiDGotDSSSg54dABBMGCQEIKR+7YxiI53LN1kZCQmIEsVwL9HweELzJlggBQmCbJkxDR6xJ8U6OUE2G6K2CRHMQz2QQ6+5B//bt0OLxZqszoaAQBfrQEPJDQ2iZO6/Z6khISIwgN38++nbukA+lEYIQArOQx/BAP1rmzW+KDrI1mwhCyvvAidb3SDQeiqah65RTcXjnThT7+6HEYs1WaUKAKAqUmIZ9r29GcvoMZCZPabZKEhISI+g86WToAPrefRdaMtlsdSY8CCFQYzHs37wZianTkOud1hQ9+AsfHBAtwHOWB6njJysMV1B57Pp44OItzveSVw2XqE6UuteLK4w8L56gXLZto/OEhSjt24f3nnkaM1ediWRrq/zM7QECAmpb2LV+HQq6jnkXXuT9+4j6u1+ZF5fX78dLzKiWo1p5xypXGHlePOOdKygfpRTJXAtmXnwp3vv1rQAB2mbPAR3HCVsKgPGqHQEBpTZ2b9iAoXwe8668iv+7BsSMMduImKZZUcE0TWESg2VZMAyjglCUgcjqAPwFeqZpCrNsGJdbpp880UJbdniyF5e7XtRctm1j//79yGazXC5C+ItVRXbysrttlw/ODdLGfrqLuEzTDM0l0l2UxGAYBpcrrO6WZYEoCno+tBo0puGtp59Ca3cXcj2TEUskANCGrAUmZCSPYhxzEQLYlo38QB8Ob9uORG8vZn3iaiCRgK7rnjHDDd82CegLTi53v5koMYNnC1bWCD+2LKthXCI/Zlw8eV528rN71DHDi8u27Wjjk8AXmC3cXLZtw6YUmZmzMOOqq7H9nrux/+2taJ8+A4l02hEAqgchBBS0PvGJECjxOOxS6ShXgx6gvbhYvCsM9OPQ9u2IT5qCWVddDZJKceNdtTHDXRZkjkRM06SWZaG/vx/xeJwrTNRhCoUCYrFYRbaM14Dr1wF554Iyrng8zs1eC8rl3B+Kx5XP55FMJgNNqsJw2baN3bt3o7e3N5DdRXZiXDxb2LaNYrGIdDodie5eXJZlQdd1pFKpwFwi3UVtbJomDMOo4PKzu0jeaJmmQY3HMbx7N4a2vAF9zx4YhTworcyspKCjb1IJKu1EQaEQ/iHdAP+JyzRNEAKoKp8rqDyb2iDgPw0apgGFVGav+epOKRRNg9behvTc+cjNmw9F02AUi54xIyo/ZmVefpxIJCZszBAdZl0oFBrix1HHDD+7e8WMMLp7PfSZphl9zOCU6boO27aRdH22rIUL4K+dLhaLUBQFcdfaXac8NZmE3t+PwS1voLhtG4yhQYCCuzbOM2aMPKwEjhnwiE+EQCEEhwcG8NBzz+OaC86DTQHD0KGqlbtChIl3XrEaAHRDR0yLcfsaKAVRVcTa2pGeNw+5ecdBiYnjXTUxI5VK1TT2a4woFouhtbXVt4ITiqIgkUgg5lon5OdYrC6PS5Q6SwhBOp3mBmMveSLdvbgAIJfLcR0rai5KKdfuXvvHiOT5BX5FUdDS0hKJ7n4TuHw+jxwnMycsF9PfDcMwUCqVkM1mI9Hd3caZ2bPRM3t2mQuAZdtIcvSgACcc+JeJUBoJMrw0ijDyvOoULAsxVeWupwjDZcXjnjEjmUxWToJ92iSoLwDlmJHJZCr6zUSPGYSQhvgxG3wawWWaJgqFgjBmiGwhKvOyu67rMAwDmUwmEt39JlW2bQsnwWG4RL7Atr4STRaZvEx3N9q7u4EzV1fIGFMPYt/PmybimhZZzHDW2XXgAHa+uRULvvgVAMCwYSAViwVasB82Hg/pOrIBk9e84p1fzOD5VpA5kq9N2OAZpCxMnUZysevN5qqmrN761ap71FzjWXerWIRVKHDrWKbJrWfbNizOZyHg6Ccqblmh4MkVWN7Iq3ch18jniih0Hw/tHzVXM2JGkDphdT8WuCay7s2203iJGc74aReLcL4SsgoFWIJlF0F194rVo1wcmWHiXSNihsxCbSIolfvASUhISEhISASHnMBJSEhISEhISEwwyAlckyH3gZOQkJCQkJAIijHbiPBSskXp4oqijH4XdtdjadA8sO/IvM+G5si3afeEhhAymvbtTvP1k+eXpi9aeMjqBtE9KBeldDTFPEgmishOXnZn6wWCtLGX7iIuQshomn4YLpHuvHUBTi63PmF0B8RtzLhY3XpyMd8ihAi5gsgD/P2YkPKZklH5MY/L6ceKogTiCuoLTi63nvWKGawfuq+H5eKBlYXdoieoH7O40YiY4cUlip9BfYH1i0bFDCdPVFw8X2B+zBvHo/bjeo79sVhs9N9MHuPhxQzRerEw/ZPFW5OzRq6e8wzRNiLVzJHGHGbvNhBw9MBiXjB2lvHIeAGX/Y5XxmTxDCviqkYez7CUUs9MOVG9KLls28bhw4fR3t7ODU6iQUtkJ2e56HqQNvazE4/Lr19Uw8UDr8zJ5bZVGN1ZPa/7cv+7nlws20zEVa08dq3RfhwlV1BfaFbM4G4/UAOXG+x6lLrz9HP2wUbFDD8unm2D+sKxEDN4vjBR/NiPi/2b2cSPS9T+YfqnM97y6vnp3siYUTGBc95ANco5fy9Kaw7biDxZ7kEtiLyghm1kIzr53PWinsCJ2irKYMyu1cLFg5ej8riiDsbsGmuXenOJfCvqCRzj4vlWWN3rwRXGFxodM0R+XAuXG9XYYrz4cdRcUUzggOp8q5F+HMUEzosrrO7NGPvd5W4eXh+YqGO/Mz4F5WJ1+KOlRENAiDwLVUJCQkJCQiI45ASuyZCTNwkJCQkJCYmgkBO4JoLS8j5wEhISEhISEhJBMGYNHG8xIvuOG6TMr44fFw9eXEF199KvkVyU0tGsHdE39yB2CtNWteg+nrlqkef8u5lcvLKoda/lvsYTFw/Hasxotm81iytoHeff9dZ9InMFlVdPLkLG7jLhlBeFDceLHzvLedf9uBjGbCPC0nKdYGmw7uuKooxJj3aWs2u8z4Oip7QJKgAAIABJREFUtG9nGS87hKUTs4Xk1coTGVbExfTnpbNHzUUpRUdHh9Du7s7s1sMtz8vuorYKq7uIi5CxqfNBuUS68+zg5GL9txbdmX48NJKL+RZrfx5XGN/y8mPnvdWiuxeX049VVQ3EFdQXnFzuuvWKGaL+HpaLx8P6g+i4n6j9OOi4UC8unrwwvsD6RaNiRj24eL7A/JjVr6cf13PsV5Sj26EAY19y8LhEk6Mw/ZPZVeRbXrrXMs9wlwWZI43ZRkR06KooE0VV1dE/bsVs2644sNpJLOJSVZV7s6qqQtO0inp+8kTZIex+vbjc9aLmYjbSNI3bmUTZRkwHkePz7G7bNretatFdxEUpDc0l0p3JdEPTtNGJvVNmWN292riRXEyWiCuMb3n5Mc+3avHjqLmC+oIXV71ihqqqkcYML9/ilYXR3cvuTF4jYoamaTAMI9C4ENYXVFUd/erRbD8OwyXyBdb/GuXH9Rj7AYwZD9n9iLhE44JIdz8/VhSl4fMM3tjvxeWUJ9fANRmHDh0SPkVISEhISEhISPAgJ3BNhtfrUgkJCQkJCQkJHuQEromQ+8BJSEhISEhIhAF/4YNEwyD6zi0x/sBbrwBAuA4HEK8hAbzbPgyXnzyvMl55WN0lJCQkJOoPmYXapCxUlnl14MABZLNZ7n3JLNSjXM3IQmWTFNM0MTQ0hOHhYViWhWw2O0YfxhV0QTLj4i2YHR4eBiEE6XSayxVEHrsH3oSMEILBwUHEYjEkEonAumuahmQyiXQ6PVpHZqFW6heGS2ahHuXiyZNZqEdxrGShskQxmYUq5nLK890HTgSmME/xqOHkaMSC/0ZxOBu4kZz15pjoXM7Mprvvvhvr16/HwYMHUSqVAPCdkWUcieSJ6njJC8oVpg6A0YAbhktVVbS0tGDOnDn4+Mc/jilTpowpd9dplB83I2Z42ThqrkZxTGQ/FnE1etySXNXJZA+KsVhs9DrLuG30PKMRiILLdxsRSmngVGI2GHh9ZhFx+aXp+6UgV6O7c/AJsiVA1FyKoqCrq0uohyhdXGQnL7uz61Hp7sXF9AvLxdPdOalyQtRWYXVndQYGBnDDDTfg0KFDuPDCC7FixQrkcjnu7z/IME0Tb7/9Nh588EF85zvfwbXXXovTTz9dOJkJGzOC+oIXl7OcJ288xQxenUb5MSDeRiRqLratR5BxwctODH7biEShux8Xr+/WwhV0G5FaxuNGjf2EEKxfvx5PPfUU1qxZg2w2i9dffx333nsvrrjiCsydO5f79UA0LoT1Y+e2JdXqXmvMED30VeMLcg1ck+G1Nkmi8SCEwDAMXH/99cjlcvj2t7/dbJXGNTRNw4IFC7BgwQKsW7cOP/3pT9He3o7jjz++2apJSEhMECiKgra2NvzgBz/ATTfdBMMwcOutt2LRokX48pe/3Gz1xi1kFmoTQWn5LNRGvraV8IaiKLjzzjsxPDyMr33ta81WZ0JhxYoVuPrqq3HjjTfCNM1mqyMhITFBYFkW5s+fj2984xvYsWMH9uzZg0OHDuG73/0uWlpa5HZbAsgJXJMhB7rxhXw+jw0bNuDyyy+X27uEwDnnnINEIoGXXnqp2apISEhMELCXGNdccw3mz58PALjsssuwevXq0bXHEpXwncCJFjd7lYWp00gudr3ZXGwNHG+NwXiwu5fu46Ed66H7kSNHMDw8jKVLl3LLJbyhaRrmz5+PV199lVsuY0Z96oTV/Vjgmsi6jwc7idZ78Y6TZMhmsxVZ68DRo6h48FpbxupMmzYNX/ziF9Hd3Y1vfvObAIBEIjEmscHJFVR3QohwiyZ2X6K1jCJbNDNmaOyibdsVM11CyOj2A26BhBDoug4AY9KjgaOpv6LFqgC4xnCeM+n8rEhIeV1SqVTinofmJ4/dtFOmiAvAKJf7nmvhYgsPndfZQu9iscjlEjWkiMtpdx4Xuy8vebwyZvNquSzLgmEY0HW9wrYiLnefcXOxhaLO66wPsj+1cimKgsHBQRiGgXg8XmELieqQTqexb98+2LYNwzBGr7P2IoRUfBLxixl+vsDzY13XuYE8aj8GGhszwvpx0JjB2q8RMcM0zchihrN/8WJGqVSCaZqIxWJcLtHi8TBcuq6PbsXjbkdRf/fjck4M3Fw8XxBxEUIQj8dRKpXw1ltvYd++fWP8knHx+u7w8DBisVhFnPQ6n9RrmyNnG7e3t2PFihU4dOgQHn74YQwNDSGZTFZMDP24eLozW4j67tDQEFKp1BiZiUQCvb29o28G3X20lpghGvuB6mKG5qzEgms1hgDKTsczAm/fm2rkeQUF5uBumfVoRNM0R50hiO5eXLz9Xmzbxv79+9Hb2xuYyyug8exu2/aoDaPQ3YvLsqxRGwblEukuamPDMLhcXm0s6p+qqnLtIxEcbG8ktz3ZA6E7mNUrZui6zn3oCxszRPuO1SNm8GxBKQ3tx82OGV5tbJqmZ8wIo7uojUVcYXX3i0+U0ki5AP7gzsZj3gMLT148Hsfjjz+O2267DdlsFul0Wvjmp5HQNA0rVqzAunXruDZoNGzbRl9fHxKJBL761a9i+vTpY3yilphhGEagOZfbFzRGFIvFuNsk8NKtneDNjL3qOZ8YgnBRSpHJZISpukHl+ZW1tLREprtX2Z49e4RcImcKywWUXxFHJU9Uxq5HySWyh2maKBaLkXHlcrlxEcQmMiilo0+xvHZxP+EyeMWMML5AKUU2m+UO/MDEjRnsvqLU3StWN4LLsizk8/nIuLzsrus6DMNAJpOpO5emabBte3Sj6yi4RL7A3r4lk8mq5N1+++144okncNVVV2HlypVce0iUsW/fPjz66KP44Q9/iK985StYsmTJaFktvsCbcwWJGYq7Eq+CaBbs9ZQgquNXJtIjSi4mq9lctm2jo6NDWBbUTmFtG1b3enAFqePFVYvuErWjEb7Fyprtx/XiEvFMBD+OmsvLx4Pox+pFHTPGMxevzvPPP4/HH38c3/72t7FmzRo5efPBpEmTcM011+Azn/kMfvrTn2LXrl2jZbXEjFr9RGahNhFsDYKEhISEhEQjoOs6fvGLX+Dzn/88ent7m63OhMKqVauwdOlS3HzzzcKJWSMhJ3BNBKUUhw4darYaEhISEhIfEGzYsAHd3d1YtmxZs1WZkPjYxz6GvXv34uDBg81Wxf8sVPaaz13Gsip4ZaLrTg4vLh68uILq7qVfI7nY4lbed/IwdvLjCloWtbx6crF/1yKPlykkEQ6i/itjRm1cjfatRurux1UPebXGjPHCVe14TAjBO++8M3qEo0Rw9Pb2wrIs7N+/H93d3TXHDN51599edTRnAe97Lcsmc19XFGX0W627HrsmSjEXgZXxtiyxbXs0A8PJ5SdPZFgRF9Of1Q2ie1Au27bR3t4utLtoQuElT2R3UVvVojuPi6W6h+Xyymp2w83lXDcQRndN07jtLhEcrC2cPuP0Y1VVA8WMoL7g5OKl9otQS8wQ9fewXDweFqd5cseTH0fNxZPnZSeR3Vm/iCpmNIOL5wtsPGb1Rb6laRoKhYI8wrFG2PbRbddqnWfwslBFcMsbc5i9KOuFd1ArcDTrxV3G9iiJ8jB7tmmfKKOjHgfa1ptLURQkEomGHWYvascwuntxMduF5eLpzu5ZxOXWpRbdZRZq7WDt67axyLf8YkZQX/DiYog6Zoj6fC1cojqNOGBedBB7M7iiPMye6R1VzPDjYvWj4hLZqdrxWL55iwZsEiwa76qdZ4jGm8CH2YsmEexPtWV+daLmilJeI7kopTh8+DBaW1sD2zCM3aO2Rb24eNedf9dbd4naIWqz8dJ3ebqNRy4eJooff9Bixni1k/u6jHHRwGnPZsUMmcTQZJRKJfnJTkJCQkJCQiIQ5ASuyejs7JRPRBKBMbR7Eza9vAniY54pdv1+E7a/P9xArSQkJCQkGgU5gWsiCCHcXbMlPoAwB/Dmhg146Z2dMEcu7X5vMzZu2orRQ3jyu7Bx/QbsGihg8N0n8NBjj4AA2L99Bw4WARQOYOOGDdjVXwToIO77xx/j5js2oihf8EpISEgccxiThcrLpBDtCEzI2LRlXtaLaGdyVp9XJvom7MySdXN5yeOByRJ9m2blQXUPwkVIOfPq4MGDo0eEue9L9GZOpLuf3YO2sZedRFyEkJq4vHTn9QsRVxjdnZlcDYU5iIfu+RnuXrsPiaEs/vgv/xwz7cfxt/9wByyomHTFl/Cdj56I/7njJjyz7iA6Ws7BZatTmNpFsPWt1/CLW9fjk59dhfuf+Bds2AwUMANf/dOPYEf/u9iyeSuG7NVINnjdMmsLpz39/Nir/YP6gpOL51vsNzx5ovvxixm8uFELl2h3d7/4FET3evlx1Fw8eX4xg8l2c4nGrTC6N4NLtDaqmvGYdw6xRDg4s355qHaewWt/oLo5kuYurNZRq9lGJMoJnBeXlzwe/AwbVvcgXOyeisXiaN16T+B49gujuxeXV1tVwxVmAsfKnXVrmcA1PMCZ/di4ZwAnXPJZXJiLoWcywW3/8SKOu/bH+OaaA/jsdQ/hfn0D3u2bj3//5+/jwOu7sH/XXXh3/XPY+Ic4/vRH12Hq2n/Ejx4Zxl9952t4+Id/gSd3rMRFZ30KZ57xR+hqQtIZL7j5+XHUE7hmxIygwdiLSzSB84tPQXSvZlLVqJjhxRXlBC7KmNEMLl5fqmYbETaBE7WdRDDUOoELGzO4EzhCxGnLovR4VVVH//AU4+01w4hFXKK0WlVVoWlaRT0/eaL0Xna/Xly8dOwouQgh6OzshKZp3DJC+OniTAeR4/Psbts2t63C6u7FxVKdw3CJdBdtI8L2bnPLDKs7ry3qjuQ0fPOqi3HjDbfi3waz+OJ1f4z+RAcyPZ2AGsc8tGD3u2+iK9kGAOhZ2It4PoG9NIa5k/bg8I5+tOotiL19CL/+1S1ITF6Kkyd1YWh4CLrZnGDN2sptY5Ef+8WMoL7gxVWvmCHaHiUsl5dvifbxitKPmbxGxAxN02AYRqBxwctOXnZXVXV0MhNFzPDjYn03Ki6RL7D+5+dbchuRaMDsyeYKYecZvLGflfPglCfXwDURhBCkUqlmqyHRbOR34rGn1+K0z34JH+loxdbX+7C4x8Rb99yCx+76FTZOJjjjj1bhbeM1PLH+97jlR7fgiZd3Ydlpq3HV+R/C07f9EgfaZmPaFSfjius+j6VTetChxWBbh/DO2++hKB+4JSQkJI45yAlcE0GpPAtVAkByCha09eDun/wTnu9ox6qrluH8K6/F8drruOvxfvzlV6/BKaddhWuXzcPdv/pvDM2Zi5VnnYfjZh2HGcvOxHlzZkKdegauPWcGbr3hJ9hEZmDRzF4suHgBSgPv4Yh4Y28JCQkJiQkKeZ5Gk1EsFrnruyQ+QFA0zFlzDf5pzTVHr8Wn46vf/tGYny0576u46byj/z9l3sj1T15S/sf063DjyqPlLas/i79eXSedJSQkJOqIl+//JxyafjnOWTyL/wNzP566YR1O+NpFmPQBfRX1Ab3t8QFCCDo6OuTkTUJCQkLimMbujffgJ9dfj3te3Fq+0P8e/vWGn+Bf71kH9pHgtSd+hut/chO29uk4sm0DdvbrwMAO3H3/OhQAbH7k57j+JzfirT6Kvjcfw/U/ux53PfZus26p6Qh9mH01GWW8iYk8zH5sWSKREB5oy1LDeVw8eV5298oMHU+HYIt059nBiyuM7qqqysPsIwLLpJKH2cvD7KPg4snzslO1B8zXGjOawcXzBcbF6ot8iyVwNBrmzmfxdw9swOolJ2HXb1/BvjlJPPrj7+F17WQoW2/C3yez+ML0rfj3TftwsmHhkZvXY157B9r6tuPffnMQdPJCvL32RvznpiGsbrPxkx/+J75wZQ8mdXYgk4o1/H6Ao+3ezMPsQ7+Bk2+NagelFEeOHGm2GscEZH+UkIgejfSrRvvwsXRv4z3+kVgK3e3AkcMlLP3jVejBHjygH4dvfufP8f1PX46dd63H47+9HSuWfxGf/9Z38KU/OQ0JvYhbfvbv6MckfOlji7H9lgew+x0LQ/Es9m/+DfanF+G8hR/CyuXTm317TcOYbUR4qcmUUuE2Iuw6L3Xea1sSgJ8iy1LkRfvc8NL0/eSJ0ntZnWZyEUJQLBaF9vVqE5E8kd15qey16i7iYrYLy8XTXbSNCONy61KL7uM9GE4EsPZ121jkW34xI6gveHExRB0zRH2+Fi5RnShjkJ8vNCpmBG1jLzs55brB9I4qZvhxsfpRcYnsVO14LOqjdUXHAvzZhefghVfexws/vRft1x2PmEpBAdi2CVtRQKkOm5TtUirkMVxQseyK1eh8fxNePXIK4uk5aI23IpebhPMv/RzmpPN49v9n783DpSiu9/G3e3pm7szcuQv3gqDARVmUfZGoLBKM4oa4JEoAl983ImqMGyLuGI1JNGqixnx9EgQ17iuKCkZQPwbzjRuKRhG3jwoignD3e2fubN2/P25q6Ompqp7u6emeC/U+Dw/QNXXe06f6nDrTU6eqKw14FK6JPVnzXaF5Bmu+KSRHEkUMHqO2tlYkDAICAgICeyxi29bh0Qf/hfoDhwEIItxvMGaFHsVNV9wCuWMjDpp7PaZUtuLmZ25DyysyuqLT0eDvwvAxp2D84JV48oF/4tg5k1H1P18ivqsN326rhhKswa6mt/HqP7/EkKOHeJXHeQqRwHkISZIQDoe9VkNAQEBAQKBkiA46DidNzeC1r77H5EUnYmC/fTBw8fWIP/YSMHAxzpo2FMBQXNL4EN7anMGJc49HdeN+aA1XY2D9fJwi/y/6HzoC5ycex2ufd+LEc+diUJ8wjr36dOzw742pWzdEAuchNE1DU1MTotGo16oICAgICAiUDIOPOgGD9RfC++Gs+efkfGb0jDMxmvwnMh7V//3nkMNHdP89bQ6G6LZGGnX4iRhVIn17AnLWwNHAW9dBflun9WHBrI2lB+93f5483toyr7lkWUZXVxezjTcmduxudYzNdC8FF6sPqzKU9Qza1V38nO0MeL7l9PPktR+XiovF0xP82I7fWR1js5hhlasYO7nJVaxviRjnDIhdi4kZxY6/QgSl02nEYrE8gnQ6TVWCLMBXVRWpVCqnjZS60xbhkRJmmpL6My31E7YkSUgkEgDyF/YVIo8YyriVAI0LABKJBDo7O/PuuRgusvDQWEoeCoXy7E64WAPM4tLbncaVSCSoXHp5tDZi80K5MpkMEokEFEWhbglA4zI+M0Yusmhaf12SJKRSKSSTybxtKexw+Xw+xONxsY2IA0gkElBVFV1dXdlrJGbQClLMYoaZL9D8mHw5Mvqr035M7tetmGHXj63GDFVVe2TMkCQpu90CLWYkk8nsvEbjYi0et8Ol36jdOI6s592Mi4whjYtcY3EFg8EcnxSwj87OTiQSCSSTSc9iBrccRe94dtp4Mgvh1f/frkyanqx/m/GZ6c7jYsmMRCKWdChUJydsaLyfQrnM+Kzel15WIdfNOFifLdTmAnzQJhGguJhRqO8Ve13fZsWPSxEzWP3t+rFZfye5rN4XsV8x/sfiLnQcrTyfxXKx5BbDZScWCjgDuzGDJ6sQTiX7D0WhLqhXVZX5Sk9VVQSDQfj9+RvpsfrpvzFY4cpkMohEIsxSXavyeG3pdBqVlZWO6c5ra2xsRH19PZWL9erVLpeqqrbG2Gob+QbhJBfLHqlUColEwjGu6upqKIrC/CYuYI5EIoHa2lr4fL68cVFVFRUVFVCU/OW3vJhhxxcymQwqKyupb26AnhszMpmMK36saZprMSOdTkOS6EVddnUH6HZPJpO25zurXLIsO2pDni8QvoqKCq68iooKdHR0MGUIFIZIJJLNf+zGjEgkknfdSsyQjZ1oHVg7N7MyS14fszZeVkrrZ4eLyPKaS1VVdHZ22uKyY3erY2ymeym4rPQh/VjfbuzoXl1djXA4jE8//ZTaLsCHpmn45ptvcOCBBzLbRcwojIvF0xP82CqX2X3xfNyKfjyuYuxUzlzGPuKNnDMgNi0mZhTrk+IsVI9RU1MjFpWWEaLRKA488ECsWLHCa1V6JN5//31s374dhxxyiNeqCAgICOzREAmch5AkifoKVcA7aJqGuXPnoqWlBU8++aTX6vQofPPNN/jrX/+K+fPnIxQKea2OgICAwB6NnIUorFe9vNfArMWgZgv3ePJo4HFZ1Z2nn5tcqqqiubmZu3bGip3sjJVd3cudy668TCaDqqoqLFy4ELfeeiu+/vprzJo1CyNGjMj7rEA3Ghsb8frrr+Pll1/GzJkzMXnyZKgq/TBuETOK4yoH3/KKy2of/d+l1r2ncNGqIQXsQT8WxcQMnlyzPoq+gfZ7bSaToRKRxZnkj76dXGOVmLNA2mhblqiqmi2h1XOZyWMZlsVF9Cd9rehuhYuUhHd0dDDvi+VsLN15dmeNlR3deVzkvuxysXSn2UHPRZ7fYnQn+mUyGfTv3x8333wzli9fjqVLl3LXMriNdDpdNme2knL2cDiMCy64AOPGjUMikaBu36H3Y+O2L2ZjYtUX9Fy00n4WiokZrOfdLhcrASb35YTuZn5sdV4oFRdNHs9OLLuT58LpmOEmF80XyHxM+rN8S1EU5voqAWsg41dsnmFss5Ij5Wzky6q6Y21U5/P5sn+MiqmqSq00I8QsLtbE5PP5oChKXj8zeTTdyTcRMy7WBohOcUmShNraWiiKQm2jTYJ6HVmOz6rwo42VXd15XJqm2eZi6U5kGkEqRo0y7epOPqtpGiKRCC6++GI0Nzfj+++/R1tbG1RVpf48WOj+UUY9iD2MIHs10SrKrr76apx99tkYOnRowfJ4+3bFYjEoioJAIGBZd0VR0KtXLwwYMCDbJsvsQ+RZfmw2JlZ9gcdVqphBu+diuHi+RWuzozvP7kSeGzFDURSkUilL8wLPTjy7+3w+qKrqeMxgcZFn1ykuli+Q58/Mt3gbxQoUDmJnkivYzTNoc79ePq1fXgIn4D4kSaL+fCrgPfROVVtbi9raWgDsRM1pkAmGhiFDhuDggw/G4MGDqe1WkU6nmRO4HZTDm0EBAQE6ampq0NjY6LUaPRbki0Y5nGMuUnEPoWkaWlpavFZDoEB0dXVRdzHXNA3pdJr6E5+qqkin01R55OdaFlc8Hqe2pdPp7MkkhcpLp9PMn066urqo8uzqLiAgUL4YN24cNm/ejLa2Nq9V6ZH48MMPoSgK+vXr57UqIoHzGh0dHWWztkpAQEBAYM/G4MGD0adPHzzzzDNeq9LjoGkannrqKRx22GFlsYOESOA8hCRJYh84AQEBAQFXcfHFF+Ptt98W+11aQDqdxq233opoNIpTTz3Va3UAiCpUz6pQCSKRCPWnLVGFmsvlZhUqDW5yEd8i46/nItWb5Jpehp3nk3Dp760Y3XlcogrVGpeoQt3NRZMnqlB3o9AqVILa2lpceeWVuPvuu/H2229j5syZOPDAA/MKmVhg+aMTkGUZwWAwu4SklFxG0Lg6OzvxzjvvYM2aNRg8eDAuvfRSyLJcXlWohLBQEIVpijsNPYcbA+nWw6KqKlpbWxEOh12pDHJrrARX8Vxmz7tTOrjpW3sql57PjbfpbsbAPdW39nauTCaD/fffHzfddBNWrVqFNWvW4MEHH8xJHogcXiJp5WxyszZyPZFIYMuWLdkqe9a2SU5wGUHjCgaD6N+/P0477TQceeSRAPhJVqFw4pkw3UZE0zTL24iQUmdetR6Ly6xMn1daW6juxHBWtwRwmkuSJHR0dDC5WOXiLDvx7E6uO6k775kphoumO5FpBGus7Oqul8u65hYXa/z18nh6GnV004+d5rLqCzwuO7p7FTNofdzyY4C9jYjTXKTq2sq8wLMTgdk2Ik7obsbFS3TscFndRoQnLxKJYPbs2Zg9e3ZeWzqdZvpxW1sbAoFA3jZHvC1QSNJD00OfOG3ZsgXXXXcd7r//fgBAa2srQqFQ3ttB3vZSLN3JWzGWH7e0tCAajZruNKBvLzZmsJLJQnxBbCPiMaqrq8UaOAEBAQEB18FLqkjiRwMrseP14c1z+n7kJ9RCuAqRR7vOuy/eMh43tpCyAlHE4CEkSUJVVZXXaggICAgICOSA93Msq81OH2Ob8XNOcpn9zMzrV44QCZyH0DQNra2tXqshICAgICAg0MMgEjiP0dbWVrbZvYCAgICAgEB5ImcbEdrWGazFgKSMlvzR9yMLGWkgv7nTkhaymz2rzDydTjO3BGDJ4y1kZFWjEC5jP6e5NE1DNBrNbuFg5GItVmXZiWd3UrJsZYx5urO4JElCOp22zcXSnfZqW89l1MeO7gB7jAmXfjuWUnER39JvQ0DWbZBtdIwl7Dx5gLkfS1L3mZJO+TGNS+/Hxu2AzLis+oKey6hnqWIGy4/tctFA2mgnZJTCj1lbKrnNxYqfLDvx/Fg/VqWOGXoep7hovkD8mDaPO+3HpZz7/X5/zqk2+nmLFjNYP3naeT5JvKWdqlPKPIO1jUghOVJOEQNtcR9RjBaMjX+MYFWNsdoID2vxIWnTtxcij2ZYUjnC42JVlTjFpWkaqqqqmG2sSYtnJ5Z+5L6sjLGZnVhc+nGyw0UDq03PpW+3q7vZGNPGxWkuo1/peQEgEAhkdwHX28XO86nncNqPWQuP7XDZ8QW3Ywav2tAulxGF2KJc/NhpLlqM5NmJxWX0rWJ1d5uLNv6lnI/d5DK2m3Hx5oVynvv1XLR7MuPKS+CsBgWzNpYCdhM4npHM5Fk1rFtcqqqivb0dVVVVriRwVsexmGBcDBcNZo5Km6RLmcC5waUPWrt27cKvfvUr/OQnP0EsFsO6deuwaNEinHPOOZg5c2ZB8tz2Yye57PjCnhAzjCDX3fBjL5JFK2NsN4FzO2YA+S9H3ByTYnR3O2aQfxOb6BMqnj8Uql85JXC859qMi/oGTsB9tLW1Yd9992U8so2DAAAgAElEQVQ6sYAAANTV1WHffffF+eefD5/Ph/vuuw8HHHAADj74YK9VExAQEBDwAPT0WcA10N6+CQgYIUkSrrjiCvTt2ze7RmLx4sXo27evx5oJCAgICHgBkcB5CEmSUF1d7bUaAj0E/fr1wwUXXAAAGDNmDE477TSPNRIQEBAQ8Ao5a+Bo4P3OzfstngWzNpYedrlo7azFg25zSZKEtrY2RKNRqjzemBS6cLRQeVZ1LxUXqw+tIofHVYzuLBiPjdFz0Y6OIfJYMnm7eofDYer1iy++GKtWrcIFF1yAurq6guWx9AOAyspK6nW7upciZlj1hWK4yiVmsHh6gh87zcXzcVYfFlg2LEXMKAUX7xl0UnczP3aai8gz3iPPt3jzQrn4sdPjpe+jEEGpVAodHR15BKRE1kgkSRLi8TjS6XTe5KBpGlRVZZ55x1KSlAobB4Zw0WQWIo8YSi+TxQUA8XicatxiuMj5ZcYy6MbGRkSj0TyZ+q0jCuXS293IpWka4vG4qe60NmLzQrkymQwSiQTVtiwu4zNj5NIvBiXXyXObSqXydLDDJUlStuxbURSEQiE0NjbirbfewmeffYbW1laoqpp3Jh/RjzZevIXWvOcpmUxCkiT4/f6c6z6fDzU1NdiwYQO+/vrrguXxnqdEIgGfz0f1YzPd/X4/+vfvj0MOOQTDhg1DJpNBV1cXJKn77EWaH+ufKT0XL2aY+QLLj2n6O+3HhMuNmFGMH1uNGaqq9siYQfwYADVmJJNJ6vYyRt2d4EokEtTtLnjPuxkXGUMjFxkr49YedubjQuZ+EnuL5QK67R4IBBAKhdDZ2YlkMolUKgWfz4dEIoFMJmMpPhXiC6yYQdOxXGNG1iKyLENRFGZGSBNGgr5xkrF7oC0J+jQdCJdRppk8mu7EGcy4jP2c5lJVFdXV1QgEAnltvL2vePJYdidOZRyrYnRncRHnZ7WxuGhOSrg0jX4OHQkYNOe2q7skSQgEAli3bh2WLVuGhoYGjB49GgceeGBWNq0f69sgq43oZaVNkiRMmjQJiUQiby8wM3k8/az2I33S6TS+/fZb3HzzzRg3bhzmz5+PUChEPSwcYPuxWcyw6gt6LuNz01NiBs0WxA/c8GMy+ZRDzGAdZs+KGeSzrESCfElzSncWF9nni8bFOlS9kPjE8i0yjxcqj/d8AuZzv1NcsiyjsbERiUQClZWVqKqqgs/nw6effopoNIq6ujrqyxvWvFCsH7sVM/x+P3Xu53HlHWZPsljaT0QkKNEUSKVSCAaDeQ5uNwunGY4gmUyioqLC0hs4nu6sb1pA9xuJiooKS5mxXa5evXpR7c5768Cyk9m3OjJeTujO41IUBaqqOsrFKxcHQOWyoztJPF566SWsWLECl19+OcaNG5f3OYFctLS0YOnSpbjtttvw61//GqFQiPo58gxafWtv1ReA3THDyrfpnhAzksmkK35MNjV1g8vn83FjBssWLC6e3cmE62TMYHGRfk5ymb2NNnIVMx/z5v5AIED9NcIOFwCsX78ev/jFLzBz5kx8/vnnOO+88/Dhhx/iiSeeoC4p4c0LxfqxmzHDCCs5kmkRg/HVbyFtdvq4yUWue82lqirzKK1ysDtP93IYx1LoLssyPvzwQ6xYsQLXXXedSN4KRE1NDa644gpUVlbi3nvvZX5OxIzS9LGr+57A1ZN174l2KhXX1KlTMWbMGNx9991Ys2YNli1bhtmzZ2P//fennjzSU/y4lFyiCtVjtLa2MgdLwH1kMhk899xzOOKII9DQ0OC1Oj0O5557Lt577z1s3brVa1UEBAR6CMjbw0WLFmWLqoYNG4YFCxYgmUyKOZIBkcB5jGg0Sn31KuANmpqa0NjYiBkzZnitSo9EXV0dRo4cibfeestrVQQEBAoAa/5h/VTLa7PTR6/D5MmTcdxxxwEALrzwQlRXV2eL1JzUz06/ckTOYfa0V3esg2nJ4mZaP9rhvUZ5NIOwft8nXLRqHjN5NBBZrMEi7VZ1t8qlad1noZJ2ozzWQ8OSZ2Z3q2PM053FJUlSUVw83WnPBYvLju6yLKOtrQ3xeBy9e/em6ilgjl69euG7774DkDveZn7MG3+rvqDnMlablSpm0OJGMVy0dhaPXd1L5cdOc7Hip9V5hjdv2dHdCy5WgmFnPuZtc0HksJ53Xh9WGwukTZZlnH/++ejo6Mjuc0kW9Vvloumutw/vvo3Qr0dj+ThNTiF5BmvdbCE5kmJsLNRRZVnOeTBKncDxuHjyaDAzrF3drXKpavdZqOFw2JUEjma/YnTnBWO7XHYSONKu72s3gTOW4AtYh8/nQyqVApCfwNmNGXYSOC9ihtVgzONiJXBm8cmK7oUkVW7FDB6XkwmckzHDCy7as0TmY/KZQnxLURTEYjG89NJL+OCDD/D999/nrDVjJTmStHuLEdpWHLzkiAXSh9yHoihYsmQJ0uk0l8tMnpU2cl/GooOKigoMGDAAU6ZMwfTp0yHLco6d3I4Z1AROkiRbpcTkD00xqyXX5DpNcVZ5r5k8J7cEcJpLVdXsWag0LvJA02B3GxEndWdxaZpmm8vqNiKKouTs61Os7qytdAQKh6bt3qLBaGOWH5vFDKu+wOMqVcwg2zg4xcXzLSsbR9v1BSLPjZihKEp23y8aWNuIsOzEszupeHUqZphxkWfXKS6WL5Dnr1Df2rx5M/7yl79A0zQcf/zxOOigg3J2lCB60ZImVpudPqRN/xbO7/cjkUiUnKuQfp2dnXj33Xfx6KOP4sMPP8SCBQvyqmKLyTNoiT9ppyFvGxEB71BZWSkSBgEBAQEB19DS0oJbbrkFRxxxBGbPnu21OmWN3r17Y9CgQTjppJNw++23484778TVV19dFvO2KGLwEJIkoaamxms1BAQEBAT2Itx9992YOHGiSN4sIBAI4KqrrkJzczOeeeYZr9UBIBI4T6FpGjo7O71WQ0BAQEBgL8HXX3+N7du349RTT/ValR4HWZZx2mmn4c0330QsFvNaHZHAeY2WlhaxaF5AQEBAwBVs2LABDQ0NqK6u9lqVHolx48YhnU7j+++/91qV3G1EaBVApCqPtoDQrKKM9hsxqyRY38aq5iGL1fVcZvJoumuaxuQi+tOqEZ3mUlU1e24kjYu12JInj2V3XmWoXd1pXJLUfeCyXS6W7qzFqCwuO7r7fD5RheoQSCWV3mf0fuzz+SzFDKu+oOcy9i1VzGA973a5aDwkTtPklpMfO81Fk8ezE8vuvHnLju5ecNF8gXCR/izf8vl8aGxsZB51J2COQCCAdDqN9vZ2AMXnGcY2KzmS7Tdw5bCAr6dDrIFzDuJ5FBBwHm76lds+vCfdm4h/eydythFhHcbL2kaEXGdtgcEqgwXoJbKkRJ61zw2tTN9MHqu8l/TxkkvTNMTjcVRXVzP3pWGNCU0ez+60UvZidOdxEdvZ5aLpztpGhHAZdSlGdxEMiwcZX6ONWb5lFjOs+gKPi8DpmMF65ovhYvVxSvdCfMGtmGF1jHl20ss1gujtVMww4yL9neJi2anQ+Zh3DwKFQ2/PYvIM1nxTSI4k1sB5CE3TxBo4AQEBAQEBAcsQCZzHoJ3CICDgKNQ04h0J0PcLFxAQEBDoiRAJnIeQJAm1tbVeqyGwp6NpI/626Dns8FoPAQEBAQHHIE5i8BCapiEWiyEajXqtioAnyODrNQ/g9qfeQv2Es7B4/iHYvGoZbnvxfQw6+Axce8EReGfdc3j5X29g+xfNOOz0a3Hq8O1Y/exavPafbYgNnYY/XX4G+jR9gD/9+i/4qH1/nH/LQhzaL4wd657Fbx96CdVHzsKs5Ed4eM0/4Ft1CC6aub/XNy0gICAg4ABythGhbaGgP0hWD3LwN/lDK1umgZTB0tZ9pdNp6kGzpMw8nU4ztwRgyWMtLiQ6s0q1SV8rulvhIvfU1NSEuro66vYorMWqLDvx7E5Klq2MMc9OLC5J6j4Q2C4XS3fWVjaEy6iPHd0VRcna1g20bnodL/zPFvziokvw0Vdf4K03Xsabj36Ds644D//8+914+p/9EVv7IjbiCFw7Zxd+/e9VGAEfnnx7CxZedh4e+80jeOvDQ9D+9/tRPWMhfqWuxN/ueg6DrxyHB574GrMvugStW/4HncGROGqcD1MO7efKfQG7fUV/6LPej43Pu1nMsOoLei4ArsQM8hzS7GCHiwbSprdrMbqb+TFrSyW3uWjyeHZi2Z08F07FjEK4aIfJF8NF8wUyH9Pmcb08cna0QPEgPlhsnsHaRqSQHCmvCtXYiVfZom+jkbEqilht+uqgQrkKkUczLKmislJR5iQX+Xc4HGbel1m1EWvtHKsSjjVWdu1E4zJ7LgrhooHWpucy2sqO7uSaW2sSt3z0LT5qn4qLx4zCxDGj8N0/HsPj9UdhyY8OQZ83J2H92x8jPuBQTBo6ExMmf4l+Wz9DZ7wR0yb9CFPHH4quhjcQ/mE7nt2+C43PL8XGinak2/rg60//g3f3H4jLx4yEb8xIoOl9vBlqQe/6ClfuC9htW72Ni4kZVn3Bq5jBqpS0y2WEnV0BivFjq/NCKblotuXZicflZMww4zL+u1gumi9Y8S1WjBWwBr093Y4ZeQkcsLvcmNaBJox8ntaPpYCdBI5wkTZ9eymCMWvLDae5ZFlGr169mPfldALHGisngzG5VgwXDaw2FlcxuruFqhoZtZ1bAAD/+8V/sKUziaq2r5AC8FnzJ0gMGA5/aBeSIQ3o7EI60/0mssInIQ0glkjCHwiiYUAdDj/qXPy4TyPe+SqEflU/IPzddqQAbPvqX9i2Kw7FJ8PNzQOyZe6cydpKzLDjC27HDJqOpUjgrG4j4ZUfO83lRAIHsOctpxO4UnGxxr/Q+ditL6h7OopN4PTxydhPL9/Iqe8jUnEPoWnd+8AJ7J3Y75Bp+FG/9Tj7vHPx27+9g15jJ+HwAz7CvLPOxIrGATj6lEMRSarwSwBkBeFgAP5AEP5AAAAQqPAhVT0Yv5w1EV88ciduvfkBfNWmoHbwJJzSewvOOedcXPXA61BreyOz5XU8+9zn3t6wgICAgIBjEEUMHqOpqQm9e/cW34r2Qig1g/Cz62/GqK+2oa7fgehT68PYJbdgxFfbUNv3IPSpAfY57UzAXwH4DsbvZ49DhaziEFWCH8BPbvwVUFGJYOAsXLrfIWhKR3HQsP0gATjlykUY/vlWRPsdhP1qZAx/9EbE/aLiWUBAoAyQasWH37RiyOCBiPz3NdL3n/0byV6j0dCbXdS39etNaA/1x/C+ovAPEG/gPEcoFBLJ214MuaIGw0eMQJ/a//7AGajCgQd1J29A9xrJsF8GZD+qQhUIBMPZcwyDVZUIdr+Mwz4HHITh/03eAAC+Khw0fAT2q+l28Zr9+qNfn4h7NyYgICDAQtvnuPWR1fhw87fYvjMBAIi370RnVxJqEuhs+R7f/9Cs65DC99u+wVOP/g1L39jsjc5lCNM3cKzf03ltZn2c5rIqj7dOwE0uWZZRV1dny4ZO9bGre6m4WH1YKIXuAsXD62fXjIuFcooZVvrY1X1P4GL1YcHNmFGOdiqLGKeE4Wv6AMvvXoem/63Fgr/dhP6b/4PmQH9suOPPeCP5BXb+75eYcsn9uPSIfnjmT0vw+Mc++LAdw8cFvdYewG47ehkzFHIxlUqhtbU1b6BJiaxRqCRJiMViSCaTUJTcPFDTNKiqSj3Li5Qz0xboZTIZahUN4Uqn03kyC5FHbtq4lQCrYicWizHLu+1ykfPLjNVwra2tUFWVysUaYBaX3u40LtZ6O708WhuxeaFcmUwGyWQy+7lCuIzPjJFLvxiUXCfPbSqVyn6mGC5FUdDe3k6t4BIoHHp/jcVieddTqVSeH5vFDDNfYPkxaTfKA5zzY8LlVsyw68dWY4aqqujq6rLF5WXMkCQpuxUDLWYkk8ns9h40LtYZlHa4EokENC1/aw/e827GpU8M9FxdXV3ZmMjiCoVC6Ozs9D6JkzKIfZXE7D/9HYfvXI47/vZPTNvvW6CjAz9s34IfnXcPjg89iote/xynD/oKz28biPv/vghP/ukKfJnM30LHC7S1tSEWiyGRSHgWMxRg9wGptGOdWHucEGGBQACB/y6q1iugqmpeYkf6APSDWkmCRnu40uk0QqFQnkwzeazqEL1hWVzGfk5zqaqKrVu3om/fvlQuSWLvfcWSx7I72WMpHA47pjuLi+yPQ37qs8LF0p08o0aQg4SNXHZ0lyQJFRUV3ge3Hg5N0xAIBLIxRY9MJoNgMAi/359z3SxmWPUF0i8UCuU9Nz0lZtBsQdrc8GOS5LjBlUqlALBjBuswe5adeHaXZTk7Xk7ozuMicp3kYvkCSQaMXHp5siwjGAwyE3PXkEkjOmQqxh7gR13XSPi++hYdgxRUSxlEIodh5MBKhFODEa0MoqV5C+JDJ6BKUbDv0HH4AuXxBTsUCiEYDHKrUM1iBi3nspIjZZ8QWZbzgirALnUFujcF9Pv9lt7A6UtvaVwsJ/D5fPD7/XntZvJYusuybMpl7Oc0l6ZpCIfDTC7eK9ZCvrkZ23w+HzUo2NWdxUW+5TrJxdsugBXs7OhO8wEB6yBBxjgudmOGVV/Qcxmfm54cMwiXG35M+rjBBXQncSwuVh8WF8/u+k1tndCdx+X3+x2NTzxfIAmamW/RdHEdsoxdHz2Pt96bgW1frMK2iYdjerwLsXQayVgCqYyGdKITbTEV+wwaisH3rcSGLw/AB/9vLTKHHuy19gCQk48UEzNoffR/62H0BdMiBtpPU2ZtdvqYtZF2J/UrB666ujpL8grhYvVhwY7upeKy0sdt3QWKh5sxw0kuL2JGoRyFyttTuaz0KZXuPYFL/3/PodTiiLlHY/M/lmD5p/vixl/OQP/+o7FPr97Y/+D90SsiIVDVDwfv3ws1/X6E06bX4dYbb4C071QcM6iX19oD2G1HL2NGGaTiey80TUNXV5c4C1VAQEBAYO9BpAGXnXMBgAt2XzthYfffI8f/98IkXNPQ/a+Jpy/GY6e7qWDPgNhGxGM0NjaWxzciAQEBAQEBgR6DnMPsWVU5tFd6siznHNKrbyfXWAuLWSBttIpXsgjfWG1mJo+mu6ZpTC6iP+1QZae5VFVFMBhk2p1WuaLXg7X4lXVPtLEqRncaF6mUssvF0p1mBz0XeX6L0d3n81HHXcA6yFjofUbvxz6fz1LMsOoLei5aZRgLxcQM1vNul4vGQ55zmtxS+LHVeaFUXDR5PDux7E6eC6dihhdcNF8g8zHpz/Itn8+Xo4eAfZDxKzbPYBUx8DhJn5w3cFYmLv3vu6We8PQcbkyubk3gkiShtta93fHdGquezCWSt+LBSrbc9GMvYoZbz46bMbCn+jGPy+15q9y4RIwrDzgxDtk3cLzKRtY2Ij6fL/tHD1Ilw6q+IH1pXKySWxaXmTxWeS/pw+Oi3bOTXJqmZffEYlXYsSovaX14difXndKdx0X0s8tF053INII1VnZ1p1UtClhDJpPJVlcZbWw3Zlj1BR6Xvp0mr5xiBq2PW34M8CslneRSVZXLxYqfhIsFVswgfE7obsZFe3aL4WL5Ann+zHyLdw8ChUNvz2JiBq1NL98oU99HzFQeQtM0NDU1iW9EZYRIJIJgMIhdu3Z5rUqPRVNTE/r16+e1GgICAgJ7NEQC5zGMmyALeIu6ujrU1dVh7dq1XqvSI9HU1ISNGzfisMMO81oVAQEBgT0aIoHzEJIkMc9CFfAGPp8PJ510El577TVs3brVa3V6HO69916MGzcOAwYM8FoVAQEBgT0aIoHzGOT8P4HyQCaTwfjx43HiiSfixhtvxEcffeS1Sj0CbW1tuP3229Hc3Ixzzz3Xa3UEBAQE9njkbCNC20KBdeadLMvIZDLZP7SyZRpIGSxt3Vc6nYam5R/uSsrM0+k0c0sAljzeGWU0LiKT9LWiuxUuck+7du1CTU0NdXsU1mJVlp14dicly1bGmGcnFpckSUin07a5WLrTqqv0XEZ97OgOIKv3rFmzEI1G8cc//hGDBg3C6NGjEYlEsrJLDaIzjSsajSIej2fPnC0llxkymQy+/fZbvPvuuxg1ahSWLFkCRVGQTCbzxljvx8bn3WxMrPqCnst4b6WKGeQ5NF63y0UDaaONfSn8mLWlkttcNHk8O7HsTp4Lp2MGj0u/hZMTXDRfIPMxbR7Xy1MUhbtNhUDhID5YbJ7B2kakkBwp5yQG2hlrrINayWf1f4xgVY2x2ggPryLTyFWIPJphSRUVj4tVVeIUlyzLCAQCzPtiTVo8O7H0I/dlZYzN7MTi0t+PHS4aWG16Ln27Xd31WxpMnz4d48ePxxtvvIGPP/4Yra2tUFWVum6RVtVmdl8kqNLayOHetLPynn/+eUyaNAm9e/cuWB7ZB4pmC5Js0c5QNNPd7/dj4MCBuOqqqzBs2LAceayz/HjnObJsaMcX3I4ZvGpDu1xGFGKLcvFjp7loCRzPTiwuPY+TMcMtLtr4252PBewjWwlaZJ7Bqq4uJN7lbCNiJSiYtbEUsJvA8YxkJs+qYd3ikiQJ9fX1zEF0OoGzOo7FBONiuGjgJXCsSbqYYEz6VFdX44QTTsAJJ5xAleEF2tracOWVV2Lffff1WhUqShEz7PjCnhAzjCDX3fBjL5JFK2NsN4ErVcxgcQH5L0fcHBOjvFAohM7OTupnBAqDLMvZL/LFxoxiEjiRknsMsQau56Crq4sa+DRNy77aNkJVVeZPneSnHBpisRji8Ti1LZFIoKWlxZI88hMVDR0dHUgkEo7pLiAgUL7Yf//9sXPnTnEig01s27YNPp8P9fX1XqsiEjgvoWmaOAtVQEBAQMA1TJw4ETt37sQHH3zgtSo9EqtWrUKfPn3ylrB4AZHAeQy/3898hS4gICAgIOAkgsEgzjrrLNx7773YsWOH1+r0KLzzzjtYv349zjzzzLKYt3NWLdPeBJHfcWkVNqw21nU9B4+LBh6XVd15+rnNVVdX55idzOxutc1peaXkIv92Qp5RlttcxLeMnyNtrL52ns9S+rGT42/GRcOeGDPc9i03dTfjKoW8PS1mFDomU6dOxebNm3HDDTfg5z//OQ499FCEQqE8PoFu7Nq1C6+88grWrl2L888/HwMGDMgZi2JiBu26/m9en5xtRMh2DXqQMljjdVmWc8qj9e3kGqt0lgXSRlvsT0rMZTl/uw2ePJZhWVxEf1o5u9NcqqoimUxmS8ON8owTuVEPVvk5655oY1WM7jQuY+m8VS6W7jQ7FFKmb0V3oh8NbnIR3yLPvZ5LUZSsrxpl2Hk+CRe5N6f8mMal92Ofz2eJy6ov6LmMfUsVM1jPu10uGg8Ze5rccvJjp7lo8nh24vmx3odLHTNKwUXzBeLHpL+Zb0mShNNPPx0DBgzA448/jtWrVyMcDjMLINyGoiiObZNULDKZDFpaWhAMBrFkyRIMGjQoR7di8wza3M/TRS/PtApV06xXPZGKGycPs5dl2ZUD5t3kkiQJTU1NqKuro3LxxsTOYfascbSrO4uLdbhvoVw03ck9s7iMutjVXS+Xdc0NLn2VHO1wamI/np56mPkx7Xkvxo+d5rLqCzwuO7oXEjN4FYBOHmZP7ssJ3c382Oq8UCouJw+z11fyueHHpL9TXFarUHnypk2bhkmTJuGTTz7Btm3b8r4QsrhisRgURcnbUokkjzQu3jZH5OWMJEnYsWMHli9fjmuuuQYA0NnZiWAwmLfNkZk8mu7kCxCrMrSjoyMvka2oqMCAAQNw4IEHZmUYx7KYPIP1U2whOVLePnBGkMG30mbWx2kuJ+W5ySVJEhRFoT5MpbC707YoFRftuv7vUute7lysvj1B93J5dp3UvZRcNPQUPxYxozzsxOuTyWTg9/sxduxYjB07Nq/dCzQ3N2P9+vXZrZs0jb4RbinA2s9Tr4cb46X/m9enPN6X7qWQJKksSpEFBAQEBPZO2Nl6qL293dGth/TbMHV0dGQ3Midc+v/ruazqrmnsLZ8IF2t5QjluuyISOI9RLr/zCwgICAgICPQciATOQ2ia2AdOQEBAQEBAwDpEAucxeIsYBQQEBAQEBARoUIDutVipVAotLS05yYQkSUin08xF9rFYDMlkknoItqqqtitRjFuFEK50Op0ns9DKFknK30qAxgV0V9jQFk4Ww0USNf11TdMQDofR1taWJ493+DiLS293GhfraCa9PFqbvvqyEK5MJpM9Ioy2JQDr/Df9M2PkIpU++uvkuU2lUtQybqtckiRl1z/QuJLJJHeLGVbVkB2urq6u7P2Re49Go9A0DYlEArFYDED3sVpdXV0A2M+n0Y+NXPF4HIqiIJFI5D0zpfDjVCqVJ9OMy8wXWH5M2q3qbsWPCZdbMcOuH1uNGaqqZp8tq1xexgwz30qlUtk1UqX2Y+JTxpjBe97NuPQL2XkxoxCuQmOGsY3M/U7GjFAohFAohFgshkQigXQ6nY1LtLlfPy/Q5Jn5Aitm0AoZyjVmKMQQiqKgqqoqrwMZRFZlRiAQoJYSq6qal9gRBQB6iSwZJJrRNU1DKBTKk2kmj1XeqzcsjauysjKvn9NcZEFlZWVlXhuvhJtlJ57dyUMRjUYd0Z3HlU6nEY/HUVlZaZmLpTurND2ZTCKZTOZx2dWdN8ZdXV1QVRXhcLjkXMRJyeaara2tePjhhzF9+nTU19ejoqICK1aswKBBgzBu3DhTeTw/lqTuauhgMOiI7mYxIxgMwu/3W+Ky6gsE4XA4T8eeEjNotiCTgBt+TOzuBhdJ6lkxgxU/WXbi2Z0kBJFIxBHdeVxkv0MnYwbLF4wxo1jdzfzY7/c7FjNUVcUnn3yCTZs24eCDD0Z9fT0aGxuxZs0aTJ48GQMHDqS+vGHNC8X4cSQScS1mRKNR6tzP46JuI8J7KHiBnzfArD19WG36/XkK5SpEHq2P/o2OV1yqqqKxsQgBLNYAACAASURBVBF1dXXU4GQ2JqxJizUeVsfYzE4sLvJ5u1w0sNpYXHZ1Nxtjmh6l4tLfVyAQwLJly3DTTTdBlmWsW7cOmzZtwksvvZT9jJ3nEyidHzvJZccX9oSYYUQhtnDy+SynmEGLkTw7WeUqlR/T3uiUYkx6gh/zuDRNwy9/+UsMGTIEbW1tWLNmDUKhEI455hjmfo68eaGc/JjHRXuuzbjyEjgBb0AeXJYTCwgAQCQSwfXXX48jjzwye23BggWYMmWKh1oJCAgIFA9VVTF27Ficc845uO2227LXV65ciT59+iCVSjGTxb0ZwiIeQpK694ETyZtAIfjJT36Ck08+GQBQX1+PX/7ylx5rJCAgIFA8yBKfBQsWYL/99gPQHe9mzpzJXIcpIBI4z2Fc2ChQvqioqEBFRUXedbKGjJaIy7JMXQ8CdK9xYB2Xw+JavHgxIpEIfvazn2H8+PEFyyMnfrC4jGtZitFdQECg54AVF9yMGaTP0KFDceaZZyIUCuHyyy/P/nRqXDNLuKzGO16sJvfFO+qt3GD7MHtJyj2o11i9ZPcQbCKbxkUqMIxVHjx5NN3J4kIaF9GfVWnoFBepKNq5cyeqqqqo90WrXNHrwVr8yrqncjmYmsfF0p1mBx6XHd2JfgTEkZubm7Fjxw60tbVBVVVEIhEql1OLn0mVF1mQrOeqqKjAjBkzMGnSJGzcuDHv7EKaPIC90FaSJHR0dNguYlAUBTU1NRgwYED2ulnMILayEjOs+oKei1YZxkIxMYN3ELsdLtbCZ9YO9OXkx05z0eTx7MSyO2/eciJmuMFF8wXCRfoX6lskVnz33Xdobm7OOW2AFzPa29tLUsCoKAomTJiAo446Cr169cLHH3+M1tZWagFjKYoY2tvb8wqf/H4/6urq0KdPn5z70N9XMXkGq4iBBqM822vgyjEb7YkQdnQGrAneLnw+H7q6urB8+XJ88cUX3GNl3ITP50P//v3x3nvv4Z133vH8Da4kdR+SXVVVhblz52LkyJHcACTQs+BmfHI7FjodM7zksmo7soD+888/x0MPPYS2tjbuEVNugcSThoYGPPzww8wv726CJIKDBg3CggULEI1GyybGmVahkioKK9UXkiRlB4IF1v43rMyYvC5lvdJlyeNVlHjNJUkSevfuzdSDNyYseSy786qG7OrO4iK2s8tF0531TYtwGXWxqzvps23bNtx+++2or6/H/PnzMXr0aOpnBYCdO3fi1VdfxV133YVZs2Zh1qxZzMIclm+ZjYlVX+BxETgdM3hVeXa5WH2cjEE8P7Y6L5SKi7WNCOnLAmuLHqdjBo+L9HeKy6xat1DfevXVV/HEE09g6tSpmDFjBvr168e8t70dmzZtwosvvohrr70Wl1xyCQYPHpxtKzbPYCXfheRIogrVY3j97UIgF+TngTvuuAMTJ07EvHnzvFap7NG7d2/MmTMHP/rRj3DzzTejT58+OPTQQ71WS0BAgIFPPvkEjz76KC677DKMHDnSa3XKHsOHD8fw4cOxcuVK3HXXXfjNb36Dmpoar9USRQxeQtM07Nq1SyRxZQRZlvH4448jGo2K5M0iBg8ejPPOOw/33nuvqBwTEChTqKqKe+65B/PmzRPJm0WcdNJJaGhowIMPPui1KgBEAicgkIP29nZs2rQJp5xyiteq9EhMnDgRffr0wTvvvOO1KgICAhR88MEHCIVCOPzww71WpUfi5JNPxldffYXm5mavVREJnNcQ+8CVF5qbmxGLxTBixAivVemRkCQJgwYNwqZNm7xWRUBAgIJPP/0U/fr1y6sgFSgMBxxwADKZDHbs2OG1KrnbiNC2zmCV48qynN0ywNiPlBLTQKo3aD8bkioYVpl5Op1mbgnAkscrJWYttCZcxn5Oc5EtAch9GblYi1VZduLZnZQsWxljnu4sLknqPgTZLhdLd9a2FITLqI8d3RVFQVdXF/XgZIHCUVFRgR9++AFA93gT6P3YuG2OWcyw6gt6LgCuxAzyHBqv2+WigbTp7VqM7mZ+zNpSyW0uVvxk2Ylld/JcOBUzCuHSbyXiBBfNF8h8TJvH9fIURUFHRwd1XzWBwkC2bInFYgCKzzNY24gUkiPlVaEaO/EqW/RtNDJWRRGrzXjOVyFchcizekYZr5+TXKqqoqmpCbW1tdTgZFZtxHpzx6qEY42VXTvRuMyei0K4aKC16bmMtrKjO7km3ogWB33FsN7GxcQMq77gVcxgVUra5TLCzq4Axfix1XmhlFw02/LsxONyMmaYcRn/XSwXzRes+Jb4cuoM9DHO7ZhBrUIl5ca0DjRh5PO0fiwF7CRwhIu06dtLEYxZW26UgkvPZ+zndALHGisngzG5VgwXDaw2FlcxugsUD2Jz3mRtJWbY8QW3YwbLj4vhMqIQW5SLHzvN5UQCB7DnLacTuFJxsca/0PlYfEF1BsSexeYZxSRwYrbyEJIkzkIVEBAQEBAQsA6RwHkMkbwJCAgICAgIWIVI4DyEpnXvAycgICAgICAgYAU5a+BoCx/J77hW2sz6mHHRwOOyqjtPPze5NE3LVgix1s5YsZOdsSpG93LmstNHktw7G3FPB+v5FTGjOK5y8C2vuKz20f9dat17CpeIcc5BPxbFxAyeXLM+OduI0A6OJWWwxuuyLOeUR+vbyTVW6SwLpI1WUUZKzI0VNmbyWIZlcRH9aeXsTnNpmoZevXox7c5yNpY8nt1ZY2VXdxaXJOWWzlvlYulOs4Oeizy/xeiuKAp13AWsg4yF3mf0fuzz+SzFDKu+oOcy9i1VzGA973a5aDzkOafJLYUfW50XSsVFk8ezE8vu5LlwKmZ4wUXzBTIfk/4s31IUhblFiYA1kPErNs8wtlnJkXK2EWGVF7OqUH0+X/aPUTFVVaEo+UetEmLeQeK0m/X5fFAUJa+fmTxWdQi5Xx4XrYLOSS5iI0VRqEGNVW1EdGA5Ps3uqqpSx6oY3VlcmqbZ5mLpTmQaQZIuo0y7utPGQsA6yFgZbczyY7OYYdUXeFylihk+n8/RmMHzLVqbHd15dify3IgZiqIglUpZmhd4duLZ3efzZX/1cCJmmHGRZ9cpLpYvkOfPzLfENiLOgNiT5Ap28wza3E/aadDLE2vgPIY4C1VAQEBAQEDAKkQC5zHE62wBAQEBAQEBqxAJnIcQ+8AJCAgICAjYQQYb1z+MjY177y9YIoHzGGI9gkA+VOxo/Bqv/uMfWP9FE4AWrHr2Gbzw1pfZT2z7aDWeXvECdra14vNtP6BNBZDsxJYPtyHumd67Ib6UCAgI6LH93Tfw9NMr8MoX2/57JYn3n38Gz774IZIAgAz+s2oFVqx8H13/bX939Qo8u/IDJAAg2Y7Ptvwv/vXKM3jtrV3Q4t/gvj/figf+8U53+16IvCpUI3g/8ZE+xs/QDu81ymNVZbCOAeFx8eTx9Dbjsqq7VS5VVbFz505Eo1FqG2sS5Mnj2d3qGJvpXgounjxehaqxnx3dSdWY90jimf/7RzzwTgi//nUDXv7zGvxPk4rEG2uxRb4C8/b5Dre/uAZ1jSp++LoTTT9sxuSzLsFEeRVuekLDHWN/7vUNcI8HshMzrPoCkPsMGPuwdCynmEFrJ9Vu5e7HTnPR5JnFDIBud5YNi9HdTS6WL7C49PJY1dylxs5Nq/DoU/9EcFA9nr7xP9j3jisR/OD/4h+vNeOHxHp8378GM9uex+pXtmFX17vY2j+En3zyAl76j4Zkx0v4VPolLh6+A2de+lfMmDwWWzf/Cy3zT4aW8qOztQUZDYDL3xl5zyxQeMywGp/08hTywXQ6jba2tpxO5DrtvC5JkhCLxZBKpZBI5Oa/RDHa2yWiHK2KRl9NqH/IJElCPB7Pbj9gVR65YeNWAjQuAIjH41lep7hI5Yj+uqZpSCQSaG9vZyZwrFJyGpfe7jSueDxuKo/WRmxeKFcmk0EymaQGCxaX8Zkxcmna7jPlyHVJkpBKpZBKpbKfK4ZLURR0dnaWQVFJBmpHH5x0wcWYOfEbnPq7f+Po+eeh4uNN+Ptzb2HQPq9i+KQbsWB6fzRvb8WHK67Hv7/9EBVfbMCEo+ah0mPtKysr8ac//Qnff/89otEoQqEQFEWBpmk47LDDcOCBB6Krqyunj1nMMPMFmh/HYrFstaFRHuCcHwPuxgy7fmw1Zqiqiq6urh4XMyRJym63QIsZyWSSufUDbY4phiuRSFC3R+E972ZcZAyNXGSs0uk0kyscDiMWi7n+hry2YSxGHOtDhS+BrSvXYefWz/Hvh+I48s+/w6E1cWxr+hrLL9iJH995M6b1TWBb0xf4zVXvoffcszEJzVi29A1s/t1Q9O0zA0uuvRBfPXoPXnotgyPPOBTSQT9B2IMX/h0dHYjFYkgkEp7FDAXoHmC/34+ampq8DiSBYx2eGwwGEQgE8hTQly0bFQDoPx2m02lmyS0AhMPhPJlm8ljlvXrD0hCNRvP6Oc2laRrS6TSqq6vz2oij0uzOshPP7mQSrK6udkR3Hlc6nUYsFkNVVZVlLqvbiCSTSSQSCUSjUUd0p70NdR8ZYP8aVNXLQFsnklUqvvtsI+ojw3D28KGIbXgWEak7GNTuE8WIacdg7QNr8XT1MMwdPMxj3XfHhTvvvDMnUZs9ezaOPfZYVFZWWtpGxI4vED0ikUgeV0+JGaxtRNzyYzJZuMGVSqUQj8eZMYMVP1l24tk9kUgglUqhsjL3q04xdmJxxeNxqKqKSCTiGBfLF8g2IqFQiCsvEomgs7Mzr38p8d0bq7H6iU0YMnpfbO5IISCn0NYZgqwCQAj9wkBzRwW6w1oQ/SoCiPWvQPPWjfiqpi+OO20cKtIdCNf0RgWAWLuEHR0xDIwnEcp486tJVVUVIpEIgsGg7ZhRVVVFnfuBwnIk+uY/Aq6Btf+SwN4MDfFYDKnOTiByAE5smIDEwLGIbluL9toIJh85AXf/6+8IfRHElzuGYv7lRyL49nn41+Qb8fuBQa+VR0dHB+bPn49YLIbLLrsMkiRh/PjxWLJkCYYN8z7BFBAQcBdtX21CBtU4eNIYfPb6BjSF+uGYkd/itWUP4T1sR/xHkzHz0Eb8v/sfwKf+XWgZPRGzxw3CluBgDFC24JNEBNHKduzY9ATuf9KHD7dswOiZMxB493v8v+QHmDH0UAS9/t7tAUQRg4fQNE3sAydAQQhHHTkDRw+pBJR+OPuik9Dx+ev4JjYOsw4ZgTHTLscZ+wfw0bYu/OTMo9ArGMUpv1mOJT87HhVlEMTI83zBBRdg9OjRCIfDmDdvHu677z7ccMMN+OGHHzzWUEBAwE2M/j+LcdjBfryxsRFnXHUGRvXug+lXX4a+qa/xgzoUc6dOwZFXLsQA3xZ8nxiEudOn44RfnY9e7R9iw7YgTjplAkKSgvCo0Wjb+glGTF+I+ZOHYNTE/4MB/lakvb5BjyBe/3iMdHpvffQE2Ahg/LiDs/+T+4zAldddr2v348dzr8CPdVdGH3E0RrumnzlisRiCwSBuu+02LFiwALNmzUJNTQ0efvhhXHrppTj++ONxwgknUJdtCAgI7GEI7Yszf3Wt4WID/r9r9XGtP06/Uv//fpizePf/W5rDmHjwcbhk7mHZa4OnnIYLSqJwz4BI4DyEJIl94AT2TJBn+phjjsFdd92FSCSCPn364JJLLsHXX3+Nxx9/HFdddRWOOeYYnHTSScxjsgQEBAQAoGbYNNwoVmDkIGcbEdpB3qzFqrIsI5PJZP8Yq5dYpbVkgR7tZ0NSPUOreM1kMkin09QqD5483uJC1tYUhIu1INkpLlJZSe7LyMVbuE2Tx7O7qqrUsbKrO4uLVEHZ5WLpTqsY03MZ9bGju6IoeRVcAvZAxlJVVZxyyinZa+3t7Rg8eDCuu+46vP/++3jsscfw+uuv44QTTsCMGTOynzP6uFVf0McMAK7EDPIc0uxgh4sG0kZ7c18KPyZxw42YweNixU+WnVh2J8+FUzGjEC7atiDFcNF8gczHtHlcL4+cHS1QPIgPFptnsIoYCsmRct7A0Ur1iWK0Q5qNf4ygBVyiFK2N8LAqyvTls1bk0Qyr35aCxUXr5ySXqqpoampCVVUV8yBcq3Zi6Ufuy8oYm9mJxaUfJztcNLDa9Fz69mJ0Fygeepvr9zUi2zgEg0FMmDABEyZMwJo1a7By5Uq8+OKLOPfcczFy5MicfnZ9we2YQdOxWC4jCrFFufix01y0BI5nJxaXnseJmOE2F238rczH4hcfZ0DsWWyeQXuu9fKNnPo+2QTOalAwa2MpYDeB4xnJTJ5Vw7rJxcvenU7grI5jMcG4GC4aeAkca5IuZiIRKA764Ga8brx29NFHY/r06VixYgXuuusuDBo0CPPmzcOgQYOoMmnyvPbjUnEZQa674cdeJItWxthuAud0zDDjAvJfjrg5JkZ5rHYBayg2geM913r5vD5iJD2EJEmoq6sTCYPAXo9AIIA5c+bg1ltvRd++fXHTTTdh6dKlaGxs5E5KAgICAnsrRFT0GMZNkAUE9kaoqop0Oo2amhqcffbZuPHGG9Ha2oqrrroKDz74IGKxmNcqCggICJQVRALnITStex84AQGBXPTv3x+LFy/GlVdeiY8//hiLFi3C6tWrvVZLQEBAoGyQU8RAq3ogv+PSKmxYbazreg4eFw08Lqu68/Rzk0vTNKRSKep5jXbsZMZltc1peaXkIv8uRp6xwlnAPljPr5XxlyQJQ4YMwa233op169bhueeewyuvvIJ58+Zh4sSJeVw0HfbEmOGmb7mpuxlXKeQVGzPKhavQ+VjEOOegH4tiYgZPrlmfnG1EjAfuArtL+o3XZVnOKY/Wt5NrrNJZFkgbbUsAUmIuy7mHVpvJYxmWxUX0p5WzO82lqipqa2uZdmc5G08ey+6ssSpGdxqXsXTeKhdLd5odCinTt6I7KbEXAa54kLHQ+4zej30+X8ExQ9M0TJs2DVOmTMHq1auxbNkyrFy5EvPmzcPw4cMB5G+Irecy+lGpYgbrebfLxbIFuS8ndC+VHzvNRZPHsxPL7uS5cCpmeMFFmxfIfEz6s3xLURTmFiUC1kDGr9g8w9hmJUcyrULVNHrVE/k8q02SJOphrAS0Nk3TmAe/yrKcPazXijxeZZjXXLIsIxgMcg/jZo0JrQ/P7vrxckJ3HhexnV0umu7knnlctK0i7OguUDzI+BrtyfIt3piQfbt8Ph9mzZqF6dOnY/Xq1bjlllswatQozJ07F/379weQ+63V7ZjBK7awy8Xq45TupfRjJ7lYh9mTvizQ2vRj5UTMMOMifzvFxdpGpND5WBQEOQNiT9azW2iewSpiLCRHytsHzggy+FbazPo4zeWkPDe5NE1DU1MTqqurLdvQjt2dtkWpuGjX9X+z+hSqI0+HYDAIv9+PZDIpCkxsIh6Po6qqCoAzY2K8Ho1G8fOf/xzHHHMMli9fjiVLlmD69OmYPXs2QqFQQVw03QrVw82YQYObflyM7m5y2ZFHay+V7k5yFWv3aDSK5ubmvP4ChYF8mayoqADgbcwQqbjHSCQS4ie7MkKvXr0QiUTwwQcfeK1Kj0Qmk8GXX36J0aNLfzJrTU0NFi1ahCVLlmDz5s1YtGgRnn32WSSTSQD0ACggsLdj5MiR2Lp1K+LxuNeq9Eh89tln8Pl86Nu3r9eqiATOa4h94MoL4XAYEyZMwIoVK7xWpUfi9ddfRywWw/jx413hS6fTOOCAA3D99ddj/vz5ePfdd7Fw4UKsW7cOiqKIn8QFBAwYOXIk/H4/Xn75Za9V6ZF4+umnMXLkyOyvDF5CJHAeQpIkBINBr9UQ0EFVVZx66qmoqKjA3Xff7bU6PQrr16/Hww8/jIsuugh+v981XvIG++CDD8bvf/97zJkzB4899lh2CxIBAYFcXHzxxXjhhRfwxhtveK1Kj8J9992Hzs5OnHHGGV6rAgDwXX/99TeoqopUKoWKioqc0ld9FQWQXxabSCTg8/myFWXkj77qxSiPVMjQ2vQVGTQuRVGyVaiFyqPpTvrRuDRNQyKRyE5ApeICun9u2r59e3YNnLEPSx7LTmZ2J2dQOmEnFhe5r1QqZZur0GcGQPYw+0AgULTuRL9AIIBx48bhtddew6pVqxAIBNC7d2+xJo4CTdPw5Zdf4pFHHsFLL72Es88+GxMmTMg5kNmJmKHn4/mCJEloaGjA0UcfjZaWFjz00EP48ssv0a9fP9TW1gLYXTXmdMwgz4eTMcN4Xc/lhh+7FTPS6TTS6TSTi2X3cogZPK5UKgVN0+D3+x3jotkdAJLJJCSpu9LUTF5NTQ369++PBx54AJ9++ilqa2vRq1cvUeBAQTwexzvvvIN77rkHTU1NWLhwIWpqarLj7nbMyIl36XRaS6fTiMViqKqqyj4MBKyzOmVZRltbG4LBYNYRCMgDoyg5NRIAdpfB0n7aSKfTzKqctrY2hEKhrCMUKo9VHUIWItJ+vmxra0NlZWVePye5JEnKrhcaOnQodXsUSaJXobLsxLO7qqro6OhAdXV1wWPMsxOLS5IkpFKp7EJ2q1ws3TUtvwpVkiQkEgkkk0lUVVVRy/St2omMMXkz+vTTT+O9995DU1MTkskkNC3/7EX9PRq5SBvtOeO1EcentTU2NiIajeYllE5zFSJPlmVEo1E0NDTgtNNOQ//+/dHV1cWshmtvb7cVM6z6gqIoSKVSaG9vx5NPPon169dj7NixmDt3Lurr6/O2HdHLsxszotFoXlsxMYNmC03T0N7eTv35xmk/tjMv2OVKJpNIJBKIRqNULlYVKstOLLuTmJFKpRCNRh2NGTSueDwOVVVRWVnpGBfNF2RZRkdHB2RZRigUKsi3FEXB9u3b8cQTT2Dz5s1oa2vL05HchxHFxAyztnQ6jZaWFtTX1zvOxYvVLC5FUVBTU4MxY8Zgzpw5UBQlJ364HTP08rIJXDweR01NDbUDq7xbH4yNRnAygSM3Gw6H82SWIoFrbW1FNBotaQIHdNtp165d6N27N3UQnU7g2tvbUV1d7ZjuLC594LfKZSWBA5AT+J3QnTbGmUwGbW1t6OjoQCaTQSQSKRkXQSwWgyRJOVWVBL/61a9w4YUXZvdAK0Qez487Ojrg9/vzfs4vRHdFURAOhxEOhwviam9vR0VFRd5PrE4ncEB3zCDP4Pbt2/Hoo49i06ZNOPzwwzFnzhzqG9VyihmsBK6trc0VP85kMtkvfaXm0n/po3E5lcAByCZwlZWVjujO4yIJnJMxg+ULnZ2d2QSuUHl6PWOxWE4CZ+bHgUDAVswwm/u3bt2Km266CX/7298AIOfljZGLNS8U48eVlZU5Mn0+H8LhcLbq1EmuqqqqohI49ogKlBySJDEfCoHygc/nQ21tLaLRKDKZjCvrFsnPIbS1ZPX19ejbty969+7tCFc0GoXf798jF/yTANq3b19cdtll2LhxIx577DGcd955OPPMM/HjH/94j7xvAYFCQBLCUChE/bLIQmVlJQKBQEl8J51Oo76+PhvfIpEIQqGQK8V+4XA4L9kGcpOxcoL4wdtDaJqGxsZGr9UQKBBknY4RmqYhnU7n/fQD7D6knQayQa0VLp5MM3msHdhZXHZ1L2eMHDkSv/3tb3HOOefghRdewJVXXok333wz2y4qwgX2NtDiFuBuzNDHTyMvj8tqvOPFatKPJrNcT68Qb+A8RldXV3bBooCAQOmhaRqmTJmCyZMnY82aNfj73/+ONWvWYPbs2Xk/SwsICAiUK0wTONZCan27lT5msuxwWZVHrnvNJUkSs/LHzIZu2N1M91Jw2ZHH49nT7MTrWwp5bupu9Xm3y0UqumRZxjHHHIPp06fjySefxB133IGGhgYsWLAAffr0ofK4GTMK5ShU3p7K5bS8cufyel7g9XWCq1A/ctruPZEr5zB72mtK3kJGsl2EkZAsZKS9pjRboKcvu6VxGWUWs0jYjMvJBck0Lk3TEAwGqTY0W7hNk8ezO3ndbGWMebrzuMhraDtcLN1Zi1VTqRSVy67uZmPsJpckSXlcsixnf6Yw2stuEQO5J2NbMbqbxQwjzLis+oKey6ijUfdAIIAzzzwTM2bMwIMPPojLL78c06ZNw6mnnoqamppsbHQ7ZtBsQdrc8GPyk5cbXCw/Jlys+Mmyk5ndaT/LlcqPaT8rFsPF8wVZlvO4SuXHTscMVVUhyzJSqVR2viJ2YsUMu0UMxcYMJ7locz+PSy9PAXaX7nZ2dlpKJBKJBPXh5BmWJy+TyeQd+ktAjscxyrTDRfZa4XHFYjFqMObpbpVL0zTs2LED++yzj2UuljxVVam2UFU1e19O6c7iymQytrlYuvMclTZx8nTnyTOreGWtq7DLBdAPl04kEpAkKY8vEAggk8kgHo8jkUjk+J5dvyNynPRjHpemaXkBuRQxI5FIACg8ZtTU1OCyyy7Dxx9/jBdeeAELFy7EUUcdhRNOOAGhUCgrz62YwTrM2i0/djpmmI0xj8uO7rwvfeQLkhO6l0vMINv3GPns6m7mx7SEu1g/VhQFXV1dyGQy2bhE5n4nYkYhcz8tGStlnmEl5zL6gkKI/H4/tVycFyBlWc4e/k1T3OoDyKvykCQJ4XCYGox58li6m1WU0PZncZpL0zRs27aNepg9ybKtyuMFflmWqWX6dnXnJXCxWCxva49iuIj+RqRSKSQSibwtAezqbpZUZTKZnC0zSsUVj8chSfQqZb/fj2g0mqeH3efT5/PB7/dT95Wz68e8mFFRUZG3zYAZl1VfALpjRiQSoQZjlu6qqmLcuHEYN24cNmzYgCeeeALvvvsuTj75ZEyfPp3KQ+BGzCD35YYfk8nHDS6ylRUrZrBswWrj2T2ZTCKVSlGrDZ32466uLqiq6mjMYPkC2ejeGDNK5ceBQMDRmEH6kKp4YjNJ6q6SpcUM1rxQzNxP2wO2VHkGzbes5Eima+CIkWjKkbZCr5M2p7msyiPX/WGOgwAAIABJREFUzbho/Zzk0jQtuzs8676s6sezu1mbVd1LwWVXHuu6HS4W3ObiwSlf4Onoth+bcVnxBTMuFvTBc/z48Rg3bhzeeOMNPPzww1i9ejXmzp1LPee1FDGD18eOvD2Vi9WHhT0hZvRkPzbjMn7OLpfV59OMqxDd7XAVEzNEFaqHIG8VBQQEyhOSJGHatGmYOnUqnnjiCfz1r39FQ0MDzjrrLPTv399r9QQEBPZiiH3gPISmaWhqavJaDQEBARPIsoy5c+fitttuQ+/evXHjjTfinnvuwa5duwCAu8u9gICAQCkgEjiPEY/HTX8uExAQ8Baa1l2JWlVVhQULFuD6669HKpXC5ZdfjkceeSR7DiX5rICAgECpkbONCK0km3eYPSkzN/YjpcQ0kBJZWpAjOyQbfxOWJClb8WL8jdxMnlmZPmvhIa1E2mkuVVVRXV2dLTU2cvHKxVnyWHYnZdlWxthMdxoXqWi2y8XSnbY2Qc9l1MeO7gB7jAkX6VtKLuJbpApV319RlBxb6avA7Dyfei4iuxjdeVx6P5Zl2RKXVV/Qcxn1dMKPBwwYgEsuuQSff/45li1bhrVr12LOnDk49thjc8atGC4aSJvdLXqs+rF+OwcvuVhrhVh24vkxiU1uxAw9j1NcNF8gfkybx53241LO/X6/P+ekBP28RYsZrDVrdp5P4re0kxpKmWfQqlB5XNQ1cKwAqWkaVTkA2eu0QC1JErf6glV9wzr4VZZl+Hw+qh48eSzDkj5ecsmyjEgkwtSDNya0Pjy7E1lWxpinO4+L2M4uF013cs8sLqMudnXXy2Vdc4OL3BOtr/654Omph5kf0573YvzYaS6rvsDjsqO7cYxJEB02bBhuvfVWvPbaa3juuefw6quv4mc/+xkOO+ywnDdydrlYfZyKQWZ+bHVeKBUXTR7PTnq5RhC93fJj0t8pLpadSjEfuz33k3ZiE/28ReMqxrdYc67P52PqX4o8g9bG49L3yVm4wboh8qfQNrM+TnM5Kc9NLk3T0NLSgqqqKss2tGN3p21RKi7adf3fpda93LlYfXuC7uXy7DqpOwBMmzYN06ZNw8svv4yHH34YL774Is444wwcdNBBeZ+1wsXr54TuImY4o7ubXD1ZdzMuY7tenht+3NO4xBo4jxGLxcSaGQGBHo7Ozk4oioKZM2fij3/8I8aMGYM//OEP+MMf/oDt27d7rZ6AgMAeCJHAeYyamhrmN20BAYGeA7L2JxgMYvbs2bjtttsQDoexePFiPPTQQ2htbfVYQwGB8gWZBwOBQM6cyFoCISASOE8hSRJ1N3ABAR7ImguB8kZ9fT0uuugi3Hjjjfjmm29w1VVX4ZlnnskeCSTGUECgGz6fD//+979xzTXX4Msvv0RFRQXefvttXHXVVdi2bRt3Td3ejJw1cLSf8vS7CRfaZtbHjIsGHpdV3Xn6ucmlqiqam5upx0DZsZOdsbKre7lzFSNP/7eXXORvSZLQ3t6O9evXY+LEiaiurobP58Nbb72FXr16YdiwYTkc5eLHImZ0V5QdcMABWLJkCf7zn//g0Ucfxeuvv46f/vSnOOKII/J0MuMqB9/yistqH/3fpda9J3NZlVcKLgDo168f7r//fixduhSapmH58uWYOnUqrrnmmuwRYqXUz6wfS/diuWjXzbgIcrYRIWW5epAyWON1WZZzyqP17eQa7adBVtm3vo22qI+UExtLic3ksQzL4iL608rZneSSpO4S846ODuZ9SVL+sSJ6PYy68+zOGis7uvO4yH3Z5WLpTrODnos8v8XoTvSjwU0u4ltk/In8a665BrIsI5VKYePGjXjzzTfx+OOPY9iwYdlSexbM/Fh/b8XozuPS+7HP57PEZdUX9FzGvqWKGaznPZPJwO/3Y8yYMRgzZgxeeeUVPPXUU3j22Wdx7rnnYtSoUZAkKWfLE5YvkGePdg+l8GOr80KpuGjyeHbi+bF+rEodM0rBRfMF4sekfyn9uFRz//77748rrrgCl112Wfb6DTfcgFAoRN1CjDUv8HTn2Z3IZ/kWT/di8gxjm5UcKWcbEdZrSlYpMSm3pR0wr6oqdXdyQswr06XdrM/ng6Io1C0VePJY5b3kfnlctLJlJ7kkSUJtbS0URWFW8/C2QGA5Ps3u5IBhp3TncWmaZpuLpTuRaYSiKNkEWC/Tru68MXaTS7+tgqZpqKmpwRVXXIGf/vSn2c/Mnj0bRx11VM7nWfIAvh/TfKsYP3aay6ov8LhKFTNY26MQmUTGUUcdhalTp+L555/HnXfeicGDB2P27NkYPHhwlgugn+5A/IB18oOTfkzkuREzFEVBKpWyNC/wYoaZb6mq6rofO8XF8gXy/Lnlx07O/eSZnzt3LpYtW4ZPPvkE8+bNw+TJkxGLxeD3+6lcrHmBpbuZH8uy7HqewapCLcQXxCIMDyFJEvXnUwEBPYiznnTSSTjyyCMBANXV1bjoooty9pkSKG/ox6iiogKzZ8/GH//4R/Tt2xe///3v8de//hW7du2CJEnw+/0eaiqwN4GVKNBeYhBEo1EEg8G86yQBYvGwuMjz3rdvX1x44YUYOHAgrrzySgBAOBym+gPvywVLd5Lws+IlWZ5C070c16yKA/w8hKZ17wMXjUa9VkWgB0CWZSxevBivvvoqjj/+eEydOtVrlQSKQDqdRnV1NX7xi1/guOOOw0MPPYSrr74aU6ZMwZw5c1BRUeG1igJ7OHw+H7q6urBhwwZs3bo172QXsuGxEeStmDGxIj8V05Ig8hMvLRHScyWTSYwaNQoff/wxNm7ciFgshkAgkJcYkp8tzeTR9GPdV2dnJ0KhUI7MiooKHHDAARg7dmze572GSOA8RkdHR/ZVq4CAGbZu3YpwOIyuri7EYjGEw2GvVRIoAmQy6du3LxYvXoxPP/0UDzzwAC655BKcfPLJOOaYY8rym7/AnoG1a9fiqaeeQn19Paqqqgp+1sh8xVqDVgwURcFxxx2Hbdu25awFdgOSJKGpqSnnWjqdxrp16wAAF1xwAYYOHeqKLoVAJHAeQpIksQ+cQMFYvnw51qxZg/feew+rVq3ChRdeiDvvvBNVVVVeqybgEA466CDccsst+Ne//oWVK1dizZo1OP300zFx4kQA4qdyAedw33334f3338c555yD8ePHi5/tOWhtbcU///lP3HLLLfjFL35RNr9+iCpUTnVIKatQSVskEqEe/iuqUHO59tYqVILly5dj1apVuOOOO9DQ0ICDDjoIv/3tb3HxxRfjjjvuQG1trahCZXAZ+7pdhWqVS5IkTJ06FZMnT8bLL7+MZcuW4fnnn8ecOXMwYsQI+P3+sqgMFVWo3nAVU4VKCiDWrl2LDRs24De/+Q169epF1V9gN6qrq3HiiSdi0KBB+Mtf/oK+fftiyJAh2Spzr6pQc96XWnlNSRSmKe409BxuvEp163UtWQNHS+BKxefGWAmu4rn0azuWLl2KF154AXfddRcaGhqyn7vuuuswbNgwLFy4EG1tbQgEApZ1c9O39lQuI1+xUFUVXV1dAIDjjjsOt912G4YPH549mmvLli3cBdxOYE/3rb2Zq7OzE48//jgWLFggkjeLGDNmDKZMmYJHHnmk6HnbiWfCdBsRMpFYKSUmmT4vwLC4zMr0eaW1hepODGd1SwCnuSRJQmdnJ5OLVS7OshPP7uS6k7rznpliuGi6E5lGsMbKru56uaxrbnAFAgEEg0Hcf//9+Mc//oE///nPGDBgQN7nrrnmGvzud7/DxRdfjDvvvBM1NTVUDrf92Gkuq77A47Kjuxcxg1yPRqOYO3cujj/+eNx33324+eabcfjhh2PevHk5ayCd9mOigxsxg6wFtDIv8GIGgdk2Ik7obsZFe3aL4bK6jYhR3nvvvYd9990Xo0aNYt6LABvHHnssbr75Zvzwww/o27dv0TGDtSyiEF8Qq2M9hCzLGDhwINcZaWCVQfNKuGVZRnV1NVOe1ZJrHpeiKMx1WWZcLN33NgSDQdx999148cUXcffdd2PgwIHMz1577bUYNmwYLr30UrS1tbmopYCbqK6uxsKFC7Fo0SJs374dixYtwrPPPiuO5hKwhG+++QZ1dXXiebGJffbZB+l0Go2NjV6rIooYvEJnZydeeeUVrF+/PvtziR4ke2f9ds56G6H/6c3YlkwmqXv36NdHOMGlqirS6TQCgYBtLlmWsd9++2Hq1KmYMGFCSX8uKkcsXboUr7zyCv7yl79gv/32M/08eRN30UUX4c9//jMzWRfo+Rg2bBiuu+46vPfee3jmmWewdu1azJ49G9OnT/daNYEegFQqxfyyLFAY9OvbvIQYRQ/w8ssv4+mnn0ZDQwMmTZrk2j5wbpdjF8Olqiq+/fZbPPTQQ3j88cfx/7N33uFRVF0Y/21P77SEGjqEjoA0AelNohBELCiiIiBFgVAVkBp6U0A/pKioQQSlQwARhQ9EVBDpHektIcn27498s242M5PsZlPEeZ+HB9i7c94z995z5uyde84dOnQoJUqU8KKGhRfLli1jy5YtLF68OEfBm4AxY8YwZcoUBg8ezPz585Xs1EcQdrsdo9GIj48P9erVo169evzwww+sWLGC7777jhdffJGaNWsWtJoKCjHy8znwKKMwZIRnG8BJrZbItWV3jbe53JUnfF4QXBs2bODLL79kyJAhjtIACqTx7LPP8vHHHzN27FgmTZpEZGRkpnZPxlhu7OVW+rzNJfb5xx9/zObNm5k7d65bwZuA0aNHM2XKFAYOHMj8+fMde+L+CXbs7jW54ZJCYfIZOb1GyFj95ptvmD9/PpUqVaJnz56OhJfczE9PxzE/uaSukUJ+2HFecuW2nwpD4PEoQOjHgvQZWuFDm82G0WjMcoGQ5ir2qsxkMgFkycaQO6NMTp5c5WeTySR59pq7XEJKtxxXenp6luuy012OS6/Xc/bsWVatWsX06dOJjo7OIkNBVmi1Wl5//XVMJhMLFixg/PjxaLVax5wzm82YTKYsc1dujDPPGRUanZ1bp/7g6MUbmMwZy+IarZbwEjHEVCuK2mLFDhiNRtEq4znnQrRNqDK+ZMkStm3bxoIFCzwK3gSMHj2aqVOnMnjwYObMmUNYWBhGo1HWjsXKN+TGjuW4VCpVltcPis/IyiW1iVlsvqvVap5++mkaN27MunXrmDBhArVq1SIuLo4SJUpgsVgwm81ZdJfjstlsolw50d1dW7BYLLJcclX15WxLrM1kMmGxWEQr++fGjsXajEajaFtuuEB8v6NgW3LydDqd47mtIHcwGo2YzWaHXXnqM1zb3PF3jhksGKs7wiwWi6hiYnVvPFHOtc1sNksGi+5wZdexApc3nbFWq2X16tV06dJFCd48QL9+/Rg0aBCHDx+mbt26jgDAbDY7Hk7OyImDzJgzatDcZ/OYRewM8aNEqAE7YEt9gNF6iVELnifMbMZGxny32Wy54CJLm5BRNG/ePHbt2pXr4E3AqFGjmDp1Km+88Qbz588nNDQUo9EoaccgXo/KUzuW8xmutRxzyyVlx8K8+Kf6DDH9hL03rnMQMo43CgkJoX///rRr147169fz9ttv07x5c7p3705oaCgmkylT8CzHJdSpEuPKTQAnxmWxWGS55AI4Kd3luHLnM9zjstvtXuUC8QBOeB67cjnL02g0mY7LUuA5nJ89ufEZuQ7g7HY7Op1OdC+W1CZ2AT4+PqIbIuU2v4N7m/OF6/z9/SVTdd2Vl12b2P4hT7kgI2khOTmZxx9/XPI7CqTh4+NDrVq1OHv2LE2aNHF8brFYSE9PJyAgIMs1OR9/G34+/gQHhxAampHkYTWoeZjmT6DOgJ8u4zOj0YjVahU9vsrTuQbw0UcfsXfvXhYvXpzlFXFuMGrUKKZPn058fDwLFiyQ3BOnUmUcni6VdOJNOwbw9fWVLSUhxiX1WiE7nxEQECD64PdE9/z0GTm5L7lroqOjGTp0KCdOnOCzzz4jPj6e3r1707JlyxxzCbrnzrZy1ma1WklNTfUal1y/m0wmzGYz/v7+ec4lvC3wls+QswWhlIXYGbrO8vz8/EhJSRGVoSDnCAwMxNfXF4PB4LEtiMVc7vgMtetFYhdIFayT+5UgdU12bVJ6eJNLkJVfXAC3b9/Gz89Psk6XguxRtmzZLOfUSY2j3BhnHSsf/Px02KwZr2NNJhNmiwWN3hdnFy9k3uaOKzNWrlzJ3r17WbZsmVeDNwEjR46kevVqDHizf5a+EyB1X7mxY8Vn5J5LiscdX125cmUmTJhA3759Wb9+Pe+88w4//vhjjrjk7teTfvJ0HLOzcXf0E67zph0Xdi7Xa5QEBu9A6NPc+Izc2omShZpPkFsWVZAz5E3f2bhy8ghpj5Ui4sJ1TGYbflo7aVo/IqKM7P39LI1jojF4ed+v5f4NFi5dwdxFi5g8eTLHjv2BxjeKevXKon5wlb0H/8BqV6HW+RKoV5GSlorNZscnpCj169dE//AGv/72J3fS/n4dovONona9ygRmWkiz8MaAgcyeu5C33x7GggULRVc5FDzaePzxx2nQoAE7duzg008/ZfPmzfTu3ZsqVaooJSUUKPiHQrHcfIKwHKr8+vEcedN3Nq6c/o3Td02EBAdz/eIxNt7ypX2VSO5ePULSb6HUi4kma/W83GH2pIGs3H2GuLg4jh07xi+/HOTmmeKM/vxtyiT/xd4ffkClsnH79F6+Of2Ado3bUCIogNDIaGLq1+T6lu9YsCCJ0PrFHTKv/qHnjUWjaF4uALsdVCo75rsn+XrfOZ4dMILvlk3lzTf7M2/ufELDQr18RwoKK4R9c1qtlnbt2tG6dWs+//xzZs6cSbly5XjttdcoUqRIQaupQIECN5EpgJNa6hVb6lOpVJJtUp87c8hxiUGOy13d5fTLCy6hrxR4D85jITYu2c1BR5tKS4OOr2BNG8X9eu/zdtghnhi4HJ1OhzagNL26tiFIZcduzz2XEMR/8tknrF3xEzWbtCAsLOz/y+U+pF3VYjKCT1Q9xr9bjT/27eNA6kXSGzakUyk//Eo35vHaFfEDrptU+PoFZTrLMMVP2ER/j9X9BrDmipmoklqOn7nFtk3fob10kz2/32NE/Ehmz5pFYGBgJv28bcfessl/o89wt/9yIk/YP6PRaHj++edp06YNX3zxBcOHD6d58+Z069bNMZ+k5npe6p4dV17I88hnFEKunD6PlWeR9+D6DPLUZ8jJze4arXOD2Ptaq9UqSqRWqx3val2vEz6TyryQgtDmep1Q5kTIwHDmyk6eVMdKcQn6C9e6o7sUl1jZBAWeQZhrwh4Bq9WaaR4KkBtjx/xUa9BY77J13QK+2PeQ4D9ms+Wvw9y8Zefu3UBstjss37CNYT1aE6zNHZfwmmrx4iUc+GMf77/yMpv+MjqdwmHBpgohNFjHxZ/WsO67C/hUrEfv4SMw/GGlRe2ibPxyCeN+COH5F98iOtQfFVaMJhP/X9vFig4fHwPgS6t+fbm39CztBjfg8PUrhBLIlW8vEJ/Qie82fUT//v2ZN28e4eHhDrvyph2L2YKzHWs0Gre4pB48OfEZrtfmlc+Q8p+econxCHNfTG5OdHeet8WKFeOtt97i5MmTfPXVV4wYMYLOnTvToUMHDAaDg8ud50KO7E5krJxtS6oPxZJRpPpJqt+FeeGxzygEXGK2INivcL2UbTmXYFKQOwjjl9s4QywLNTvOLGVEpPZn2e3iB7UK35dqU6m8e5i98MtRah+UNw+m9jZXdn2hIOcQUqiFfhbGyTVVW26M/56falQYKFWzM3N71sNw/U+2H6rBU3oV6ZYMJ6cqVgZfrRq1OvNh9u5wCZ8vWbKEXbt2kjDpHS6ePkuRg0dJNtsIMmhINdqJqhXEiV/+IDq8IvXaViQiQs3vRy+hv2/h0G8PqdG0D7V0d/FJu8xxVJRtVIxb6RYCfHSYTGYia5Xg2onfOHL2KKs+38df1x6wc8Byfr+ZTNnIyvgZdBxcepzYIePxUy1g8ODBfPjhhwQGBoqWwMiNHYvZgtB3YraVHZecfyosPkPqnnPDJXWNN3QXArRKlSoxZswYjh49yooVK0hKSqJbt260atUKf3//LMG2J1wgP8bOdix2X948zN55rNz3Ge5zCX97i0vMFtx5Hiv7sL0DoT+l5m5O4wyprOKcxEiZXqGKCRIG35227K7xNpc35eUFl9Q1CjyH81hIjUu28xNA40+1qvUyGopVoXOnKrKc7nIJRrhs2TK2bd/O4kWL0N89yvafzxDk74/fnYt8e/QhzapUQJt6mq07bbw15BVuHHifhDUp1Cnuh06jwmKxcuPsbXpPn0ND0wE+PXgcg68//ua/2Hb0BjHlK1PUdoUfdu+ic9/+TJvenctnk/h0w0a0R9Op/UQzOneIpXLRQHwNWtoOfYeU6dMZOHAgU6dOFT2mLL/t2Ju2mh2XN3XPSy4xeFs/oahtTEwMCQkJ7N69mzVr1rB582a6d+9Ow4YNvTJeeTmfPJEn1p5XunuTK7f9XigWE8x32Lh7O8ePPKTLqy/gd24by7/7mUqtn+fZxtGQdp5VS1fyl08V4jo25PhNOx3qluX6b39w/kEgDZuWKug7yPIMKgifoYTiChQ4wWq1ev119wcffMDWrVtZtHAhxYoVI7TKkwztHE7Rhh0YN202FUoGodZq0elDaNvtWUpqjVy2BVG//dM82zOOZ7r3oOezz9K2UUnSkm+iKdWEMc/XJLRSdcZOmkuTGiVQqbXodL7U6fg8TUNvs/Hrxfxnyyme7v0WL735Es1joti96iNWbT3ApfsZr21HjhxJtWrVeOutt7h3755X71nBPxctWrRg0aJFPPbYYyxZsoRJkyZx8eLFglZLQS7gHAyIrajmO9IusnjqV9wOKYfq7G7+s+oE9RvXYM/GxXx3/BI7tn/OqcByRNy8xg/f/sC+j7/kRrqJ7/d9wo6bWYs9/1uhZKEqUJCH+PDDD9mxYwfz5s2jePGMjNGj+5ez9MvDmAMfcHbzMo4cv4JfZR/MWti5aR1V+jxNUMpVNiSt4kHRv4ty3jx3l+c7hnLl2HcsXLWJ+5oyTDq8i50/n6Ri6Ur4GFXc3/YV+gcR3I1sxOi4pvhygf2/PKRK604MrFOXzZu/4ej1KpQKzpA7YsQIEhISGDRoEHPnziU8PLxA+klB4YJGoyEuLo4mTZqwfft2Jk6cSJ06dejZsycRERHKXqp/EIRXe6dPn2bv3r2sWrWKXr16FaxSVjvh5Zvx0ist8d0xlXUnThJSVs2d47f5cfdeyp47Q89Jo6huAExXWTB7Kt/uP4Lmgp6uLyknGQlQAjgFCvIIS5YsYefOnSxatMgRvAEEh1dl4LiXqBR4kw0b/0uzFlrSzRbs2LH5F8VPp6HT8yPpPiCUTBXbjHdIUeswXY/i2UGzqRWlYtumJBo+3gaLxYzVDnadPzUfb0VZ3/9fYy1K52aNCTCAVluELk/3y6Ln8OHDmTFjBoMHD2bRokUEBwfnab8o+GfAarUSEhJCnz59aN26NYmJibzzzju0adOGrl27ilaRV1C48Ouvv7Jx40Z2797NyZMnuXDhAhqNhj59+hSsYnY72mh/NGYwafQUK12BmnVqEVk0gqiyJfjxTAomFWBJ5fqdAOqUe4w1yz9B07IPL2Q91OJfi0xZqGKZFFK/slSqzGnLYlkvUpXJhevF2qTeCTtnybpyyckTgyBL6t20c5ajO7pLcTlnCCnIHVzH3zk13vVzqTH2ZH6qVKpM80+KS9hf8sEHH7Bz507mzp2bKXgDKFWx0f//VYyuT3URv1HfrMdaYQjLCOhK1kEoHtK2o8T1AjS+FA3zlf8OGStxM2bMYMCAAcydO5eIiIhc2bEYsrNjOS6p/WA58Rmumet55TPE/EZuuKSqu2fnn9zRXarfhfluNpux2+2ULFmSIUOGcObMGZYsWcLevXvp3LkznTt3ziQrN1xyzyAxeXL9JGfHUs+tvPAZecEltTfKlUutVpOUlMTixYu5cuUKABEREXTq1KngD7S32zCmGkkzQaWq7Wkb8BUHf/2ZC6dv8eJjLajVuBQfjBlH2L3b1I57h24tSzJx9A46vv4ehWAHH5D5JAYx5DTOEBt/yFmMpHVtzGkAl5MyIt4M4OS45OSJIbuO9eZDy1sBnN30gFt37+MfUhxbSjq+4YE5msgPb93A5hdKoJ8uszyLkft3zQQWCch/g7CmcfP6NfyLlsMvcyVCHqYkY1L7Euqir+Mb/x97my3jYGaDweA4xFnskG5vB3DODylXLiF4W7RoEbt27WLRokUUK1Ysx90iDRu3bt7EbAilRJBIYOeCMz/uwV6pCRUitNw58xsnbup5vJF0coYAIYgbPHgwCxcuJDQ0lPT0dK8GcJ76DE8CuILwGe46YzkuqQAuu7nrju45CaqEv1UqFeXLl2fGjBns3buXtWvXsmvXLp555hkaN26MWq3GYrF4hcv1Om8GcNnZcX76DG8FcFJlRIYOHUrx4sUZO3YsFy5coE6dOtSrV6/gD7QPqsz4V6OI8gWfoOq8MtRG0k8nadb0ZRpWCIcyo/HRJnEvuDTtn4hGRzEWrt9ORPnCU3A6twGcpz5DNIBzXj1whVR6t0ajcfwRU0zsiJbsMmGk0mo1Gg1arTbLddnJy660hxyXWDq2p1y5Pa7GlnaTc6dPEu53me0f/E63pa9RPNurzGwbO5DkzpN5sXPFTC3pFw+x6L1z9F35fA7keBmWB5w/8QtRYa4BnIWN61ZzLORJJnSpLHqpkI6v0Wiw2WwsX76ckydPMnbs2EyvdOTG2NP5qdVqHTXTnMfZbrej1WpRqVR88MEH7Nq1i/nz53speAOwcf78GdIiamQbwF05+i3DZ6+iZIX9xMa9iO7ydmYlXqHh95HENH6azk3l948474kT6sSJwRNbEL4vZsfZjYlKJX0MXWFUWgviAAAgAElEQVTxGVLlUTzlEusLoYyAlD9xV3e5fhfkienerFkzmjRpwubNm/nss8/YuHEjL7zwguNoLoEzp1xarRaz2ezWc0Gun+T6XfAdYnbsbZ8hyPIml5QtCPPPWY8DBw5w+PBh5s2bR1xcHN27dyckJIQbN25kuT5foQukcpm//XVoVA2e6V7DqT2UZl2fcbrAn0oxzidTFzyE8RFiBU/jDLHAX2gXg7M8JQu1MMB6g+2z/sOVh/Dz5o9ZmHQG7h1j++qlJK58nzcGD2bl9p9JS73HkR8T+c/OT9n3610un1jLwBf60G/4DE7cc/pFZU1lx3/ieX7EENaeuIWvr46bP2/llT59eKl3LzYcv8yZnZv5au9ytu04xY/rl/LCy33pO+htfrnxd4aP3XSPzXNH0/uFXkz8zw+YsJCYuIx3Rvejd9yLLE86hfBb2W5OZcsn43i570u8N38rRquVG/u/5fkX+tB7zAIuphn5Y8NkXnvzdRat3c391FQ05hR2/mcmL73Sl9eHj+dSig2d2oZFZrVSq9ViNBrZsGEDnTp14o033sBisWTZjyM4dqlfq1IPLLEfJAJ8fHzw98/qRASnmlHnbReLFy/O/mB6q5Hv146nzysv02/ul6RYraQf20T8c314rs9Ufk9JJ/nSXvoN6M/kGas5l2zk9C87WPL1LwAcXr+J9duucPvGDoa/8hIvDRjH0b/SuXTpKnV7DKBzBS37Nizl9N2qvPR0Y6L06Zw4uo/78loBGXviatasydChQ7l161YOrlDwb4PFYkGtVtOpUycSEhKoXbs2U6ZMYcaMGVy5ckVyxVRB/iEpKYmPP/6YN954g06dOtG0aVPq16+fZUuBgn8ulCSGwgBNMA/897P9fDcqnzqPscgRDp0syvHrRSH1W/ybTeSZ+jdYsWYDtR6P49nm5ahT5ALLEr6i64TZGBOnsXz1Zt4f2AUtcOfX1SSeSCf+zaGsSxhMsuYeF89Z6Pv2NEKuJjJx8y8s7NiaDo+VpGENDec2RzFh+gz2rpnF6j1/UqdHxi+hyzvXsf1gKGMm9GBFwgJ2xhTlj61JmBsNZFSTPbyzbwfdW1YkUAWm01v44K+izJzen9tbr5B85RCzPz7Ay2OmkrJnJpO+/pHO145gqtmX59sU49NFc/CLboJJE8P7M19g3cfzWPvTWSr7+aCWcP6+vr5cunSJdu3asWfPHgD8/PywWq3MmjVLdI+JawFN5zaxQE1Yvhb7hSvsB9Lrs66C/fXXX1y+fJkPPvggZ5mc1w4y71AY4yYPxHLsGPfunmT1xG94fPg0Oh6by0fzkhjY7DZ/ni/DlPef5pvEFZyxh1Di2DpOtSjNb+e3oa1XgjVzl1B36GxKH1jKZys/o3XdQG6cP8FZ8z0e3r6PpqmNDq27Y7h3mi37DpLTBPwRI0YwdepU3n33XebOnYtOJ/5KW8G/F4J9+fr60qNHD1q1asWaNWsYPXo0Tz75JLGxsUqiQz5D8Ftbtmxh3bp1DB8+nPLly2M2m9myZQtqtZojR44UsJYKvAUlgCsUMFCmcgf2/PcHbperS0m7mZ9+P0pw23aU2BlMhVoxBPn+iE7vg69vIKFBIagsyTz45jSfmydhSLlKRBOzYzXs2h9nqRpai5iyFbA0iuKcXzBhpY4we9F7pCVfI6XG6/gFBxLoE0yRoqW5qltKwvjvuHLlDlX7/j0lzp03QqVWVKtQh87h1bnx+ylUVVrSsNHjxITeJ+zifSw2QAOGck/yanQCU0e/R4u4t6jNbX6+/SN/zbuNT3o6flWsaIqE0LF6LYIDk9HpDAQUieKBbQFTR3/D2aupdG2gRe6Hu81mQ6fTERkZSWBgIMnJydhsNoKDg4mMjMyyF0F4wLjCeZOvGAdIB3A2mw2DQfxo+4sXL3L37t2cBXBF6zCowe/MGT+Oul1eor/awq67N/ll2UTCTA8JLJbOfV0QFZ6IpEhoIDq1lqiSFQnSnmPz9oOo79QirqaOBX3Ps//uVAJMNwmvEUma0QdfP398UqFoTGeaRt1h48YvqVsuBpVKjTvrIvfv3yc4OFhZTVGQI4SHhzNgwADat2/PZ599xsiRI2nVqhVdu3ZFr9cr8yiPIewJ/uqrr9i5cyfjxo2jZMmSjn1TygkMjx6UAK6QoFp0HX7bNIwTXd6heuoFDh+6w8BeEfy82YSvCrBasVrMWC0WTOlm9IYQAls0oNOIiZQ8vYdzqoqOZISiFaO5dD6ZFNND9v9xi6Cwo8z4+CxNxkyg4qkFTDqdgsUchk2l5fYf20lYHcqCTwexYeY4zpv+XqMpFgH2X/4gzVyRgw9OUK54U9SmC6CxQloaZqeNsKn3z1GyRiwz2oSwftBGjgyoQqXSTen15mCCb2/nLJFoDqejUtvBYkWtUXPx+80s3ViWZUue4oMpE0gzmbFarFg04sv76enpFC9enEmTJvHf//6XZcuW8cUXX3Dp0iUmTJiQh6OTM6xbt46hQ4cyc+ZMKlcW38MnwJJyA1uFJ0iY/jRJS6ayr2QcdSuVpnm/eCoYj3LkZiQ+6mOYAwIAK2aTEUtQSVpaoxk2PYFyY1ZQVG9C16gWXQeP57G7h/njri8BISa6tmxHk/s/88X280RWfRYf4zHu3LtGWlrO7sNisTBq1CiMRiPTp0/P9f5NBf8e2O12ypcvz7hx4/j111/58ssvSUpKokePHrRs2VKZS3kIvV7PwoULOXbsGOPHj89+G4eCfzw8Psw+JxllYr+4/o2H2Ws0mmyr+/tFBXDLWIxwfWXqh/zBb/UrE+UXyNGACAwaQONDQGAE4SXDuH5rO/sutqVr34p8OG4MqVYTzw4a71hdiajXk1o/jKLvm2MIDvajR3QVOjT7kRULxlOvTAnqq/xRFw3Bcm45e47F8UT1Y0wes5AyfiWp9PBv/cu3bkuN/VPp89I6Qqt3p8+TVbm88nd8tYDWnyKBascmSpXawt5FCzlq01OlQQ9q1m/Cm1cuMnHiGGzJap6b3pjg4CJYdWpQ6/ALCCGqRg3qh6xi7MSbRKnLUCbFhjooiDC7+Os6lUrlSH9v0KABDRo0oGvXrvz55588fPgQH5+/i94KY+zuJmFhnMQ2vqelpWGz2fD398/yutZutxMbG4vVamXo0KEkJCRQvXp16QFXa/hlwzw+u6yidPV2dKhRl8odf2P61LFcN2rpOHAsQX4BRPhlrPYFBAZgUgdQullZ9LOCeaJMEfDR0a1/HRYljGV9Wjrd34hH9ddmxs75ktKmy4Q16EeX9BQs/jqu/3yGKzfKkl0JJZvNxqhRo0hLS2PmzJno9XrJg9OloBxmn1U/T7jkSg94epi9lC2I9V92B8zLcWm1WmrVqkWtWrXYsWMHiYmJrF+/nr59+1KjRo1MfZMTLjHd5foppwfMu9pxXh5m7y0u1/ks+KqEhAROnjzJjBkzCA8Pd8h3lickcCjIPQrDYfYqi8Vit1gspKamEhwcnEUJYbOq6/KrWq3mwYMHGAwG9Hq9qDN25wEpcEkd7vvgwQN8fX3R6XSizlhKnlR2iNTDHeDBgwcEBARkuc5TLo1Gw9mzZ1m+fDlDhgwhIiIiy/Vgx2RUodaBFiMWlRatSoPFbESlMaBRWTFbrOh0elKT72DRhhDkq+bO1SuY/cMpFuyTWZwlmb9upRMaEYyPVg+kcv3qXXxDihOoUYFBhfHePcz6IAJ09/nruoXwokXR2a2oDU73Z3nIXzceEFq0BD5aMJnNqDU6tCorRqsdvVbrCBytD+5x7cFDQiJL4K9WAzau/3UVdEUpFqHHZjZi0+jRquyYLWZ0OgPWtFtcu2OnSJEiaLFi09ixo0anybrcv3HjRk6dOsXgwYMzvQI1Go0YDIYsZUTyKoALCAjIUhJAeGhpNBq+/vpr/vOf/zBz5kyqVJEp35F+jyu3UggoGkmwPuNe7v51hXRdMCUiAsBqwWhTYdBpsFjM2FVadBoVZjNodTj6/f61K6TqgykRFsDZoz9wljJUMJ7jgimEmiVh+bQlnNKG0qn/CDpXCZJUx2KxEB8fj9FoZObMmRgMBoxGo0d2LHWodnJyskc+Q+oVUHY+w8/Pz5EVmRvdc+IzAgMDJZ2xJ1xSWajJyckEBWUdR090l+p3lSrjjNTU1FSCgoJy/Fxw5RL2oJpMJjZs2MCmTZuoUKECcXFxVKhQwaGDyWTCaDQSGBgoyiWVhSrVT3J2bDQaMZvNBAYGitpxfvoMT7icbUFYHHjvvfe4dOkSs2bNyhS8ucrTaDR89NFHpKWlMWjQoCzyFeQMAwYMoF+/ftSuXRuj0ZivPkP0MHspByk8KMXahM/FHLVcWRIp5YRgRypzUCxNPzt5Uh0rXJMfXNn1RQZU6B1bqwyOgdHqhA816HQZMvwCwxxXhUVGiYvTBlKiuPMGYj+KRWZef/EJCSUj7AsjsqTwqYueWn9KRP6deal3bGbXYHDxL5qgEKKCQpw+UVOsRMm//6cz/H/FToXu//el8Y0gynELmmzTooW5JYyb2WzGbDZjMBgy9bHcGHs6P4XPXK8VuISxf/rpp1GpVLz99ttMnz6dmJgYcRKfEKJKhmT6KLSE03hqtAixtFb796qkaz5BcPEohLMTomOaklEopBRl///ZsEWLpG7TAWHlzWQyOYI3IdHDEzuW8xlS5TbkxkTOPxUWnyF1z7nhkrrGW7rL9btzEJZbLr1eT/fu3WndujXr1q1jxowZ1KxZk2effZaIiAgMBgMmk8mtMZbrJ+d7cIWgt5Qde9NnCPfjTS7nMbFarYwZM4a0tDTmzJlDSEhIFl1c5Sl74bwDoT8FH+NpnCG1NzQnMZIykgr+0RBbui4MiI2N5fXXXyc+Pp7jx48XtDqysFgsDB8+HKPRyJw5cySTNBQoyA1sNhshISG8/PLLTJkyhfT0dOLj4/nkk08wmUyiJXoUSOPhw4fEx8ej0WiYM2cOQUFBpKenF7RaCvIRSgCnQEEeoWvXrvTt25dhw4Zx9OjRglZHFHa7nfj4eMxmMwkJCTlYKVagwHMIJwBERETwzjvvMGzYME6dOsXAgQPZtGkTZnNOC938e6FWq0lOTmb8+PGEh4czceJE1Gp1joO3wviDV4FnUFKCFCjIQ8TGxjqCpISEmVStWoVrx5LYe+QSUQ260LjYfT79dDPa8vWIa9sQVdpZvv1yK5d1ZekW1x7/81c5d/UEPx2/QL1WsTxWMQTS/mLlqm9IK1aXV59qSPrFQ/x28hpHTl+lfNtnaBsdzqXDX/Dd/juUaP4U3WIisd45xWdfbEcd2YLnnqqGiozXz6NHj+b+/fssWrRItL6dAgV5iWrVqjF58mR+/PFHPv/8c5KSkujZsyeNGjXK/uJ/ITQaDbdu3WLy5MlUqlSJ/v37uy1DKefy6CDTHjgxyO3rcN6L5HqNFLJrk9JDai9GdvLE2p031+YHV3bXKsg5pPaLiH1Paow9nZ+ecEHGnjitVsvwESOZM2M8B76azsoHTzKx1hkWf7qaVN1j3NvwKWqNBt3d/ey55Uct3Wl+P3YCw7bVjPr+AXEtwlj0ny95f1QPDi+YxN57ZfD7fTHv++todWoOUw9F0abUQyZPMlMqviELvv6FxjWqcWrPbi4Xb8z+aYu4W7kRV7fN5ZMi4+jTuBRjRo/GarUyZ84c0eAtN3bsbZ8h558eRZ/hbv95qntu+t2bXI0bN6Z27docOHCAlStXsmXLFnr27EnVqlUlS4/I9ZO37Tg/fYacvGvXrjFlyhQaNWrEc889lyMuV3nh4eHKCSu5gNFoRKfTERAQAOTOZ+TWJrWCICHjyJVAyDYSe3Cmp6djtVqzVGn3tNK98zmTzsu8QuYQZN3YlxN5Qke5ZqKJcUHGAD18+FA0O8gTLrVazcOHD5X0bS/AZDKR5lTQzGQyOc5QFCs/IDZ3XeenMF4qlcqRASRcJ8gU5qCQji/GJbXp1G6306VLF9LS0nnn7XeoUdzC4KkjaGTZxNKl/6X2yMYEc4qDR47QqHJJNFzDv2JtGlWvxM+b/WjfqhtDhtYn8c2pnNq3nw1ppRkydSQxJ7/jlZnHuNLEn7ZPv8CQTmFo41aTqlITElQcm8qH1u3bUCT5MPN2X+XZempCLQ85sOYwvyctI/3BA2bNnYvNZuP+/ftZMkPzwo7T09NFM+yy45JydnJ2nJ6eLvqQz43PEDYQ57XPkOKy2+0YjcYsvtpVXk65nPvdlctms3nM5Wpb2XFZLBYsFgstW7akRo0afPfdd0ycOJE6derQvXt3oqOjMZlMmco7eWrHJpPJ8Vxzx4494UpPT3d8L6e2Jcbl6+vL+fPnmTJlCk888QRxcXEOW3LmEnikuFQqFZUrV2bjxo3cvXuX0NDQLPwK5HH48GFsNhthYWGkpaVlipHy22f8Y5aF8vO9vbJHQIE3ITx0e/aM45V+b/D1j5dJO38S7MH4+ZQGO5So3ZUmDZvR8clmdKgaxvVfv2H3gd0YNf4EGHwBOzfTUjGpVE6nKajADnqthlIhBniYhk6twr9Edd7o2hAf0232fLuM4/cgsGIQeuwUrf8ER46uxHovlWkzZqDT6ZSNz17Ao+qf8pPLarWSlpZGUFAQffr0Yc6cOeh0Ot577z0WLlzIvXv38PX1/dft0zQYDBw/fpyJEyfSvn17evXqhcVi8XhsypUrR9myZVmzZo2XNX30YbFYSExMpHnz5rlOuvGGbWkFQVqtFj+/rGU+pY4jggyDMxgMouckyh1jBNKF7aS4LBYL/v7+kqm67srLCZe3dAdEdVfgPvR6Pb6+vo7/C4fbO38mwJPxlxtjtVqN1WrNFddTsT05tHYyU4YNoP7ieBq8UZEbJi23zp8mtFQ1Nm1P4vj1IpTUh6PXBePrm8x/9y7kA2MpDpUqT6fGDel8cAPzR8/AL/0YpXq9RdFz2zmVbgabBlO6jZvn9rM16QB1I4uitoBfiWheqxRGsi6MXw6spkaDakybPAXf/z8IfXx80Ol0oq9RvW3HVqsVHx8f0ddiclxSryGy4/L395csP1GYfUZ29+Wur/bUFmw2W75wWSwWx0qTgOLFizN06FDOnj3Ll19+ybvvvkv79u3p0qWLI1NabsUMxPtdo9FgNpvzxWeoVBnFfN3lcr6vP/74g1mzZtGrVy/atGkDkKloubMearVatM2Va/DgwYwcOZIVK1bw0ksvieqgIDMePnzIjBkzKFGiBN27dwcynj8F6TO0rheJXQDiy3lSJRyEwoFi1wjy3H1VIjgTqdch7rzmEWTlF5dgxApyD7Fq12JzUG6MPZ2f3uGyMmTCUkr/eIkhkz5k0pBnOXniLnfrd6VluyfwvV0E45okHpR9nCca1GP/tkNUKKbGpo9iaL9elA7SU/rtsdxbtY7UYv15rW097p15k6iAUuCrov07T1GyRhUibl1k5/FkHnvmeSoVD6LsgL7UqtOSOu27sHjC38Gb3H3lxo7Buz5Dar9TTuxYattFYfYZcsGCu746N7aQX1xy9xUdHU18fDyHDx8mMTGRrVu30qNHD1q0aCG5Gpf3dpy3XAJ+/PFHFi9ezGuvvUbz5s29Zlv+/v6MGTOGhQsX8tZbb9GuXTsqV65cKBKZhEBe7NV9fnC79mFKSgqHDh1i9+7dNGzYkD59+mRqz43PEPtx6k6MpGSh5hPkomoFOYOYcf3zoCG8fCP6lW9EuL+GUTNWs3TpYiKLF89oDq9GrwHV/v9dC8EVS9GyWQ+efOLv4s34RfLS6wMc/w0v34jw//+7UtOqAFRt9QJVW2V8ZjaZGD17Bd1f7cekQnBmrAIF7kCoPl+3bl3q1q3L3r17HYkOcXFx1KtXr6BV9CqEQGD79u0sWbKEYcOG0bhxY0B+NdpdlChRggkTJpCUlMTBgwf59ttvs5zgIBV8yJ3EIawEuiK7lSWBKy0tjRMnTlC7dm0Axx5nd9++ienuHDSJXWc2m9FqtZnafHx8iI6OZsCAAYVurikBXD5BOM4nuzNRFUhDcBqPCoQTG1595RWmTZtGzZo1Xb6hpW7PjrnisNlsjIyPx2KxMHlCQq5kKVBQGNCsWTOaNm3KN998w4cffkh0dDS9evWibNmy2V/8D8HatWtZtWoVEyZMoFatWnnGo9Vqadu2LW3btnXrOpPJlGerdTdu3GDUqFEsW7YM+PuoxPxAenq66CvowopMAZzUUq/cMrBYW3bXZMclBjkud3WX0y8vuGw2GxERESQnJ3Pr1i2KFi0qyqtAHidPniQyMhLIPBaezMHczE9vcVmtVmJjY9FoNMTHxzNjxgzpY7c8gMlkIj4+HpvNxuzZs7OcCZrb+3L+253rFJ/hOVde9O0/hcsZKpWK2NhYWrRowdq1a5kyZQrVqlWjd+/eFClSBI1GI7nRv7D6DGHV59NPP+XLL79kypQpVK9ePdN3vD2fPD3T2Gg0YrfbMRgMmeQKr2s9PQddrVY7smkFCGeNup6DLrzi99aZxsJ9CWfG5lT33PoMsc+d/5a7JtMeOLE9D0LatuvnarXaMViu1wmfSaWYS0FoE+tYm83mSKF15spOnlTHSnEJ+junq3uDy9fXl7Jly7Jr1y6qVasmIUWBFO7du8eff/5Jhw4dgL8PdbZarY7557x3RG6MPZmfecVlt9vp2rUrdrud4cOHM23aNK/84rZarYwcORKbzcaMGTPQaDSiZ00Kdux8bznVXY5b6qErcLmWfcmOS+r1eU58hlhqv7u658RnSPlPT7nk9tqJyfVEd6l+F+a7u8+FvOISk2e32wkMDOTVV1+lQ4cOfPXVVwwdOpS2bdsSGxvrOKze2VaFeZFfPiOnXEJpiOXLl7Nt2zZmzZpFhQoVHCdXOHOJ2YJgx4KueWnHQjKX8Mebz35BtiBTmOtiz365PZqezE9nn+Gu7rmJM1zb3ImRMhXyldoQKlWoTjjoWmyTsFQULhBLcUkd7qrRaEQj4+zkSUXhwv3KcYn98vCUC+C5555j0KBBNGrUqNC9Sy/smD9/PuXKlaN69eoAjrml1Woz1QITIDfGns7PvOASjP6pp55CpVIxatSoXK/EmUwmRo4cCcDs2bMdWXdic1q4VzHbyo0dy/kMT7ikkhgEmYXBZ4jt08kNl1hfCCsOUsVt3dVdrt8Fed7qJzkurVbr2OskBqnD7IUHWlRUFEOGDOHEiRN8+umnDBs2jO7du9OuXbssOmo0Gsem/rz2GYIsKS7nz5cuXcrPP//MrFmzHG8aXHWRswVh/uWXHefFsx/ItAdNuB8pLqkVOCnds7NjtVqd73GGWCApx6UcZl8AsNvtFC9enCFDhjBz5kw2btyonPuXA9y+fZv333+fO3fuMHDgwIJWx+twNt6uXbvy5ptvMmLECH799VeP5Akrb3a7nenTp2cqBqpAwaOOypUrM3HiRPr27cvmzZsZPnw4+/btK2i1JCE89BctWsSJEyeYMmUKkZGRjpU3xW4VyEFJYshnNGnSBF9fX1auXMn3339PlSpV8m3TZH5mceaWy263c/36dU6fPk2ZMmWYNGkSgYGBXtSwcKJz587YbDZGjRpFQkKCY8UxJxBW3lQqFTNnzvzXFTxVoEBAo0aNqF+/Pjt37mTNmjVs2rSJ3r17U61aNXQ6XaH48SysBM6bN487d+4wZcoUDAZDpletChTIQQngCgBCOvy+ffv4/vvv3a6Jl10tJam29PR0yYKS3uSy2WyYTCbJgpI54dJoNERGRvL0009TpkyZLN99lNG1a1dsNhtDhw4lISEhR3viLBYLI0aMQKVSZVp5U6Dg3wir1YpWq6Vdu3a0adOGL774gpkzZ1K5cmVeeOEFSpQoUaD6CfutEhISMJvNjB8/XrQgvgIFclACuAJEkyZNKF++PMWFGmAKRCFsAP43BSXdunXDZDIxevRopk+fLrsnTlh5U6vVJCQk/Kv6SYECKQjJMmq12nGKwZo1a4iPj6dp06b06NGjwM4CTUtLY/r06fj6+jJ69OhHqjySgvyDkoWaT1moYlw2m43U1FTHMTKu8qQ2qwop1+5stLXZbKSkpBAcHJxFR09SrqW4VCoVZrPZcaahu1xSuou9jn0UslDFoFarSUtLIy4uDj8/P4YPH87UqVMdhS2d4bzyNm3aNEcWlxiXnB0rWajyuitZqIUzC1Wqn8T6JyIigoEDB3LmzBk++eQT4uPjadOmDV27dkWv1+d5FqrwxuLu3btMnjyZYsWK8c477zjuP6dchSELNa+e/UKimCBTmBNSXN7OQnVud0f3gspCzfQUdWfPkqCwmOLehjNHfuzhys99Yvn5CzC/xkrhyj2X1Wrl4cOHdO7cmddff51Ro0bx22+/ZfqeyWRi+PDhjpU3vV6PyWRymyu/bOtR5XLlyw+u/OJ4lGxL+JFSrlw5xo8fz6BBg/jvf//LsGHD2LJlC2q1GoPB4LXEAddnpFqt5tatW4waNYoyZcowfPhwh17e5spLPOpc+QVvcGVbRkSYeO6kEgt7nORe5UhxZZemn10Kck50FzrO3ZIA3uay2+2O1HkxPaRW4KT6Sa7fhc+9pbscl6Cfp1xiugsyXSE1Vp7q7ixX6rP84hJkdevWDZ1OR3x8PFOmTKF27dqOlTe1Ws306dMdv1zFUuAFHfPTjr3N5a4tyHF5ontB+Qyxa/LLjkG6jIi3uYT9r+48F+T6SYBYm9FoxGq1EhMTw4wZM0hKSiIxMZGkpCR69+4tuuc0t3asVqu5cOECY8eO5YknnuDVV1+VvM5TW5AqI1KY7FiOS/g8U5kMmTIics8FT+3Ymc8d3XPjM6R+MOTEFnK1B06r1osepyE16FJKOeRJ1CIC8NH6ibZ7Ik+lEq+x5MwlNWm9yaVSqXh4P5WiRcUH110uuX5Xq9X4aP3ckienuxyXVqtFp8mfo0/+LejUqRM2m41x48YxatQoNmzYgFarZdq0aQH7XskAACAASURBVLJzWYECBVnhvAWiVatWNGvWjPXr17No0SJKlSpF7969iY6O9gqXv78/Z8+eZfjw4XTp0sVxGLqwFUaBAk+RK89/9u5Rzp46ho8+c2DgvGTsCiEqlc5CVAFZ20wmk2gh0uzkiWc82rHZ7NJcRiM6vV7yF5+3uOx2O3fv3uGUKcxtLil5cv1uNpnQi5wp56nuUlxGcxpRwdHU8W+SpU2B5+jSpQt6vZ4RI0bQokULJk+erDwAFCjwAnQ6Hd27d6dNmzasX7+eyZMnU7duXeLi4ihSpEimPWbuwNfXl4MHDzJt2jR69uxJXFwckH/bdBQ82shVAHf5/klSrUaC9ZFY7ZbsL8gFdPr8q2Gm0wfmG1eJyBCv7IHICfSGvO9DjUpDsimVC/dOUAclgPM22rVrx9q1a3nhhReU4E2BAi/CbrcTHBzMiy++SOvWrVmzZg3Dhw+ndevWxMbG4u/v77bMQ4cOMXnyZPr160enTp3yQGsF/2bk+hVq8eAylAwtj8VW8IURFRQ8NGotOq2Bu8mXClqVRxZCAVB3oLxmVaAgewivNSMjIxk2bBinT5/m448/5qeffqJ9+/Z06dIlx7IOHDjA7Nmzeeutt2jVqlUeaq3g34pMZUTESmdIlX3QarXYbHasNisWm1kJ4BQAYMeO1WbBZsuYR66HMWdXRkQMzmn4zlCpVFgsFkd2mVhpD7vdnuXVsOt3nSHoIMXlnNKeV1xCKRDnMgQCMuzO5uhX5/51yANUmDj+yyHO/XUPlVqDXueD2pZOuiWjLyvWaULFEsGOEgbCfkdnXTzRXdBJbIwFLqHdHS65kjpi/e7M5aqnJ7rLjbEgU5iHrp97yiUGoc3VrjzVXarfnee7O8+FvOISkyfXT3J27DxWcnasUqmoUKECU6dOZd++fSQmJrJz50569OhBkyZNHDzOc0zok6SkJFatWsWgQYNo2rRpFl1z4zPEbEHwGWLPcW/bscAl/PEWF2QtIyLIlDvM3lt2LPhbYb65o7unPkOqhJgcl7O8TD/LxfZBCYqJOc+Mryrv8hVkhTCNxIxfarJL7akT2sXa1Gq1Y946tzvLk8rykdujKcUlGE9ecgn3I3Zfzt9xvfZveRrU2Lh89gS/n7uFOeU2O3Z9gSmqPW2rlibQoCawXF2qlAzLdD/i+yA96ydpn+EZl1Q/CDxyWdyuXJ7ont0YS41VbrlckZO+cFd3Of2c52FBc4kFcNnttZaagzn1GUJ2bJMmTWjUqBFbt27ls88+49tvv6VPnz5UqVIFjUaTqZrAtm3bSExMZMSIEVStWpWUlBT8/f295jPExt/VZ+SlHecVlxD4+fv7Z0qOdN6jLTYHvG3HchmlecEltf89J/4uUxkRT5yxAgViEAswhP97O4CTekjnZQCXH1xSTsvZVkUDOBWAP+3jXqXh6T/Zl7SRh82fpmjNx6gRFkTpmJZUjQzIJEvKxj3VXUqep1yeBHByc81d3bMb47zicoXzKo+3dJfSryCCRXfG2NMAzhOfIQQRHTt25IknnmDTpk1MmjSJOnXqEBcXR+nSpQHYsGEDmzdvZuzYsZQuXZq0tDRRO87PMclOnlRbXtixVJter2fXrl3MnDmTnj17kpaWxvLly9mwYQPTpk0jNDRUtJ/+yQGc3LzOjkt0BU6BAgWPCFJO8vnKb7hypyiNn32F19N+5kxAC2rf+44Plo8lonkvXm/WUHEAChTkEMJqnL+/Pz169KB169Z89tlnTJw4kbZt22I0Gjl69CjvvvuucjyiB6hbty6XL1/mpZdeQqPRsGLFCvr27Ut0dPS/7ijFnELx3woUPIrQhxFTsxFlfINRXfuN32/cxqjdyZ9FS/Niz9dJ0QUg/ttZgQIFOUFoaCgDBgzg0qVL9O/fn+PHjzN69GglePMAFouF4OBgxowZQ8+ePbFarQQHBzN69GjH3jQlgMsKxYcrUPAoQh9BjfIqJnzwATv3/MDxE+e48MfPJCUu57Otx6lWppRi/AoUeAHr16+nRo0aLF++nBs3bvDGG2+QlJQEZNSBU7Ya5RwdO3Z0JIi8+uqrREdHYzQaC1irwotMe+DEIPeeW5mYCqTg7nyS2tchXCOWkSO0ubNBVLhGCnJtUht285NLrs1VXurDVAKrNKJr+/pgtaLWqEm/coJjt4wkAyFuynOnTc5nSO3tkJMnN5/k+skTLrn5mZ9cUjye2pYnY1xYuOTsTuoaKXjLjq1WK++//z537txh6tSp+Pn50bx5c/bs2cPatWvZunUrPXv2pG7durnmcm7LrV/IqTy50kOBgYGS8qT4cnK6UEBAACNGjGDSpEm8/fbbAJL19+Tuy9NTmIKDg0U/l9M9Nz4jt+OlFQSZzWaSk5OzCJRKW9aotRiNRnz8fCXJFPw7oVKpMJlMpD1Mz1LgWWo+2e12yWVyIV1crM1sNmM2Zy1hI8iT2pAsJU+uzWQyiabJ54YLxA02PT0dlUqVpVyETqfDZDLx8OFD0tLSMpUmcOZSqbUY09K58sN3LDl/GOxWVBot5rvXCKzSnvYPTaTaTdiAtLQ0tFotJpMpx7rLlfaQa0tNTcVisWRxornhknKSqamponPKEy65MYaMPoSsY+lJP8nZgt1uJy0tzSN5Uhum5ezOm1xy/W6xWDCZTKJ9KzXGufEZYqUicqq7wWAgOTmZCRMmYDKZmDx5Mmq1mpSUFNRqNc2aNaN27dps2rSJWbNmUblyZWJjY4mJicFsNmMymfLVZ0jJE042On36NIcOHeLSpUuZfKn0CT0Z58mKnbuck8QSMXlCX0CGLYWHh/PRRx9htVoxGo3odDrJxAIpeVK6O3O5Ij09HYPBkOk6X19fKlSoQIMGDYiKiiI9PT3TMyA3PkNMR3f8ncOLqtVqyXNNxYSpVRrUyjtpBRJQq9VodRrU9qwlAbwZwAnX6nQ6UXneDOCE4M2bXCDujIX6QK5cwoHVWq02y9FymQI4lQbKNOHzlR0oG+Rs13Ye3L2OWqdGa9dhJ+OBptVqs3DJ6S41jtm1CTzuBHDZcUk5SIHLnQAuu/kpxaXRaEQfMp70U3YBnMDlDd2zszuTyeQ1Lrl+V6ky6rNJcXkzgBMe/O7asc1mw8fHh5SUFEaPHk1ISAhTp07FYDA4ggzIsCd/f3969epF69atSUxMZM6cOVSrVo2ePXtSqlQpTCaTo35YXvsMMXlqtZr09HQ++eQT9u/fT8OGDYmJiRHtfzGoVHl3qo9Go6FDhw6kpqbmOZcrxLjS0tI4evQoiYmJPP/887Rt2zZTAJdbn+Ha5o6/0wpEarUag8g5mXK/cHUuhT8VKACnh4w+qzOQm09Wq1XS4cqliwOSc1dKnpzjd5YrJjM/uIRfkGJcwiqAmKN2lqfXRyC8fHDu96BQYZN1RhBlsVjQ6XRZfsB5qrvcGJvNZgwGQ5YALjsuqV/TUv0OGSumPj4+WXT0VHc5LqPRiI+Pj+jD2NtcJpPJbV/t6fwUxiuvuYTTRdyxLbk2uX4XHo7u2rFKpeLevXuMHz+esmXLEh8f7+ASm2cAYWFh9O/fn2effZYVK1bw3nvv8cQTT9C7d2/RBROBy1NbELsvKXnTpk1DpVKxYMECwsLCRHVRkIFnnnmGEydOMH/+fFJSUujZs6ejLbc+wxXZ+YxMgXh2igsPT6k2BQrcgdR8ym6eudsmfP6ocTm35zVXXuj+T+WSG+O84nLnGk91fxS48kN3lUrFjRs3GDNmDJUrV3YEb9lxCdsdQkNDGTJkCO+88w6nTp3izTffZNOmTZLbP/K6n1auXInFYmHMmDFK8JZDVK5cmffee4+kpCT279/v+LwgfYaSiKZAgQIFChTI4MqVK4wbN47HH3+cAQMGeCynatWqTJo0iZdffpkdO3YwYsQI9u3b50VNs8ft27f5/vvv6du3r+QGewXiKFKkCF26dGH9+vWiwXd+419XB06ZsNlDWVlVoECBggxcvHiRKVOm0L59e2JjY70is1GjRjRs2JCkpCRWr17N1q1biYuLIyYmBrVanWmPlbdx8OBBypYt6zg9QoF7aN68OTt27ODatWuUKlWqQHXJdJi92NKd1ERSq9XY7fBPCYfUGjU6nc5x+LkCcWg0GrRaLWaTOVdORJhGrjKkZAr7NMTahU24rsG3SqXKdKCx89wV5IntFxF4pLgE2QXJJcjPsmT+/30RwmfOcqXkuX5PjEvsYGhPdM8rLqkfXlL97syV4asyc7mru9wYC+3Cd8TkecIl1i7F46nuUv0uN98LgktMXnY+Q5DtyuXMI2fHarWaU6dOMXPmTGJjY2nfvr1sX7jLBfDkk0/StGlTEhMTSUhIoHr16vTu3ZuoqKhMsl37whVyXM79rlaruXr1KkFBQVlkKMgZgoKCsFgs3L17l1KlSuXKZ4iNZ3Y+w1me1rXRvQDOTmEP4ex2Oz4+PpjMRnZu3skfvx7n1l83MbukWivIyMqKKB5B9TrVaNqyKXqDHmO60aNVS7EAQ+z/zt/3NIAT2p2vzasALj+4hF/gzkGIcFC2cJ3wb7Va7Sgb4EmwIHA531tudJfjcu5Dd7k8CeDkuNzVPTtnLPC464zluKQCuOzGxB3dcxJUufNcyCsubwZw2dmxWq1Go9Hwyy+/sHDhQp577jmefPJJTCaTZMKRJ1xWqxWbzYZer6d37960a9eO1atXM378eOrXr0/Pnj0JCwtzfNe5L1zhvGonZ1uCv1DeROUOrmMi9Z288BmiAZxKpZLMlpAqVKdWq4DC/brNYDBw69YtVi/9FHuanc4dO1OrVi3R7I9/O9LT0jny6xG+2/QdRw8f5fl+zxMaFpqlPlhOkDE3xAsqis0nIUAT+77gkMTmp1ardWQBOcsU5DkHPs7ybDabKJfw3YLmEmQJXPfv3+fbb7+lRYsWhISEYLfbWbt2LdHR0dSpUydbeSBtx8Kqq1i5DU90zwsuqbR6QaZUmr4Ylye6y42xIEso8eItLrG+EOxAqhipu7rL9bsgz1v9JMel1Woxm82SXGLy5PopO9sSghlXOxbu98CBAyxevJjXX3+dxo0bO76fWzt21d35viIiIhgyZAjnzp1jzZo1jBw5ko4dO9KlSxcHr5wtCPMvO9vSarXK6QZegHN/euoztFqtaOAvtIvBWd4jvQdOo9GQlpbG0tnLaFy3MX1f7VvQKhV6lIgqQYeOHVi6ZClL5y5jyJjBaLQabNa825OhIHtotVo++ugjJkyYgEajYdeuXZw4cYItW7YUtGoKFDwSEB62W7ZsYdWqVQwbNox69erlux7lypVj1KhR/Prrr6xZs4Zt27bRo0cPWrVq5Qg+FSiARzyAM/gYWLF0BVXKVVGCNzfx2uuvcXvqbdasWEPfAX1JfZha0Cr9q+Hv78+7775Lq1atHJ+99tprNG7cuAC1UqDg0UJiYiJffPEF48aNo2bNmgWig/DGoVatWtSqVYu9e/eyatUqduzYQWxsLI899liB6KWg8OGRLSOi0+m4fOEyf527Rq9nexW0Ov9IPNfrOS6fucKVS1fR6R7pWP8fgZYtWzqy4IoUKUL//v0LWCMFCh4drFy5ktWrVzNlypQCC94EOO9ha9asGR9++CGPPfYYH3/8Me+//z7nzp0rQO0UFBY8ugGcXsfpU2coUaQEJUuVLGh1/pEoU7YMRUKLcPb0GbQ5PGJFQd5i8ODB+Pn50a1bN2rXrl3Q6ihQ8Ehg2bJlbNy4kVmzZlGxYsWCVicL1Go1sbGxJCQkEBkZydSpU5k7dy63b98uaNUUFCAylRERywCyWq2iqdMZ7+LtaDSFM5tFpVKRkpyCTid+XImCnEGn0ZGSnCK5gVwKNlvGfHEt2SI1n4SsHqnMG7HadCqVypHJ5fod5ywhqc3UYlxSJWbym0u4xjWBo1GjRsTGxmY5ykVOntAm1u8Ch3BvYtlr7uieUy6NRuMWl5CRK6WHVAag2LWe6C43xs76i/lPT7nkSg+IyfVEd6l+l5vvBcElJk+un7KzLef2RYsWcfjwYebNm0fx4sVFszRzY8fe9Bl+fn688sortGvXjsTERAYNGkSHDh3o1q0bgYGBpKamytqxsofOe3D2u576DLH5m53PcJaXq/diSiayAink99yQesD/E7mcS4QIgXNaWho7duzgp59+omTJkmzdupWTJ0/SoUMHypYt67jO4mZ5HKWcgAI55Of8yE8u4RzS2bNnc+HCBWbMmEF4eDhGo1Ey+y838JbPEALdqKgoBg8ezIkTJ1i9ejXDhw+nTZs2dOrUyeEzlHqnjz4ylRERW2URUqulDgUu7GVEFBQMpFKhpeaT4NzEnKfg/KTS9IWDhJ3bneWJ/eKXK5sjpYfwWX5wBQQEYLVaOXPmDFu3buXIkSMUL16cJ598kiZNmnD27Fl27drFtGnTCA8Pp2PHjtSuXRt/f38RBnk7FkoPiJXA8ET3vOCS809SafpSXJ7oLjfGApfUPeeGS+oab+ku1+/OJTAKmkuqjIhwrRTE2gwGA0ajkZkzZ3L//n2mTJmCv7+/g8ebdizcjzd9hvP3K1euzKRJkzh06BCrVq3ihx9+oHv37jRp0iSTv3KW5+7bFAXiEPpT8DGe+AypNmf5rjL/NWVEFCj4J8JqtbJ9+3b27t3LvXv3qFKlCiNGjKBChQqO71SrVo1q1apx9+5dvv/+e77++msSExOpXbs2bdu2pUSJEgV4BwoUFF6YzWYmT55MYGAgEyZMeCQCmvr161OjRg22b9/OV199xbfffsuLL75ItWrVspxEouDRgRLAKVBQgHB+eFy9etXxmjQoKIgmTZrQqlUrAgICJK8PDQ3lqaee4qmnnuLgwYPs3r2bd999l9KlS9OxY0diYmLQ6/VotVpl74uCfz3MZjOTJk0iKCiI4cOHP1JbCGw2G507d6ZDhw58+eWXzJw5k0qVKvHKK69QtGjRglbPazClPMCm88PHoIQvSg8oUFBAEDbyf//99+zatYtr165Rvnx5Bg8eTMWKFd3ei/PYY4/x2GOPcfPmTXbt2sWKFStQq9U0aNCANm3aEBERkUd3okBB4ce9e/eYPn06ERERDB48+JEK3iAjgEtNTcXPz49evXrRtm1bvvrqK0aOHEnTpk155plnCAkJyZM9fvmJHyYP5nydQbwSV7egVSlwKAGcAgUFgOvXr7N7925++OEH9Ho99evXZ+DAgYSHh+dadpEiRYiLiyMuLo7vv/+ePXv2sGfPHipWrEiHDh2oXLnyP96JK1DgDm7cuMHEiROpVasW/fr1Iz09XfL4sH8ynIPS8PBw3njjDdq2bcvnn3/OyJEjiY2NJSXF/aoC3oTVfIuvPhxN0m92qvUcyqDWVTi/6WOmfv1filTpxrtvd+LoT9+yfs/33DxxneqdhjKwe01+3TCH+QcuYz90nma1Hq3g21NkKiMipMM6w2KxiG7Qy3glU3jLiCgoWAhlRFyzIqXmk3PKdVZZNsmyFBaLJVMJAld5wnl0rvKkXicKOkhxiR3ILcfl+tnBgwcdx2CVLl2al19+2fGaMy/QvHlzmjdvzpUrV9i+fTtz5swhLCyMxx9/nNatWxMQEOAoLeBq/570E0iPsVAuQmh3h0tqg7vFYhHtd2cuVz090V1ujAWZwjx0/dxTLjEIbWLZxp7oLtXvzvPdnedCXnFJ2ZZUPwmfazQaLl68yPjx42nevDmvvPIK6enpGI1G9Hp9nvsMZ9/kLS4xW1Cr1Q55rn0YHR3NmDFjOHr0KOvWreObb74p0CLgJ3/aTGJKS+aPrcXxE3c4/9tO/rPqLEOmjGXbosl8taMKPr9s5vDNukx9uRKjt26jSflLfP7jcV58fgg/PBjOHUOBqe+AYIO58RliJWuy8xnO8pQsVAV5AiUL9e8+uHHjBvv372fXrl3Y7Xbq1avHCy+8kK+JBlFRUfTp04cXXniBpKQk9u3bx+bNm4mJiaFp06bExMQ47km4HyULNfPnwjVKFuo/IwtVq9Xy559/Mm7cOLp160bv3r0dbfnlM/IqC1XKtsTGRAg0YmJiiImJwWazFehh9qVjnqDZTx8wbeZ+nh78HkHXN/HFyT9Imzebu2fTaFzrOupidWhYrQs1m92k7Ln/cv7XY5Txr02LGjUo1rwCh/wKTn8BhS4LVUyQMJnE20R5FShwzA0p5yT2udTDT/iu+/NTmkvuGk+5XPU/evQoe/bs4dixY4SFhdG9e3fq1KmDn5/f/9g77/ioqrSPf+/0SSehhFBCJ4EAoST0Ji0IKs0C9rb2XcuqrGUBRbGtfVd91VVRkRUUEIFQBUIH6dI7IZRQQpLJ9LnvH3DHyeTeSSaZFOD+Ph+X7D1zzu+55zzPc8899zzPkb3PqoBWq2XQoEEMGjSIgwcPsmjRIj799FPi4+Pp2bMn/fv3R3/51A1pj16o+6k8YxLKslDLXplccgi1fFXZ75XF5Q+dTsfWrVv55z//yV133cWYMWMqVXbffyt6X6HuJ41GU2xFr3nz5ly4cKFE/aqCzWGj6+iHGWXdw7yfP0DTK43eXVN5+O8PcXLzejSNEziyaytCmAcsVmw2D3HNG7L9xCkKEdm1P4fcNtUfOew77tXlM66+TQAqriy4bZzNPUuB1YnH40Gr1aIzxVCvbgz66rfRMkPaT5Ofn8/69evJzMzEZrPRoUMHnnvuOW+y3ZqE5s2b88gjj2C321myZAnLly9n5syZpKenM2TIEBo1anRV7hNScfVj7dq1vPHGGzzyyCMMHTq0usWpUXA4HNXK7yw8wvcfTkXriqLd0AdI7dCIO1Ys550338R6oRZPvtyLCKMRk1YAjQ4T0LjHjbTbN4H7HnyKcINI/77V9xJck6B653LDzanth9AlNqF2dNnPCbWfOcmpswKN2sQHfxCt9Syr9+fRLrkFUVfJ0aRH5//Em58swpgUB5dXe84eieaR9/9O98bySWlrGgRBYO/evSxevJjdu3cTHR3N8OHD6dSpE9HR0dUtXqkwGo0MGzaMYcOGsXfvXhYsWMDrr79O3bp16d27NwMGDFBcDVKhoqYhKyuLDz/8kKeeeop+/fpVtzgq/BDfYjBT/tGMEwUCDVo0J0IDA56bROKB44TVSSQh1kRK43G4dUbQ1WbK3UmEmc00fXACHY5fJK5+baLNpuq+jRoBdQIXBDyFeZy4UEhYvfrEac8y+5/vYXrwae4c1gLfr9UXTmbjMMVQr1YENutF9OZotKITe1ERexf9xPRMkb99/QT1dE5OZp8mvHY8USYdbgc4bGc4bxGIj6+DVgCs58k+W0RUQgJRuDifX4ioA5wFnDhTQO2EBIwCuO0eLJaTWJxh1K9Xq5p6KHg4C+3gNhMbGwseD4JGoPCIC2eQR0JVBywWC1u3biUzM5Nz587RokULHn/8cZKTk6tbtHKjdevWtG7dmvz8fBYsWMD8+fOZM2cO3bp1Y9CgQd58Uv6fZVSoqAlYsmQJU6dO5R//+AedOqlpJmoqIuq3oLXvFmBtGC1at/b+X6PZfPkvDZHmy9MUQy1aNL9ynm1VgVIncKXtxbhWUJizmW+m/IftLjgTmcZr97Zkw6EN2H/bwi3DWnBpQdfF9rWf8+//20ihy8Ttf3+FmGP/R0HiA6RH/s6CnfmI+9ezfLuH4SfHsfX3D/nhl2yISOKfLz/GoS//zYwD28g/d5TEG17i5TEd+Oaz19hyyEKdhJsZ/1ATNu7NITUlhukfT2TFrkJi2tzGq08PZNZTr7LReIoz+w8y4JmpPD6wVTX3mDz89UmnFXA57Jc21XpEBI2AwwFavb5YnbK253+9PPuLlGAyXXrry87OZunSpWzcuBG9Xs+gQYPo2rVrSFKA1BRERUVx6623MmbMGHbs2MGCBQt44YUXaNmyJX379qVbt24BN1mXd/9WqNorjUsJ5dGnyuIKpk55Zb8auCTMnz+fWbNm8eKLL9K6deuA+zerymfUxH66lp7blQn/PXBy5ZXtM3TSRafTycWLF0sMtBQi69+oTqPHZrdjDjNzLUAQNLQeez83t67Ddw98xgldBjcPuBXDbX1wnj9Njg3ChRP876Of6P/i1zRZ9yGf/zidD55/mPlfvsv7p5K5c+LtxJh0WIVImhb9xj9/PsYzU15j3btP8nPWChqcPU7Dni8wfvBBbv2/Yxw/aGGFLoUpk27AsduOYD9F9sUi/lj4BQf0XZg69V7ef+4xft1Qmwvnz3Ld+C9IL/yEp9fuqNYJnKRPlkIrbo+zWJnb7fbqk9teSF5sFI07xZBbYMGs1+B0uYhNao7jbA4nw2oTrtd4U4hI9XyjJJ1OJ06nUzbNiC+XL0RR9O63k9qRnL0Uwi3V0+v1GI1GLly4wObNm1m+fDkXLlygWbNm3HfffVf9W75WqyU1NZXU1FRyc3NZsmQJM2bM4IcffiAtLY1evXrRsGFDAKxWqzd0XorK8h0TQRAoKirC6XTKRif7jokvPB6PorNT4gIoKirylvu3B/JnQvrqjK+uSWVSBJgcl1JKiFByiaKI1Wot0ZZ/e2Xl8u13fy6Px4PNZisXl79tlcbldru9e7OCsWOAyMhIfvzxR5YsWcKzzz5LkyZNuHjxoiyXIAg4HA5v2hI5LqXov7L6DF8uu90umx4lkL6XxuU7MfDlslqtaDQarz+Ua89sNmOxWNRJXAiQn59PUVERdru92nyGDi4NsE6nkz0IWzGnEwJ6ne6aOWNNtNtYMe0bfnLDiaMuupj12D0aTO6LzP7+K1ZudTJ8RD90+2DBv6cQpXXRrGNDIqJqoa+Xx4WLLlqYIdvhRNQ4sVzUIK47zkevT8ZEBN3qRaIR2tG2STz6KCvhpgLi2o1g/Jm3ePOfL9K+xz3c0SIGk9lN3vF8Wkeno9OF06uLyMb880RF9SKpkQlTTgvCw6p3f4AU6mwyGRApvlnPV5/yjq3iq7mrCIsIQ5t/eYVT2wAAIABJREFUmi1nnLRp0pQY4ynmTP8O20NPM6hxmNfRBkojYjYXf5GQJhJyYdpSniW5DfqSgUiRmDk5OaxYsYL169fjdDrp168fvXv3Jj4+vqLddMWhTp06jB07lpEjR7JlyxbmzZvH8uXLadOmDb179yYtLQ24dFwRyL9Jut1ujEajt38llDYmgqCcB04pFN/tdmM2m0vojW+OMLn2AuV0UuJyuVyYzeYS9SrCJdcXUplcJHN5ZC+t3z0eT5VwSTrjb8cSl1K6Da1Wy/fff8+aNWuYPHky8fHxuFwu72q5UmoPabxCIXugMRYEAY/HE1IuJVuQXnKle5drT6vVYjQaFSfmKsoOs9mM0WhUTN9SFp8RFhZWoqw0nyGbRkQQBFmFkZRFToCr4RDgsmL/7G+w047JkwYx5d4pXCxy4rae5egFLXc/MYW7ASxHOLiyJUPvfYkuJ1ew0x7LwTWryD43kB5tLzJ3y1FS9XDh9Dm0MU2oM6YbN//1KSzLfkIIi+SI1YrH6QGXFatLw6n9Szhl6MZrr49m1uNLONI2iaJCDfHtGzNzzSb27m3MjKUmuj8YzwlLNi6PiNNuochW/eOi0WjQ6uQdmqRPtVOu54PxkWQe8pDRsxd/e+Fv2EUtWq2OLjfewdBmUQDFVuD8Ib1dyuluoHxZSm+/Op0Ol8vFrl27+OWXXzh06BBNmjThtttuo1u3buXpiqsOJpOJ7t270717d3JycliwYAHffvst06ZNY8iQIXTv3l0xeEOn06HX60uMV6Ax8X3j9If0EA/EJZf01Pdf//YC+TslLq1Wi16vL1GvsrjK46uDtQWpTlVwwaVJnBKXUp3PP/+cXbt2MWnSJO9RcTqdLmC/SyscofIZgbikM4hDyaVkC9J9l2ZbamR5aKDX6719WhGfIVfH919f+NtCqSMpPTyv9SXXtrfcj/HVd3nh4zy63JhEg4go3L0jmLVxHXkZzYkBCG/CHQ8N5Z03X2CeEMM9jzzEyf1LGDz6UVrXOsx/luyhWYtGuD0/ccw4mtuv38H7/3gOTXwyLw1titDhGO46BtDHkdZKpH6jhuz4+l88952VPnf8nZSkMFL2uWl73fXYsl9h8uS3aDvkCW5MS2F+x1yijQJhtRqS3rLmftb21afcI2v58rN/s/p8Iqf37WDb3mwa1Q+jwCNwaOta9rVJoFUtg+znUf/2lK4rZXCXq3Px4kWWLl3KunXrKCoqomvXrowdO5bExMTQ3PxViISEBO6//37y8/PZvHkzixcv5pdffiElJYV+/frRpk2bYr8vbbzk4PuZSKleoDKl9pS4AulMIF+oVK+8XEp1Qin7lcrl8Xh4//33OX78OJMmTSIqKiro9pSuV4bsoeYKVt/9P6mqqDh8twZUl89Qp+JlhCGhC69+Mq34xTtfJM3vd/EtbuSdz2/880LHpMt/NOfRG5oD0PaTnpcuJT7GF73+/GnjB2+4/FcUz9966a9xb37MOJ/2/z720mQi4/43ybj/z+sjnr/p0h+1ejO+ZsYvlIDdcoGUm6cwPtnAJ//3Azf17o9eq0EEPDonBc7KczS+b6GHDx9m7ty57Nmzh1q1ajF48GCuu+66a2qFuaKIioqiX79+9OvXjwMHDvDrr7/y73//m5iYGIYMGUJaWhpms7nE5x0VKoKF2+1m8uTJFBQUyE7eVKi4VqBO4FRUGxq2vZ6Gl/9+5G9/rzJejUaDxWIhKyuLrKwscnNzSU9P55lnnqF58+ZVJsfVihYtWvDkk09y/vx5NmzYwNy5c5k+fTrp6emkpaXRtm3b6hZRxRUKq9XKSy+9hMFgYMqUKbKfoFSouFZQ7DB7pagcuaVZ7zE7XNufVlXIQ9IX/8OmlfQp0MZtOb0EvFFZUrncYdFQfLXtyJEjZGZmsnPnTqKjo735zdSVodAjNjaWjIwMMjIy2L59O0uXLuWjjz6ifv36DBo0iM6dO2M0XjqVWorUUwpGkIviksqg5CclafO4XF2lA9ClskD6Kcclya/kP8vLpfSZTLqvUMguyS3Xf1J7wTwXKotLp9ORl5fH888/T1xcHK+88go6nQ673R4wsMAfkl6U5jPKKnt1cMnZgm9eRv8+9G1Pq9Wq+RtDBGn8KuIz5Oy8NJ/h214xzQ/227j6KV2FEqpCN/z3IPhCCsrRarU4nU5WrVrFypUrOXbsGB06dOCxxx67ohPuXmlo37497du358yZM6xZs4bp06czffp0unbtSr9+/WjQoAG6y1HtoXjA+OpEVez5KW2vS6i5qooj0H6squIyGo2cO3eO8ePH06xZM8aPH48gCN5D2oPl8v2vMlFTudQ9cKFBRfsxFONQLApVKSJGLkQWQKMRAFUZVJTEJd0oGQqtpE+SMiuF4ouichoRKZWIP3JycsjMzGT9+vXExMSQnp7Os88+W62HyV/rqFu3LiNGjGDEiBFs2rSJJUuW8Morr5CQkMBNN91Eu3btFHVAKQpZKUxf0o1AUWBy7ZWmn4G4lPZNlpdLro7SPZVHdimiUamPAkVKhpLL4/Eocp04cYKJEyfSsWNHHn30Ue916bdKsiuVSatQoeynQFxyulsRLiVbkPTPv55/e3q9XjGXoIqyQRAE7+d7qd/L6zOUXvoC2b8axKCiclGFX9b9DWDTlm1s3rSBQwcP0qJFC8aP/wdNm9a8w+RLg6voHIU2J8fOO0lu0YirbbdPly5d6NKlC8eOHSMrK4svv/wSo9FIr9696d27F3Gxl062kEvSq+LaQHZ2NhMnTqRv377ceeed1S3OVYH4+Hiys7OrW4wrFvn5+eh0uhpxzrU6gVMRUgiCgNFkxOg2VgmfwWBAEAQKCwuZvyCTLVvWs33xQg6dL2LIDcM5e/YsM2f+iNCwK0/c1pfC3Qt5+7+L8WgNmPRQZHNgMJtwWW3EJ13PXx+4jrO/L+S/c9bi0klvVCKeuh14+J6biDcJ5OYew6ptgHXLe3y+MBecTkSthvA6iTzy5BPkr/mIaSsvXDrLVoLoJixpII/f0huTwuTWZbdgsf35Wejomu/Yq23P+cNb2XzuZm5PawCOQorsDrbv+YOiqJb0aVEfs96D1enGHOSGbv9PfmcOHEVbqzFxceWdfTvZuu8kKa0aF3csztNsPnCedsnJ6HFzaM8maNyVZpcXQhs3bsztt9/OuHHjyMrKYvHixSxauJAWrVpyw7DhNG/eXI0IvgZx4MAB3nrrLYYNG8bIkSOrW5yrBmlpacycOZNjx47RuHHj6hbnisPKlSsxm801Ipm7OoFTERIIgoDRaMRgMLJx0wG2bfqd9L8NITIyslJ5N23axKJFizh69CiNEpsw7tab6BhlZEk2REVpyM/PB/I5fDiMvBG9iKnflpvHxeM5v5/vvnibfUJLbujRn9Q+PYgNi0GLm/3bt/D7zhxatZbONrWxf/0fXBhzPWG5f/DfqT9yXt+G24b0ZdTAbcxfUsCAkd2IMEUQrXGxacsKDp5tSuPoMAS3DY+gR+/IZslv27h7VG9MfvOs7Wt/YKmhJzfkzuL9RccwCuB2Oji+Zw1nTEm0q6vjzF4bnZKeR7vmPb5cnMvmXTtxxyXRrWEMrTs3JTa5H6PalT1/zPrFP7LE3o4nuxrI2rALh9vB9uUb0dVtTZs2cWjN0XTu1pP4yNJchIuju1ax82A+btdJ5iw/Svcu6dSN1hEVn0iPzkls+2oqX227wODbbmZQxwQWfvQtRb1zaBNfn27dulHrcvyIIAj06dOHNmYDn844Td3EIj54913CIiPp06cPffv2rXR9UlEzsG/fPt5++21uvfVWBg4cWN3iXFWIi4ujT58+fPnll0ycOPGaz/EaDHJzc5k7dy733ntvjYiAVidwKioMQSNgNps5uO8Qs6fPYsZ3M2mTnIz+7yUVXCkLuNJJIFAyI7UoiqxYsYJVq1Zht9tJSUnhiSee8D7cT69bg/a0lcjIsMvnzRkw6HWIggZdVH1iCjfyv13nad6xJ22a96ZF4Qk2ZE2nxw3PIYpaBK0Og8HgjZAEDwa9Dq0GrBdyOHfqDDt37SLjli+pbTnFwDuvp29KAoIAiC505jiaJDbCkLMeS72eRNsPc+B8OK0b1sakc3No3Wz+8/N6TDEd+evD1zHr68/50X2EjAm30G/N56wrctGofW/uHNOHTdqu3J3sYMshE7HHZ/DZ8iIiImOIi4nCHRFO7vZM5iyvzU2jndgObqBTh+tJaqph3Q87aNAvkXXbNpP7xxoK9YNJSzjCoi253PnMc7iteZwusHBs00y+X+SkRazAsRPH0Ra6sdsjOHfmGCdjO3B/4gk+fPsbjhta8ODfH6B1tIPMryewdKeWGx5+kT7NHSyd+QFb3anECXnknjzL7j+MnDBZybP+Rli9x9m84RRJ7RNYOvtLTp/oh7FBHOf2b2fWmqXYGnVhmO53PvvoJ46H1eH6v9yOZeoHLN3UiP88+xa3DhvN0mXLWLVqFQsXLiQ5OZnhw4erKwdXIaSJxLZt2/j444+599576dGjR8BzV1WUD3feeSevvvoqkydP5tFHHyUuLq70Stc49uzZwwcffED//v1rzKk8xdKI+B+4C8pn3l06IkREq1WN6lqGVqelyFLE2xPfYcGcBZw6cQqA4aOHsGLFCu8B1RLKesC8f5koiuj1enbv3s1PP/2EVqulV69edO7cmfr167Nu3TqcTid6Uzhbtv7O6jWHOdqwDl3T0zEYomjatiXxJoF1P3/ImqIkxt75IE1rnWJ3NiQ3rE/yH7OYv+gr6t77OCltk2m2Ix+DwYgggChqaNS6GXVjDcTU6kfHlmvQth6EftmXPPneYhp0bMzXFKHTDuft/95B/fqp9E3sysW1J8hL7EgdCziio+mR1gFT3iHm/mZlyNi72DX/LT7dlESnTqnscLQlVsyjUN+Ru26PYNVvP5Mt3EOBXuDY6hmcqHUrnZN7c9uYOmStXMmRE3+wdtNpbr77Vh6p34g27VNI0Oey/uvF7EizYYjpTKtz23n3ran87aX72f/e68zv8Reaag7y3dcbGZYejv6iE1Ptxrz8/t20EuDo2q0Ym6YSHw/uk2uYfqqAldNfR9/lIYZGnGHVkVw0OdOYtiGG0X0Fpr39IpEvTKBt1zu4Z8hoNMCcrB3c1LsdAEc2TuOIzUF04ySadWtLuPswaw7m89BfJnFfHdi3ZQHbi86weX8WjYbeSutdi1jxZRa92nUl6byZGJMbvcHgTUWyd+9e1qxZwzvvvIPJZOLhhx8mMTERl8ulmJpCilSUSyMit6+utDM+lSJN3W63N6WN//XycslBKpOLwCyP7FKKCX9IUZ5yB7FXBpd0vuvq1av54osv+Mtf/kL37t1xu904nU7Zzd6B+kmp3yUuaazkUnsEI3tZuKS6oeKSC2LQaDTe9vzHS649jUbD888/z3//+1+efvppunTpQuPGjcu8qqSU1qcyUN1cVquVXbt2sX//fsaNG0dGRkaxPq6Iz5DzXaX5DMWTGOTOWFM6qPXS76EmR6GqG59Dg0D9qNFocNgdbN+83Tt5Q4DTp0+zdu3aEo5DykeklBdHKdIQLunn3r172bRpE02aNMHtdnPgwAEOHDiA3W7H7Xazd+Wn/LgiF4CDB8Jp2SqJ2Jho9OfW8+5Xedw37q/olk/luw/+SZHdjSCIiGiJiu3Fg08/imfX//hozh9oDE7On7OgM5oxGQ1Esp//+8/n9EhpzqrTF4nU5bFlzwH6PfIwzzw0AkPBPr559HcKXTYsuadYfWABxzdswllXxFx4gGP2hsQmNqV3t270S/2NX+bN4cjBAqI7R9IquSVNnG2oF36RI1uXc8xt5JxdR1q9Fpyb+imr26dw6+Cm5Gz8gUULFrDzvJnG/cfSBAGN+yLbdoQx6rYOJEaA5sKbvPBDPt98fjcR+4/TIGUUN103jIjD3+EaMJIeu0xMX1eIFQG9wYT1zCEmPvwszWppyN57CG1UPPXrh3P+bA7pj7xHk849yPp+Aeua9eXRIXVZt2oN3e74kJt6RLMl5xk2njxHnc3f8vDSjcQKF9m29zyLfmpKpNFGgcPDPU/1JO/gZub9epjjuQ5G3dedDet+oahtN+o6HOjNtWiW3JnMnxZgO7QbXd3mxLVIISlbT/3I4pP51q1bU1hYyPbt29mxYwcXLlygWbNmXt3wh+95nb7lkj7JR9YrH0wtRV4qcQWKNiwvlz8k5x1K2QPJJ91XWZ8L5eESBAGTycTPP//MnDlzeOqpp0hNTfX6ColH6aiiQD5D6TxJufEqbz9VNZfc+PvyKPlX/zpGo5FHHnmEwYMHs2bNGrZv347T6fSWB/LVUv49uSwDpY1JML5f4pI707i09oJ9zgDYbDaMRmOxemFhYaSkpPDII494z9v1bbsiPkNJr6V2/eFvC8XSiATjFKQ6NRkGgwFRTVpYIXhEz6V+VJjEOR1OomtF88X/PidrWRbT/vsD61evJyY8jokTJ1aKTLt372blypUcPXqUBg0a0Ldv3z8/qdkf5sVtJ3Bp9XhyVjLxu1XozSaMTjd1GzYljHPsOLCPOt1uo3t9712wYfomjp8vIim+A/16xVLkchPuPMiH0xdRp1EKMTo7EUldaZrah7/FiWzYUYeR9/Rk88lThGl1EFOPmAgzOrGI3ev/YLcrnDCNkePHs2nWJIGwXdtZOieMnvH5fPDbMe4bNxzNFzs473ZhtdtBo4G4BvS84QZqt9OxZtUKwjSFbNjwK11G3sXBA6vZXdSC9D59yFm6A50pDKNwKd+exuOiqMgFEU5ybQZ6RdXn991W+oXr0SeGo8GBzSWgc9mx2uwI2igQRZwuNxF1WzJwYF1axMEOUzT6uq1ISorlbM4+jGYPkVE3ctvd59iyczWv/7KDG8xRnD9tAwQsJy8QYTaRkNSbQZEdieMUDuMxunZOo06EjVOnchDcLlrd9DSPjGrJzt8+5VCtZP7S1Mayfbs44zTh1u1i/rsf0fj+CdTSnGf1BXDZbIi6P8/zzc7OZu3ataxevRqNRkO/fv14+eWXiY2NDfh5LZBjlcqDqRPIGVcWlz8Cp3UK7QSuKieLM2bMYObMmUyaNImkpKRivwv1BM63Pf+JfagncNK1UHKV51mt1J7H46F58+bqCTRBwrcvK+ozQjKBu9rgdrmpnxDPH+v+wGa1YTKrmfaDhcVioaCogPiE+IDZoT1uD+ER4dx4840MyBjAD99OY+fv2zl9+jT16tUr9tvSlpsDncQgve0lJyeTnJzM6dOn+fXXX5k8eTJRUVH06Xsd1w/owr7F75PV7Fne79uO2r9swGDQo9eaSWjaDIPBgy3vNJt+m8+FGInBzdEDAp3QYqrdEsuu1/naMoxvHu9H4rI1OPV69HqB2omtaRDp5pcjOdiSexBeawdL3vuI2fOWY3Kc5cTxdJIOruOP+rczYWgeuwobo3Pn8/va3SR2q01i2o0kNROIPn6YpQs24bHH4XG4iA4TWP7rNKburE1OwTnEHB2GeslkfTkTQ7NOHN++lELBQUL/x+lZ38j8Bcs4c85AmABgJ88Sht7kYc+PP7HPdR0PvxDG+798jrlZE/SiiAiIHg8eUXIqAB7sLpHGaXfwl8sH+kYUgLFJVzp0iAauAwpY8fZXTDtjp5Zgpu299Unx3MZ3k5/liUyBsAZDGdymIbU7PENXAE5zKH8nAwYPoPbl+Zez8A/+9f2/WPp7bQ6fOMEtL9yPIa4dAzvmMe9/U4js8TfEulqWLplPS6OdiAQLtevVYde8uUztqOHsvpXs23+YBg0acNddd9GpU6cSeqPiysY333zD3Llzi03eVFQNJL8rt3VFyVcDFBQU+O0TvgTpc22g0zGUuJRyouXn52M2m0t83vV/LpRFdt/7leO6ePEiERERJdoMJHt14qqdwDkcDlq3ac3PP8xi+YrlZGRkVLdIVxx+W/YbRa4iWiW1wulwBvyt0+nE6XRiNBoZcedweg1rX2LyFmrUq1eP+++/nxEjRrBnz16W/7aUqd9+QiE6uls/5aGFF/EYa+OwWnF6Clk7dzbp94+hact2aIS2NPWm8fFQR7hIbLiWLYs+Y3VUP+5p6eBvf5tErt1AgtaCxSGye+lsZu338Nv6vYz95+2IrjDadOqLOaEdJud5DpkiuXC8iAFje9NIs4x/ffwNCb2vZ8yNgzi8dS0rFk+jWefJvPLSU/x+wkWL++/AaDJRTxvPx3HZGAvtNLLk40QHZ3K52KQvb094hO+ee5wN9GTcnUCehzZd+hFZrwXhGgAre/c6MLjcxHbsy9gGDYkME3hquId8oQ6vt9FiQM+gm99EiAzHXDeDcT11GCOdJLX1db5O9BFmtFrfcY6kz5P341m5GY2pOX2T6wCDeG2ykW1HNKT27UVtXw/idlMrwozL4QHzZcepCaN5155Ep9an0cHdxId7+H32RP79Sw7mmK68endjIl55l/pbD5HYLhVb7jHWbtzECc0m5v1UwM3D+zJ6zG0kJiZWmh6pqD58/PHHZGVl8a9//YtGjRpVtzgqVFxREFwul+hyubBarcTExJT4QaBZ+NLdPyFozTSs1QKXJ/ADvjpgMpnYuX0nP331M/98YQLNWzSrbpGuGOzft59Xp7zKrQ/eQlLbJOw2e5nqaTU6cgtPUFh0ioy240qUh2IFzhcOhwO3243ZfGnJ5+ixbBYtWcaBHRtwacO4rl9vevfpS1RUVJnkd7udaLX6y2070Wo0uN1OPCIIGg1ajYBG0KLRai5t//R/ifO55nY6cKHFqNcCbmw2F3qDEW05UpqJorTnVOkHMrLUULhddpwuMJn+nEBmZ2cz95df2LtvP7VqxXLDiGF06pAKXOospY3Apb25h4eHB/U2XZE398jIyBL1KsIlZwuiKJKfny+bRLQ8spe2YlJYWFhpXO+99x7bt29nypQpxMfHk5+fL2unSmMcqJ8C9bvdbsfpdBIREVFu2cvKZbVa8Xg8hIeHh4xL6ROqxWJBo9F4fWFFZVdX4Moue3m5oqKiFIMYytJPpZ6FKn3HlYuwqemw2Wx06NieMyfP8Mrrk7h51M306d2HqOiyPcyvRVzMu8iKlSuYOWsm/Yf3o22HtlgKLQjBzA5E8Hjkz6FU0iel62UpczqdXqeV2LghD953FwUFo1izZjXLly9n1uw59OrVi969e9G8eYuAokuTNwCD4fJRKTqFZXO5LvG5ptUb+LOmFpOp/MvvpZpbzTdHL7Q6I1od5OdfZM2atSxevJi8vDx69erF448/RosWxcdIitRS2hOk9Bk1kK75/lvWOjWBqzxlFWkv1LLrdDrcbjfvvvsux44d48MPPyQyMtIbrR6IK9Sy+5dXZj9VNpcUPVmeMSlN9qrkkkMo9bo0O1aSpTJ9htz10rgkFEsjIs1ofSGFwfpfv1LSiFgsRQwcNpC69evy0w8/sXDJQmpF1kLQ1Gy5qwOiR+RC/gUszkJufeBmUjqkYCksCm7ydhnSBM5/75ySPomi6H27LNlWSb2EwGH6kZERDBkyhEGDBrFv3z4yMzP517/eJS4ujgEDBtC7d+8at5/hWsHhw4eZN28eu3fvJjo6moyMDLp37+5dEfFPgyDphZwOSPoll0ZESoHhXzfQfs7S9FOOC/5ceZDzn+XlkuOR/LRcu+WRXZJbKQ1LoPsKlkun02Gz2Xj77bexWCy8/vrrREZGlkjrodSHSitwSika5CDpRaDUHsH0U3VwydmCRqPxtu/fh+WRXSqTG2OJS268KsIFynasxKU0OSqPfvr6jGBlL6/PkNPfYPqp1ChUUbzyD7MvKiyibfu2tG7Tmn279pFzIgens2QepWsdBoOetAZdaJ3cGq1Oi8VSVO62qvIwe7loHsk4dDodSUlJJCUlcfbsWbKysvj111+ZOXMmPXr0oGfPnur+qiqAxWJh8+bNLFy4kLNnz9K+fXseffRR2rZtC/y5kqrT6RQj3pX8k9InCo1GUykHzAcThVpRLqU6VXHAvNIh3eXhEgQBh8PBa6+9Rnh4OK+88oo3ut13nIIZ40D95HsP/vAdK7n0MqE8zN43kjZUXEppRJR0sLyyK41xZXEFa1uBngsVsWPpkPlgZK8Il9LXzKAPs1fKVaKUT+VKgt1mR6PR0KZ9G9p3al/d4tRQiLhcbpwOJy5baCa4Ss4pkK4ptVFaHTkuX9SuXZuRI0dy4403snPnThYsWMDKlStp0KABGRkZpKWlBXdzKkrFyZMnmTdvHlu3bsVsNpOWlsbQoUNLHIklimKpehGqsrLoU03hkkOo5auI3ZW1rKioiNdee406derw5JNPKnKEqp8q4jMqo59CyVVTx7g6uELZnn95ZXOF4r6u2ihUOXg8Huw2O3bKtiFfxdUJrVZLhw4d6NChAzk5OaxZs4bvv/+eadOm0aNHD3r16kX9+vVLb0iFLJxOJxs3bmTp0qVkZ2fTpk0b7rvvPjp16lTq/hMVVx8KCwt59dVXSUxM5NFHH61ucVSouGpwTU3gVKiA4pFSCQkJjBkzhhEjRrB582bmzp3LsmXLaNGiBYMHD6Zdu3bVLe4VgwsXLrBgwQJ+//13HA4HPXv25PHHH6dWrVre3xQWFmIymRQ/Naq4unDy5EneeOMNOnbsyD333ONdaVWhQkXFEfIJnCiKGMwecGlwOoVSouNE9GYPol2LqwIHJoiCiNnkwWXX4vRcUQF5KmoIdDod6enppKenc/jwYbKysvjPf/6DyWRi0KBBdOvWjdjY2OoWs0Zi69atLFq0iN27d5OUlMSYMWPo3r17dYulohohCAJHjx7l1VdfpX///tx+++0Aimk/VKhQETwqbkkCaLUibg+IGg8mnY4jG2OgnoUGDR1oPAJul+ANddDqPei04HGBBwNH14VhbpVP7XBwX57ECVoRvV7E4xRweUCnFRE0gCjgEUW0GgGXU8BsvHZuAAAgAElEQVQtgt7oRm83snlDBHWb51M3wuNtR4WKYOHxeGjatClNmzbllltuYd26dSxdupQFCxaQlJTE4MGDadmyZXWLWe0oLCwkMzOTjRs3YrPZ6NixI3fffXelJ29WUbMhCAI6nY7du3fz2muvMXLkSEaPHg2geEC7ChUqygcdXDI6p9NJXl5eseVtQRC8Ser8l711GgN2hx2TGEFBvh5dmBOtW4PVbWbP0noYeh2lSSMNx3OMxNaxoxNEdAaBgmwzJ84KRDaxU98Yzspv46l9m53BPawIDg0anYjLYmDvIR2RjezUjYALF3QUnNVgjHVhcmo5b/XQINGBWQ/nTpsoOBrJomV16Fe7kAbRbtwedQ2uOiEIlyLOLAVFJRI8K51dKaVHkCJvBOHPUHlp35RUT7ou6a3T6ZTdWxUslyAIxZIoajQa7564rVu3snTpUt544w3i4+MZNGgQnTp1KnOC4KsF+/btY9GiRWzbto3Y2Fh69OhBnz59iIqKwm63k5+fXyyxpe+YCIJAUVERTqdTNjrZd0x8EehgammM/bng0sZ5qdy/PZA/a9BXZ3x1TSqTIsDkuOQ+D4aaSxRFrFZribb82ysrl2+/+3N5PB5sNltQXJGRkaxYsYJ3332XsWPHMmrUKPLz8732qcTldrsVc8FVxI7lfIaU/FspZYlS9F95uOx2uzedhP84Kul7aVy+G9l9uWw2m9cnlpVLST8DPfslO7bb7d77qwgXKNuxxCUlsPXvJ+m5oNReeXyG3GH3NdVn6KSO0Ol0ilmwZUN4ETCa9eguGpm/tBEdbjhAnQO12eYW0EU5MAsatq+sz558J0MHW9HrBS4eq83CHyOw6l2cXaHhxsFWzhWA7ZgJRw8rRq2IaAtn04zabD3txNxYoEcSzF5oIiHOSe5+Mw1aWjl+zEDHW3PoG2vmf19HojVrKLC6MRmuhKQmVz9EUUSv1xMWbkak+Bm0lXESg8PhqNSs6oIg0KVLF7p06cLZs2fZvHkzmZmZzJw5k5SUFK6//noaN25cSq9cubDb7SxevJisrCwsFgvt27fn5ZdfLnbPHo8Hk+nSWAfK4A5gNBpls6qXJ/t8oAzuAGFhYVWSVV0URSIiIqrkJAagRBRveWUvS7+XhUt6oKxevZq33nqLp556isGDB3v7pTQuaVLvb8cSV6hPYnC5XCE9HUGJ61K+VA9hYWEh41KyBWk8JDusqOyl2bFer6+SkxhEUcRkMlXJSQyiKFbZ6S2iKBIZGVmirFwnMZSmFLKD6BbQ13dS3+XBfjyM3afM1Es+R4EhjLXLGhLf+TxjR57BZdHicoPeWETLgVbqxuhZ/mksRTFFdEkNJ7rHRcJEAY9GJOePWLa6HTz2ajb5R8I5ubsuHmyMfugUyz9qRszAXLrsqceuPWY2RMYQ3vkMj2a4eeejBqip3WoOBEFA0AglkgAr6VOgtympXEk/5XTXf9VODko5p5TK7HY7ERERDB48mMGDB7N161aysrKYMmUK9erVY+DAgXTu3LnEUTZXKg4cOMCyZcvYsmULtWvX9iZAlu7P9+3Rt78C+QxprJTGWWlMSvNPSiH3gfIzBePvStOnyuLyR1n6IpS2EAzXsmXL+Oijjxg/fjx9+/YF5FMyBGPHvlxyE7hA/RQsV2X4DOn+q2JMlLjKK3tl2HFpXMHYltTmlWDHgbjk9Lo0rhClERFweGy072Jh3rZYIsPttE60k+fWEmZ0oDun53SRhjqCCHqwnYpg40IdukiB3EKRVM2lQAe3WwBEBAFsFgFHlIgOqJtYiP1kLSKbgtnhwVjHRWQUCB6RcEHE4hYx1fYQbnRhjhbxKCcwVqGiwpDeqCSkpqaSmppKXl4eS5cu5YcffuCnn36iU6dOZGRkUKdOnWqUtvxYunQpWVlZZGdnk5SUxDPPPFPieKtAb4kqrj1kZmYydepUXnzxRbp06VLd4qhQcU2gwkEMHodAbCsb57+NxdMrm0a1PGzNE0gddBbxaF2yMqO5YfgFTEYd2dujEMNyGTpcw5wjYRQ5wGXTceaUAVcTGxogLt5J2EYjG9dHcvJwNEaDCdFjRxQF7EU6nC4Bp12LBZH2jRwsXhnJUg1kH9DR4boQ9IgKFUEiJiaG0aNHM3r0aDZs2MDKlSv5xz/+QdOmTcnIyKBDhw41PvLu+PHjLF++nNWrVxMdHU2vXr146qmnZA8yV6EC/kw0OmfOHGbPns2kSZNo2bJlwP1HKlSoCB0q/FQRRQFR66RVghVzchFikUhCah7aaBst+54mf4uJIpsWregmafBJ9s+KYvEqN+2GnKeu2UZUegG7T5uweqyYRYG4lmfok16bzHkxtOhWRPvmVjghIgKNk/OIMrkwNMunodtGi9RCDu2uy/qtIul9z5IQ5qlQOhIVKsoD3704UiqSM2fOsGTJEqZOnYrBYCAtLY0hQ4bUuAnRmjVrWLFiBcePHycxMZHHH3+c5ORk78qay+Wq8ZNPFVUPaR/Ojz/+yPLly5k4cSKJiYlqomYVKqoQgsvlEl0uF0VFRURHR5cwPqUNelqtlsW7ZmAOi+bcml5sO23hxjtOYfRo0JnciE4NLlHEqAeHXYMogqDzYDKJ4LmUDsTl0CAYPOgQsNs0lwMQRPRGDwY9uJ0CDhcYtGBzaNAb3XgcGkS9iA4BhwOMYR60gMcDDocWNVK9eqHV6MgtOEFeQQ7DO9xR4mDeUAYxSFFeDoeDyMjIEtFQodyQLAgCVqsVj8dDeHh4QC7ffShut9u7snX8+HHatGlDRkYGycnJin1Y2Th16hSrV69m+fLlaLVaUlJSyMjIoGHDht778T1AOlSbnwVBoKCgAKPR6D0HU0KogxgEQSA/P5+wsDB0Ol2JyLBgZS9tQ3J+fn65NiSXJ4ihoKAgqICz8tiCFIVosVhKPBek1bVvvvmGzZs389JLL1GnTh1vpGV5uBwOBzabjaioKNlnUKiCGCSf4XQ6iYiIqDE+IxguOVsQBAGLxYJGo8FsNgdlW3KyQ+l2bDAYMBqNIeMKZMdmsxm9Xl+CK5RBDIIgcPHixSoLYiivz1A8CzVYCAg4nW6a9ThJosmGGQ1uwGnTen9ht3v/RHRrsFr8GrFpKR57cOkTqdPntCvb5TmA0365XYeA43KZvUjdg1MTUdVfT+TCtKuLy3evnCAIDBgwgAEDBpCTk8P8+fP5+OOPCQ8Pp0ePHgwZMqTKgh62bNnCwoULOXr0KAkJCdx99920a9cOvV7vdbzq6okKX/g/XKSHyqeffsq+ffuYMGECsbGxJV7UQsFV2ahJPiMU7VcVruZP41favZUahSpFUShFooiiiCnShduDmkBXhReSIcjl7gkU5SP31iHpmVyZlK9NEIRi5b7tyb1p+f9erl2la8FweTwe72fIhIQEHnjgARwOB8uWLWPVqlVkZmbSoUMHBg0aVCJQIBQ4e/Ys69ev57fffsPpdJKamsq4ceOKpQCxWCzodDrZlZHy9FMgn6HRaLxjFgxXIP+k9IarxFUe2QONscQVKCqvvFxKdUIle6B+l37v394HH3zAiRMnmDRpkjfFiFQ/1FxSm0orcL7ccpAr843kq2yfId1PKLmCjUKuLDsONVewthXouVBeO5ZkV5I/1D4jUAqksvRTSDa3iB5B/XSpQkUZYTAYyMjIICMjg/3795OZmckbb7xBgwYN6NWrFwMHDqzwm+CePXtYsmQJO3fuJCYmhhtvvJHOnTuXyH0FJROnqlAhB7vdzptvvonD4WDixIklcpupUKGiaqHuTlahopogiiItW7akZcuWWCwWli9fzm+//casWbNIS0tj4MCBNGrUqMzt5efns2nTJhYuXEhhYSEdOnTg6aefplWrVpV4FyquBdhsNl5++WXCwsJ4+eWXMRqNshnrVahQUXVQJ3AqVFQTpCNTtFot4eHhDBs2jKFDh7J7927mzZvHq6++StOmTenZsyd9+vRRbOfw4cMsW7aMbdu2YTKZGDBgAN26dSsW8VpaVnUVKuQQFhZGXl4e48ePp2HDhrz00kvAn/qkQoWK6sM1NYHTarUYTUZ0et0Vt1mxKiCKIi6nC7vNHpJNySqCh0ajoW3btrRt29YbLTpnzhx++OEH+vTpw4ABA6hbty5Wq5UtW7Ywf/58cnNzSUlJ4cEHH6Rdu3bVfQsqrhJotVqOHz/OhAkTSE5OZvz48dUtkgoVKnzgncBJkXNlTSNy6Yw3Ea225k+EBEHAaDKSn5fP2qy1HDt8zHtwsoo/YTAaadykMaldOhAVHYXdZi/3/iiP51I9l6t4jHFpIdfybXlk80tJqQ6kg6k9PhsxffVZKUxfDpIMSly+6TUqi0uj0WCxWKhVqxajR49m2LBh/PHHHyxcuJAJEyaQlJRETk4ODoeD/v3706NHD2rXrg1c2qcUTKi7RqPxpibwT7dRHtkDcQnCpcO4pfJguAKlEZHrd18ufznLI3ugMZbalPTQ/3p5ueQglfnbVXllV+p3nU7HiRMnGD9+PD179uSJJ54oJlcouXxtS+kZJNdeoH4KZMe+Y1XZPsOXJ1RccrYg2bHcczzUdixxSf+FiiuQHUvJoeXSiITKjgVB8Aad+bdZWT7D5XIpphEpSz9VOAq1ph8fLwgCJrOJFUtWkDlrIc0aNaNRg8boI66pxccyweVysXfjXjJnZ3L9qKH0vq43NqutXJM4NQq1Yly+DtlkMtG5c2c6d+5MTk4O9913Hw899BAjR44sJoOUI6iqIkOVZFejUEPHpVSnMqNQBUHg8OHDTJgwgQEDBvDggw962/GNNq2KiFdfXjUK9c9yNQpVjUIFv0+oSjck/VeyTJa3RsEcZubHb2dwaPshnn/yedp3aB9Qua51uF1utm7dymeff8bZ02cZNW4URZaioNuRdEPJOQXSNbnrcm2Vtb1gZajJXAkJCbRo0YL27duX+L3vwyIY2Y1GI3q9vkb3UyjLQi17ZXLJIdTy+V8/cOAAU6ZMYeTIkdx4443e674PqJo2xnLXff+tKNeVbAs1SfZQc4WyvSuR66pehjKHmcn6LYsD2w7wxutvEBsbW90i1XhodVo6d+nM64mvM/7F8cQ3XEP33t2xFlmrWzQVl+FyubDb7aX/UAluOzknT+NweUCjA5cb0WNH0BkQtHrq1m+A+ar2DCqUsH37dj788EPuuOMO+vfvT0FBgTfXmwoVKmoWrlo3rdVqsVgsLJqzmIfvfVidvAWJ2nVqc+e4O/nvD1+S2ikVrU6DW83UfHWg8Dhf/udjci460XvyWLV1M41bD6BRhIgmLJa/PPcKbWtfAcvrKkKKrVu38vHHH/PAAw/QrVs32T19KlSoqDm4aidweoOendt2Uie6Dunp6dUtzhWJ7t278/Ocn9m7Zy8dOrbH7a7Aqo+KmoPoFrz8+vtYzhxgyRfvcyqsH/07daZ9x4GktWmEobrlU1FlEIRLwSurV6/m66+/5q9//WuJz/MqVKiomSg2gZPbrC5FechF2Igi1NT3dK1Wy5nTuUSGR6LX66tbnCsSBqOBcFM4uadz0QS5b1BSF3+9UdInpevlLatIe3JyVweXXJm090GuvCyyA+Rnb2L5r6v5PVtgyMhxDD98gpZJKRxb/n9M/zWGO267h66N40LeT4HKKsolh0BcwcoeSL6q5Apl30p7aRYsWMCPP/7IM888Q0pKSjGZq9LuSisLto7vv5Ut+5XMFWx7lcklh1D2YU2xY99yueulcUkolkZE7jBrKRLO//qfKQdq6hTucgoLhY3AKsoGQRBkQ51Lg6Qv/mH+SvokiqI3RN4fSoesC8KfYfqS/vq3J/3Ovz2PxyPLpZSWoCq5NBqNt47E5Rvl5MstjU+g9qQyUbwUfu60W7BGtubeJ7sQ7i7Eml+EThvOgNueI/nICnJtDm9Kh2Bl9+WSmzBI7Wq12mLlpfWT1BdKcshtBJa4/OuWR/ZAY+wrv5z/LC+XHI+kD3LtBiO7FIU5Y8YMfvnlF1566SVat27t1SVJ34N9LpTHFsrCJddeoH4KZMe+Y1XZPqMyuORsQfIZUv1gbEsJSmMsccnpfEW4QNmOlbiUJkfl0U+pX5VsK5Ds5fUZcvobTD8VSyOiFJ2pHEosQA1OIxLspEOFPMrTj5d0gxIHpF8qkw+5lj7n+EMyVDn91Ol03hxBvm1K7SkdMO/xeGS5pN9WN5dvWgWNRkNhYSGbNm0iLS2NmJgYTCYTGzZsoFatWrRs2bLU9uDPh3Zc876kn/2e+x56ilZ1IhEQEXBjOe9k+NOvc3Or+oiieDnXY/CyS1xyPkOr1aLT6UrUK62fpL6Qg1IovhJXeWQPNMZSW0rpUcrLJdcXkh3IlQUr+1dffcWyZcuYNGkSzZo1A0raq1LKkmC5IPAY63Q6nE5nwPQNchM4pX4qzbb8X4oqInswdhwKLiVbkPQvWNtSkh0C27Fcuo2KcJVmW3JcSs8FJdlLs2ONRlOlPkOnK3moQDD9dNXugVOh4mqCx+PhhRdeQKfTYbfb2bt3L6tWreJ///ufdwJXFkiGfyjPTvLYv/Hqdc2wWCyYw8M5teYXDrqO4aY+WoUVLxVXBz766CM2bNjAlClTaNiwYXWLo0KFinJAncCpUHEFICoqimeffZZRo0Z5r918881cd9115WrPXJTLok/fwLGwFk6nE71eT0F2Ln2f6Ih6wuXVCekT0VtvvcWuXbt4//33iYuLw+VyKa7oqVChouZCtVoVKq4Q3HTTTVx33XUsW7aMqKgo/vrXvyp+ViwNiemjmNb9CdLiw7DZbJhMJuy5RznjMYVYahU1AdLn8Ndff52TJ0/ywQcfEBMTo6YJUaHiCob6sq1CxRUCjUbDk08+iUajYciQIfTq1avcbTVo0JK0+DDg0sZYh8OBsU4ijerVq8FhSSrKA0EQsNlsTJo0iaKiIt577z1iYmKqWywVKlRUECWiUP2h9IYmcGk5XnX2KuQgiiKiR0T0C3JR0idJ/5R0UNoQqlTmX0+6JndUidzh0v7y1QQuKQJLgkaj4frrr+fWW2/loYceKtFOae0pwTfiNFSyK0FpnEvjUgqkUep3Xy65MQlW9kBj7Fuu1F55uOTKpWi3svpqjUZDUVERr7zyCpGRkbzwwgsYDIZiOlOa3QXzXKiILQTikmuvNJ8BNcOOQ82lZAvlta1AsiuhMrhKsy05rkDPhUBy1ySfESyXb3s66Ycul4v8/PxilaTrUvSaL3QaA3aHgzB9uKzwKq5dCIKA0+mkyGLF5XEWK5OiOJWcse+B8b75cERR9NaTrks8TqfT+7uKcEnpDABZLrvdHjDVgdLhw+Xhstls3t9otVrCw8PZv38/s2fPJiYmhgULFmC1WhkwYAAejweHw+FNASEXCelrx/5cVqsVrVaL0+ksdl/+svtCcjJyn3B9I3V92xMEgaKiIlwuV4k2S+NScoJKXABFRUV4PJ4SMpZFdv9+ksqkCDB/LqvV6r3HyuQSRRGr1RqwL6QyvV5PQUEBb7zxBgkJCTz22GM4nU6vHkvtSf3uz+XxeLx6WBqXf5mSHStxSavAcn0bajt2OByKqR9CbcdKPiOQvpfGJelLIJ9RUTsO9OyX7FiKHK5sn2G1WmXHxfe5oNResD7DarXKtllTfYZO6gi9Xi+7rC4NolxjJqNRjVRTUQKiKGIwGAiPDCtRpqRPUs6cYNOIOBwO7HZ7ifMapfaCDdOXnLEcl81mw+12Ex5e/KWlMrh0Oh1msxlBEDhz5gxffvklmzdvpm3btjz//PNs2bKFWbNmsXjxYsaOHUuXLl28ssg5rUB2rNFo0Ov1GI3GkMgeiEsQBEwmU4nk2qVxCYJ86gRpMih3z4IgEB4eXkLG8sgeaIwlREZGlqhXES6lNCKCIBAdHV1qe3l5ebz99tukpKRw//33y8pcWr9rNJoycfnLHqwtOJ1OrFYrUVFRslxKaUSU+ilQv9vtdpxOJxERESGRPRCX1WrF4/GE1Gco2YKURsRsNodE9tLs2GAwhNRnBLIts9ks6zOUngsVseOIiIgq8xlRUVElyoLpJzWIQYWKGoiwsDAOHz7M/PnzWbt2LampqUycOJEmTZoAkJiYyODBg1m0aBGffPIJcXFxjBgxgh49elSz5CpqAs6ePcvkyZPp0qULd9xxR8BVTBUqVFyZUCdwQcDlsILWiE5bhbEfoqieJnGN4cyZM3z33Xds3ryZ9u3b8+abb9KgQYMSvwsLC2PEiBHccMMNzJo1i6+//poZM2Ywbtw40tLSqkFyFdUJaWXm8OHDvPHGGwwcOJCbb74ZQPGzlgoVKq5cqBO4MuDQxnn893AsdzU5iadeK37/ZAednx9LUq1L5ad2ZPL25nD+dXfvkPJe2PEFc3Kbc0daczbsXMuevYkMzWhP/fiSnyZVXJnwXRHJzs5m9uzZrFu3jo4dOzJ58mTvilsgaLVaxowZw7Bhw1i4cCGfffYZP/74I6NGjaJ79+6A/H4KFVcXtFotu3bt4s0332TkyJGMGDECkD9TUYUKFVc+1AlcGWArPM+RXD00AQQ3F49l89NXb5B3Koz7X/orcR47p48f48dlZrqnd6GhcJzVfzhINO5k7e8n2Lj7MI1veJAn+rTixJZfeX/aStq37U3TJh3p1U/Kgi5izd7Ch19O55wllpvvu4MTC3/lsxURNJ3wCHs3ZLJwe0+6dG3tncAVHlnNJ5/M4XydZB599B4ahZ3n2w8+Ynu2idFPPkG3BmqASU2GtCKSm5vLtGnT2LJlC8nJyYorbqXBbDYzYsQIhg8fzuzZs/nqq6+YMWMGt912G+np6aEWX0UNw8aNG3nrrbd44IEHGDJkSHWLo0KFikpGsTQi/tEroLxB71JiSBGt9ur/vKfR6gkzaziwcQ6ejn+hwPM7+xjJTU328cXXS3isv5mI2pFcyPyJvXVaoi9cyvaCjtj2TmfqvhQe7VGfDz/8mcHNb2LulP/R6s57uTD3I1btfMxnAmdl4bw9xHUeS4+C//HRyjU80LgVKalRtGzcipPnRtE7KRyx3uXN+o6TfPTLrwj9RzH4xClO7TzBoaNfsyY7isEpNl5792PenfQsLSOqZ+XF47mkR1JkpITSNnzKt+WRjRiTIqWkFBi+4dy++qy0SVgOkgxKXHJh8sFwCcKfZw4fO3aMn3/+mU2bNpGamsqECRNo2rSprFzBQKfTlViRmz59OqNGjfLmjpPk0mg03o3ROp2uRBRisP0EymMsRchJ5cFwBQpikOt3Xy5/Ocsje6AxltqUS8VSES45SGW+EccajYZly5bxzjvv8OSTTzJ48OBivrw8tuCr78E8FyqLS669QP0UyI59x6qyfYYvT6i45GxBsmO553io7Vjikv4LFVcgO5YCavy55J4LgWQP1O+CcCltkyRLMLKX12e4XC7FIIay9FOxFTi5Ta6SYPKRKFCTD7MPKUTQm8JxatxEmDrzl1tupWetnZx+YAlH0luC0ICBYy4y9/Q2bIcFug5vif1EJEOvH871Q+txav4PnD18kA0NrufHG67jkP08nj88rJr3PnNXnqTbbX+l73UN+OaHX1l8/gjZzfqT2CSBVmI96tatw21DbrgkhtTd2ki6t0lkxsJfMaek83Cn2vx7hYvWtzzCyDQLm0Z+zsETRbRsHaF8T5UISY3kjF9J2ZVCwqVypQhKSW/9D4uW6iht3JZrTzIaJS7JeMrDJdU5ffo03333Hdu3byclJYW33nqLhIQE2XoVge+K3C+//MK3337LzJkzGTt2LOnp6d5IMel+lDa5l6efAkWvlYdLaQIn8ShFocpxlUf20sZYTgdDweUP376QODMzM/n444954YUX6NWrl/c3kpzltQVfjrI+FyqTS24CF6iflLh8eSrbZ1QGl5ye+fJUth1XJlcg25LjCvRcKK8dK9UrTfbycsndU2lcJSZwpTlIJeW8JiCKeMRLSWkFBByOE1ywAJxgr1FLJy04nTYS2tyE857nWDrwRibEh7HH7SbaqAVrES5RQG80ojv5B+cBa8Ex8tztSUzqSUZYIQ1izvLOV7Oo0+0e+h49z4YCB3aHDQ+aYrNsb5eLGtomp1OnQU/2TFvIsu9rYzKLWC7mA/nkCAUYTNW3aVnSjaqYwCk9pCtzAldWLmllC+D48ePMnj2b9evX07lzZyZNmlSmPW4VhU6nY9SoUQwbNozMzEw+//xzZsyYwahRo+jRoweRkZE4nU7Fvg/lBC5QWSCu8kzgAulasLKXpk+VxeUP6bpUNmfOHL777jsmT55Mampq0PrpK4scV7DPhYpO4IIZ4/JO4KraZ0DJxZGqHJOKyB5qOy6NKxjbktq8UidwgfS6NC7ZFTgV8hB9/0fQotfYWDB1Ir8eu0jKQ4/T1PQHVqcGc0R9ard2sF9IJEYAl9uNy+MBRFxOB9HJHbnr/9u77jgpiuz/7Z6emc2EBSTnKBIliETDDyRIXILneZ53pjOgmFAWAUEQE6gYzixB4gJK8A4VxFPOiByggiRFiSKLy6YJPd2/P5Yae2aquqd7esIu9f18vOWmpt73dVW9VzXV9V61fhf33zQJjtOHULNzTzRq0R2NWgBQC9E44MOn/1kPt+JGeo0ApPTa2Ln5PXzccxj6Nz13nq38OLZ98xmade6Nb9cvwqYTtZFVDAzv2hIX+n/EzCfvwe1LRGQOHYOuDdNZj8SRIAiCgBMnTmDZsmXYuXMn2rdvjyeffBL16tVLuC5utxsjRowI7sgtXLgQq1evxrBhw9CvX7+E68NhDcSxr169GuvWrcOjjz6KNm3ahCR55eDgqPrgC7go0LzbYMzoIKEaLoSaVh29n3gCp4r24uffauKyPi2geGrhsboCTh34BEeqN0DewE4AgC55s9DeXRtwixj/xF+RnVULbaY9itxPtuPAf7/Hj0VeKDh3Ia1QEzfdNRntvz2I3CYXYWSdTBqreI0AACAASURBVNR2qsi/vQtyqrv+UEbKQqNGbZGdeQEGTpiCzO274KjfFF3a1YGIazElvyUOn3aiR9+uSNLxN45z+Pnnn4M7bt26dQvJ45ZMOBwOjBo1Krgjt2TJEmzYsAFjxozheeRSHIIgID09HUuWLMGnn36K2bNno2HDinO0rLM2HBwcVRN8ARcF3JnV0TATAM6dJ8sAcur3QItz5WJaNTRJA/buPYImna/FwGYV2akzcxuBxIHmNqlT8Q+pOrpfdgVa1a2Lb49nhNwl66jTBH0vbxLC3b5T11BlnNlo3PjCin9Xr4PeV1wZUtziop5BvTgSCzJ5njx5Em+//TZ27dqF9u3b46mnnkrKjpsRXC4Xhg8fjqFDhwZ35AoKCjB27Fj06tWL+XqEI7l4+eWXceDAAcycORN16tRJtjocHBxJQsgCjhb1QN7j0iJsOELRtu81aBvld6u3a48+7eKqTkogfNywxhPr82jLwrlikUfTm8VFXllJkoTDhw/jnXfewVdffYWLL744ZXbcjKDdkfvXv/6FN998EwUFBRg1alQwahWIbN/wz7RlZtvejj4xw2VWdz39EsFF/O3LL7+Mffv2Yfbs2cjKyopqzMfTFhLJFQ95yfAZ8eASBCFutpVILhrsHGtGdszSJZ4+g/a5ERdBSBoR1iXdNKLzKY0Ih3mQNCLhYf6s8aSqavAMT6SsyHEJRBemT74XLo9cLRQOVloCGhcJTjh+/DgWLVqE77//Hh06dEjaGbdY4XK5MGLECAwdOhQbNmzAwoULsXLlSowbNw59+vQJhtmTdA8ssPqY1Cf3A2rLjfqETBq0MiKbxRVe14rueuNJqz/Nf1rlCh5UliQoioJnn30WJ0+eRH5+PrKysiJS9FjRndXu4eM92nkhXlw0eXo+Q8+OtTYcb58RDy6aLYiiGJQf3oZWdCdltD4mXLT+ioULYNsxi4u1OLIyPrU+w6zuVn0GbfyaaSfDKFRVVZkRIKIoAOdLGhEOU6gYG5EX8rLGExn8tOt+iMOilZELnMOjebTyaIYqCILu1UIsLm2U0uHDh/Huu+/i888/R48ePRIWVRpvSJKEkSNHBnfkFi5ciDVr1mDMmDHo3bt3sK1ZfaLvM8Rgn2lh1Cd6/ol1WTSLi8CM7nrjiXDpReXFwuX3+zF37lwEAgHMmDEj+B0rtmXGFrS2ZVV3u7hYl9mTuizQyrR9FW+fQZ7HTi6aLWj9klnbYunO6uN4cZm1LSs+KBo7djgcTP3jwcV6mxlNO0XkgQsH6RD+ypTDCljOSW+ssWQY1YmWy0gHFldaWhqAP+4qJXncnn766Uq542YEp9OJ4cOHY8iQIdi4cWMwajUvL0832CGaPrYyLuwqi2Y8pQpXSUkJZs6ciWrVqmHKlClwOBwoKioKjkU79IvF7lKFy4o8Wnm8dLeTK5XaPdlcdsoLL483lx3PxYMYODiixI8//oiCggLs3r27Up1xixWSJAVfrZKF3KpVqzBmzJiQM3Ic9kGSJBQVFeGhhx5C06ZNcd9990EUxYjXNBwcHOcv+AKOg8MAx48fx7Jly7B79+7gzQlVccfNCOELuUWLFoW8WuWwB4Ig4OjRo5g8eTK6deuGu+++O9kqcXBwpCD4Ao6DIwzk7MHhw4exZs0abN++Hd27d8cjjzyCxo0bJ1m75IMs5IYNG4aNGzdi8eLFWLVqFfLy8tCnT5+IO1U5zOGXX37Bvffei/79++P2229PtjocHBwpipAoVFokBetiWrKdz0/GcdBAxlH4+GGNJxIFTSsn0Ua0swLaC421Y5fIo50xoEWFke85HA4cOXIEy5cvx7fffotOnTrh6aefxgUXXGCuAc4DOBwODB8+HIMHD8amTZuwaNEiFBQUYOTIkRgwYEDwe6SdBUEIiXanRa+x+p91XoXVx1qu8FePWn1o8mjQG0+knHyHJi8aLlEUsX//fkyfPh2DBw/GDTfcEPE9Fo9V3VntrmdbyeCiyTPyGUR2OJeWJxafkSwu1tkoFpcV3bVlieLSs2MWF21e0NNdr921PoPWJ3q6m+UKLzfDxTwDRwvL1V/AAUjhJRzfBLAJFhqSVEnEAo6Uh0900ThIsmgDKs64kR23nj17YtasWWjUqJHpZz/f4HQ6MWzYMAwZMgQbNmzAsmXLsGbNGuTl5aFfv34QRTEYam+UfsDOBZweF/kOTR4NRs6YlT4hWi5JkvDtt99i7ty5GD16NPLy8kLSEITrkcgFnJl5IV5cdi7gYvUZyeaijaVo0ojYtYCLJo2InQs4Pa7KvICz6jOoCzjtRBaOyppGhKSy4IgNgoWM/KTtSa600DJ6yLUgCNTvE0OljU9JkhAIBCJkEnm0MO1weceOHcPbb7+N7777Dh07dsT8+fP5jpsFiKIYsiO3ZMkSrF27FqNGjQretepyuSBJUkRfEmdG63/isPRSdNCcncPhoHKR75rxd3rjichipUfR4yLydu/ejXnz5uHvf/87LrvsMihKxc5heHuQcUtrJyu667U7kWdXO+lxSZIEv99v2E40LtaYIfVoskj7mvEZeuNTj4uMXbu4WLZAxp9Z22LpDrDnfjLe7eQysi0aF2teYOluZMfE5hLlMyRJoi4k9biYaUSqEhRFQbXqOfjF90uyVam0UFUVPtmHnOrVdJMLVjYQQ/v5559RUFCAHTt2oFu3bnzHzSZod+Q2btyIpUuXYs2aNRg3bhw6d+4Mp9OZbBVTAmQy/vLLL/HKK6/gtttuQ/fu3QEguMDg4ODgYKHKLuD8Pj9at22N99d+gP379qNV61bJVqnSYe+evTh55iRatW4J2S8bV6gkOHr0KJYsWYLvv/8enTt3xpNPPom6devayKDi4LZ/4987DkAJblALqH5hX/z5ik74bc8WvLX+awgOCS6XC2pAhgIVss+P+m2uxLUjuuLU7k+w9uOd8GpeGbgadcE1V/dBDjtHZkpBFEVcffXVGDRoEN5//30sXLgQS5Yswfjx49G/f/9kq5d0OBwObNu2DW+99RYmTpyIjh07AqBfocPBwcERjir7E0+WZVxQ7wK069IWixYvSrY6lRKLlizCRV3bo07dOhHX9lRG/Pzzz5g3bx4efPBBpKWlYfbs2Zg0aZLNizcAKMUn7/0bH3+1D0eOHDn3325sWvcVzvpUODNqoEXbC9Higgx8t/lVrN7yCWS/Ey0v6oxGdbMB+PG//2zGv7fu1tTfhw/Wb8PJIl8I06a1r2LhZ0ciNDj99Rf4YNHXMLdvehafzFuDn87G8uyRcLlcGDZsGP75z39iyJAhWLZsGe666y58+umnwe+wzrhVZfzrX//CW2+9hfvvvz+4eOPg4OCIFoY7cKwDeJUB5WXlGHPNaCx4/AXMfWwu7rrrLqRnpCdbrZRHWWkZ5s+fj3K1DH8bfwPKyspsk80aT3rjTG/86ckj5zCOHTuGpUuXYvfu3XHacYuE5EpDVpaIrKyMig9UGRmqBFkQkNukCy4rKcXKr35Dk4t6oFOHq9Dy7DGc9B5Hj44DASiA5EZmVhaysrLOSRSRWeqGIFT85jr63UdYsel77Du8G3WvHgj1171YumQjfq3WEIPHXY0TH/4T89amo+7wTrhg38dY/slOqK27469X90O1oJZebF+2FFuP/Y4GA8diWI3v8M9XnkO7Wk3x4F+62r49LwgChg0bhoEDB+LDDz/EokWLsHr1aowcORL9+/dnnsMyGhtmy6yOJyNfaIZr9erVeO+99zBlyhS0aNEiKh3ioXtV4LJbXqpzWRnvduqeaC5W3VSw42RzhaQRoe2yyLJMv4cMFdEhOleeJR0V50gk3DLpZix/azluue0WXHHZFehwUQekuSOvojnf4fF4sevbndi8dTOatWuKm+66qSJ0WzH/SkdRFATkANSwIBfWeCIRd7TXR3qHVf1+P2RZDhm7RP4vv/yCVatW4eDBg7jwwgsxZ84cNGjQwPSzmEcWmjapj2qlhRV3IAJQkYY6TRoh1wlsXTEPX/zeAAMGjUPPay/BjqM10KVpNXz9rxewevFrGHvzjWjdohFqfV9y7g5FQFVdqNmgHurVkIDjX+DZx19DrUsGQS0+g7TAKXy6ZRN89TojY9dHWLukFi6t0xD167sQOPM/bNr2XzS4sBs+f3s1NmU3w7gBFef8fv66ANsOn0W7djl498llaPHAxahXpzaq56THNbbc5XJhyJAhwajVDRs2YP369Rg7diwuvvjiiO+TC59pZ8JkWWZG5smyTD0YT85z0saT0fhkcQUCAfj9/oh6Wi5y+PjNN9/Exx9/jOnTp6NZs2YRflfPFkiZGV+tpzstuk+re6K4/H6/LhdNnl476fUxzWfEorvReFIUxVYuPVsQRTGCKxbdWUEMsixT9Yi1nfRsKxx680KsdpxInxFeZqadJKBiVSfLMkpLS0OEkc/DL+IFAEl0wi/LkFypvTvn98twuV24/h/X49sd3+KbL3Zg6+db4fP5jCufZ3C73GjYpAHG3DAaF3W6CEpAqTj7ZrKLBUFAIBCAx+NDQAk1PBIxSnPGFT8IHEEZxAmQ/D/aS9TJd/x+f4jBOZ1OKIqCdevWYcOGDTh8+DAuv/xy3HrrrboXLNuJfZ8vwVenypAleVFULCPD7YSiOpHp/RaLN0gYMvB6pP3vE+z94C18VlwGWQX+48rEBfUvx7V/bg7P9+uxbucx5GQrKDpbgvQ0N1QVyM0+iuUFG9E24wR+6TgBT9x2NVYt/B371Gpo3qUfvv/vQRQXF0Mu9KLhgAHo+5MPHZtdjOIOh7H/6EkIp4pQ+rs3qGejdv1R5+BmnDpzGsLhkxDrtkPftj3RuGcbJOp32bBhw+BwODBnzhzk5OSgffv21HxPrF+y2gjk8EnD6/UyJxkA1IlJOz61Y42UkUVYOJfP50N5eTl1MgYqxqXT6cRTTz2Fffv2YerUqWjQoAGKiopMcamqCp/PR90VZ9mW3nNp7S6cS1EUy1wsO2ZxBQKBYBuGt61Zn0H8DwCqz/D5fMF5jcbFukTcCpfX6w2OX1oeOCtc2p0dLZfH4wk+U7RcLFvQm/vJc5HFSaxcANuOSX8BiFjEaecFljyzPsPn81EXY/HyGWVlZUyfEQ2XRBrC6XSiWrVquhXCkeZ2p/yBW0EAZH/Fr4UOnS9C526dz6W4SO2FZzKgomK3TZZl+H3+ir610ExkPGVmpQMIfWUdreMPl8cyVL/fD6/XG3zVeOzYMcybNw+yLCM/Px+iKOLdd9/F3//+d/Tt2xcjRoxArVq1zD+UCbgyaqJuXQH1GwgoOfwplm8vRNfWzSH/dgpnWzqRk+HHjm+2oqj2lbionnBuh82DXe9tw2+DL0JtdzZqX9AIdeo2QKBwN5Zs3YlWLdsh038KhQ3awZ3rguucMwsEZHiLvseWZ9fCc+UYuODHGVFCoLwMQloWTn2/Cf9+YzO6jL8SfkWGonlN+b9Fz+PzH2piQK9qKIMANeBDuTdgKW2MWSiKgk8//RQFBQUAgIcffhgDBgyAy+WifldvAcdamAuCgMzMTMvO2AwXAGRnZ1OdMeGZPXs2fvrpJ8ybNw81a9ZEIBBATk6OpefKycmxRXejCVcUxYRwybKM8vJyZGdnRy1Pr0yvj30+H/x+PzIzM23RXY+L/KDMyMiwjYtlCySNSFpa6NulWBdVrNd8Lpcrwl5j4dKzrfT0dGpKHasLOD2urKyshPkMmm2ZaSfDYy6kkWjKqWrluYmh4perH/BFbsVyJA6s8RT+q9FMGXFYixcvxubNmzFw4ECMGzcuaPAPPPAADhw4gKVLl+L+++9Hr169MH78eOoPFjvQtOMgfLPxNnzXdSoeHtoI2x58E+kZGZBcOeh86aVwuo7A75dRWlSIwmAtP8plBX5ZQc0WA9Dko7tR4ByPp+/shR2HZsKRkYEMh4Q2vfqjW/2T6PL2NDw46zucOXwQ7Qa2RbmvCCW/nUXNmg74HKcgZVXHrm/+jfpdOsDnPYPfZRUZDT0o8f8eZBRVL4rPnEG5WB1pdU/BIzvh8e3Cpve/RPvreiBeyT42b96MdevWwePxYMyYMcGFm14fA/SzIUb+ifUakgWj8WnEFV4miiJ8Ph9mzZqF06dPY/78+cEfG/GwBbO6VwUuVh0W9MZFZeEyO95j0b2ycsVix3bobtVnmOGqsmlEOM4PuFwufP311ygoKICiKJgyZQpat24NoOJXPdm+btmyJaZNm4a9e/eioKAAd9xxB/r374+RI0favCNXgvVLnsAX2R3Q9PAK3PDmxzgm5yAnvRAiTuP9lSvQ/i9XomZ2Ns4oAfyRXk+BMzMDWW7g8/eewaqzF6Btza9x058/wi+lIpo3KYRPBD5d+hra3zURf556DzZu3YkLR1+PVg3rwd+zFv710R60GnsHRuRWQ82a2RjxNwGNLu6LutWrYfvPKv48ZSpqVG8Y1LTTTVMxps57KM5piimP9UT13Dpo/OAN2Hc2y/YfZmTHbcWKFQCAoUOHYsiQISHlegllKyu8Xi+mT58OAHj66aeRns6DqDg4OOyBIMuySravq1evHvEFvYOMm/eshuBIR8MaLSErfGeLA3CIEk4VH8XZ0uMY0uHaiHKjA59mbmLw+XwoKCjAxo0bMWzYMFxzzTUR8lhZsH/44QesWLECP/74o807cgqKfv8dWdVrwqGU4OdjxXA7VHjP5dFzpGejbm41CKJIzeGjqgrKis9AzMlFOrw4cuQ0nA4BPr8fKgDBmYY6derAncLBQ+H48MMPsX79evh8PgwaNAiDBw+G2+0O+Y7eAs7o4Darj8+ePYvMzExbDySzuIqKipCdnR1Sr6SkBDNnzkROTg7y8/Mj6lmxBVVVcfbsWepYtaK7UbuXlJQkhMvv96O8vJz6SonVx3rtpNfHXq8Xfr9fE+Edm+56XOXl5VAUJeJ1bSxcLFsoLS2FKIoRPxKs6q439xcXF8Plcpm2Yz0uPTtOT0+PSAAeSxCDnh1nZWUlzGfQjlCYaaeq9XOXo0pDu3W8d+9evPTSS5AkCY8++iiaNWtmSk6bNm0wbdo07NmzB6tXrw7uyI0aNQq5ubkxaCmiWvWa5/6ZhcYNs/S/HgZBEJGZQ/jdaNiwfgy6JA+BQADbtm3DihUrIAgChg4disGDBwcnoKqOoqIizJo1Cw0bNsTEiRPPi2fm4OBILELSiNBCslmrS0mSoCgqHA7umDgioZxLPRIe0m70a4Uuq+JQp8PhgM/nw2uvvYbPPvsMEyZMwKBBg4Kh1dpLhbXjWe8Xbrt27TB16lTs3bsXK1aswD333IPevXtj3Lhx1B1pDmOQM25lZWXIy8vDgAED4D4X8FRcXAy32x1x5i28/7Qw2oGj9TGJ2CPjT8tFxhntrEk0aW5Yh5XJYeZTp05h9uzZ6NixI/72t78Fx6dZLhpImZXUHnq2EA4Shagoiql5IV5crLNCrHZi9TEZFySC0qzPsMJF6trFRbMFURSD8sLb0IruALuPCRf5zy4uPTsmthXOxTqzZmV8CoIQTPkSLjNePoOkYzHDRT0Dx3KQqqoyt1ErhKR2FCpHckAGWPg2MGs8kcHKurAeAL766iu88cYbaNSoEebMmYNGjRrB7/fD5/PB7XaH1NXKoxmqIFRcMkyMoW3btpg+fTr27NmDVatW4a677kKfPn0wZswY1KxZM8bWqPoIBAL49NNPsXLlSqiqGrwLlYD0hyiKzEvfSZ/QoOef9C6mpnERsCIAjcYnKyrP6XTi5MmTmDVrFvr06YMJEyYEJxnW61CztkDq2KW7XrtrL2JPNhfrFSqpywKtjOgdrotV3Y24SH27uFjtRJ7LrG2xdNeb++PBpWfHLC7WK9RY7JjkbDSjuxUuYses3flo2inEq7AeiBW2zN8KcLBAxgbLOemNtXAUFxfjjTfewJ49ezBs2DAMGzYsWEYWYGbGrp4O7dq1w7Rp03DgwAEsW7YM99xzDy699FKMHTsWNWrUiOrZzzeQM24ejwd5eXno169fxNkY0tZW+sTuMq0udnHl5OTg8OHDmDt3Lq666iqMGDECwB/O3SoXDXa3RSLbPV5ctM+1f+OteyK5KrPudnPZKa8ycvEzcBwpjc8++wyLFy9GrVq1MGfOnLjvhpFXFC1btsTDDz+MH374Ibgj17dvX+Tl5fGFHP7YcVuxYgVEUQyecQP+yAXF2vmqivjmm2/wwgsvYPz48cF24ODg4Ign+AKOIyVx9uxZvPbaa9ixYwduvPFG9O/fP2Hc2rMHbdq0wdSpU4N55CZOnBhcyJ2vr1Y3b96Md999F16vF2PHjkX//v1DIsTIeZXzBV9//TWeeOIJ3HLLLbjyyiuTrQ4HB8d5Ar6A40gZkHNCW7duxauvvooePXrgueeeQ40aNZgHQRMFkkdu9+7dWLduHSZNmhR8tXo+LOS0Z9wEQQjeZXq+46OPPsLzzz+Pm2++mS/eODg4EoqQBZxetmNahI2iKnCKEiQxXjnbtYRIXLxEQrkEQCfzsr1ciPtzOUQJDlGColZEIoWPG9p4Iu/0T5w4gZdeegmFhYW4+eabg7tuJJJH75qtaHiiLaPpDQAejwcXXnghOnTogP3792PlypWYNGkSevXqhbFjx8aYfiR18eGHH2LdunXw+XzBM24ul4t5SbOVtrfaJ6w6RlxG8vT0I8+8fv16vPLKK5g6dSq6detG3XmMlSvaOomUlywus3W0f+Ote2XmMisvnlw02NmGenWM6hnpbpWL9rkRF0FIGpHwi2mBPybP8M8lSYIICXuPfYmTvx8KTthxg4qEXV+qqokL0FAU9dzdrPFHIp5LEEQUl59B/ZzGABAR5h8+nsiu24YNG7B27Vq0bt0a999/P7KysoLfpY3LCq4/wvTJ9whU9Y8UA+GLDBLqTlt8sNISEK7S0lJkZ2ejVatWyM/Px/79+7F8+XLcfffd6N27d5VZyMmyjE8++QQrV66EKIoYNmxYyBk3r9cLgB4pxfIZgiAEU0WQCGACoz4RhMjLoEkZkc3iCq/L6mM93cl4EoSKCMCCggIsXrwYjz76KDp16oTCwkJkZ2dT/WcsXOEg45wm10geEL0tkPFudl6IFxdNnl476dkx0SMRPiMeXDRbEEUxKD+8Da3oTspofUy4tM9mBxfAtmMWF2txZGV8knZl2Zae7ma5iP608WumnULSiLBCZ1mhxF3q90X7et3hdDpDFgbxyMZcXFxMvdA2HhmSz549S73Q1m4uRVFw4MBBtGzZgspFJgsal9kM3oqioKSkhJnp3K6s6qpaccG6GKjYlaXpoh1rx44dw5tvvomDBw/i9ttvx8UXXxzkJt/Ry7gtSVJw50Orv6qqQR4z7US+q8dFDF0QBLRq1Sok2OGee+5Br169kJeXZ/MVXYnDBx98gHXr1sHv9wfvKiVn3Mhzk7Yz6zMcDgckSYqoZ9QnLFsgMml2zOLS62OW7uSCblEUsXTpUmzYsAFPPvlk8No2knqAlurALFd4G4eXkecyK8+sLRB5VnQ3yyVJEvx+v276BtoCjtVOeu3ucDiCQTbx9hna9Ch2cbFsgYw/s7bF0h3Qt2Nauo1YuPTsmMXFmhdYuuu1O6ljl88w4iJ2zIpCjaadYjoD55bSUT0tF6JE2dZRAPpdQURLShmrDgC3mo3MjIzIcovy9MpcShaysjMjC+LAVVZTRq3senQu1m6ZRa40lCIrk/JcFuUxyxSgpLSUUemPgfnee+/h7bffxuWXX4777rsvJPVEMs+7RYNw/Uiww8GDB7F8+XLce++9uOSSSzBu3LhKsSMnyzL+85//oKCgAA6HA8OGDcOgQYMivpfq/RIvEOf81ltv4b///S8ef/xxNGrUKMlacXBwnM+IaQGnqApkxQ8XXKGfk1W4SNmBU3R2sRQZDoG+Wg0oMmRFjpBpJE8EY2dJCehy0dIg2M2lqiqq16gWXKmHczF34BjtpNfuiqIgoERmb7equx6XrMhQVPo2sCRJOHLkCBYsWAC/348HH3wQHTp0qKgny5XyMnOyUylJElq0aIH8/HwcOHAgeEbu0ksvxZgxY1C7du1kq0oF2XELBALIy8tD//79g2O8svZJPPDSSy9h7969eOyxxyrFopyDg6Nqg3vmJEJVVZSXlyM7OzvZqiQMy5cvx+bNm9GnTx/86U9/Cnk1V9mhXYi3bNkSU6ZMwaFDh7B06VLcd999KbUjR3bcVq9eDVmWMWrUKFx11VUh32FdiXM+4vnnn8fRo0cxc+ZM6uXuHBwcHIkGX8AlGYWFhahdu3aVfzV14MABvPHGGygrK8O9996Ltm3bJlulhKB58+bBV6tkR653794YPXp00nbk3n//faxfvx6BQABjx45F9+7dkZWVlRRdUh2KouCZZ55BUVERZs6cGZLvjoODgyOZsByFmoxIFNqFtvGMDrEzoozGpSgK3G43s93NRt7ptTurr2LRXS+iTBsRtXLlSmzYsAGDBw/Gn/70p2B/avn0IspSKQrVCpeqqmjRogUeeughHDp0CG+//Tbuu+8+9OzZE+PHj0/IjlwgEMDWrVtRUFAAURQxfPjw4Bm30tJSlJWVIS0tLa7Ra5UpClUURXg8Hjz11FMAgPz8fEiSRL18Wqs/j0LlUajx5uJRqH9w8SjUMMJoQRSmKW43tByJeNWWqNd5giAk9FqmRPQVUGHg2dnZOHDgAJ555hlkZmbiscceC14+T74TK7RjIhFj0CqX1pCbN2+Ohx9+GPv27cOqVauC6UdGjRqFCy64wHa9gYodt3Xr1kFRFIwZMwaXXXZZMBIPqHid6nQ6q5Qdx8LldDpRUlKCWbNmoUaNGrj//vvhcDjg8XiY5wEJXyJ20hPpA1PdtqxwJXre4lyViytRsIPLMI0I+TVqJpSYhDqzwmBJXRqX2VBiI3ms8F5SR49LL22BHVyqqgZD52l6sIIYWO2k1+7kVHgRXAAAIABJREFUc7t0N+rjBQsWYOfOnRg5ciSGDx8e8Ux6XDTdyTOHg9VXsejO0oN8ZgdX69atkZ+fj0OHDmHZsmWYPHkyevToYduOHNlxW716NRwOB66++uqIqFLyHPGwY7t9hllb0OPS093hcOC3337DjBkz0KJFC0yaNCnIQ9ILJNJn0Ook0o5ZaUTs5iJBY2bmBb12IjBKI2KH7kZctLEbC5fZNCKpZMd6XGbtWG9esDr3k/ZL5DqD9aMvmnbiZ+CSCFVVcfr0adSqVavKnIHbuXMnXn/9daSnp2PGjBlo3LhxslVKWQQCATRv3jwYtUp25Pr06YORI0da3pEjO26qqgZ33MjRg6oyzuKF48ePY/Lkybjkkktw2223JVsdDg4ODib4Ai7J0OY+q8woLy/H8uXL8dFHH2H48OEYOXIkTz8RBch5sJYtW+Khhx7CTz/9hLfffhsPPvggunfvHvWOXCAQwJYtW/DOO+8Ez7gNHDgwWE6SNfMFHBuHDh3Cfffdh0GDBuGWW25JtjocHBwcuuAzbBIhCAJyc3Mr7aRKFmi7d+/G/PnzUb9+fcybNw+1atVCcXHxeZUexS40bdoU+fn5+P7777FmzZrgXasjR45EvXqUhM8ANm3ahHXr1gEARo8ejcsvv7zSjqlkYd++fcjPz8fw4cPx17/+NdnqcHBwcBjCcAFH3mmbKTOqYzeXWXnk82RzCYIAn89nqQ3tqmNVdxKl98ILL+C7777Dddddh8suuwyAfhRNosaMUbunOlfbtm0xdepUHDlyBIsXL8aUKVPQrVs3XHPNNahZsyYURcHmzZvxzjvvQJIkjBkzBpdffrlp3aN5LrO6p8LYNeLSYteuXXjsscfwl7/8BVdffbWurET6DDN1opFXVblYdVio7D4j2e2USlxm5SXDjuPJJZEPFUWBx+OJqMy6JxMAfD4fgMiEn/G4C9Xn8wXvKTMjz8pdqD6fDx6PJyF3of7666/Me1cFwd67UH0+X/AScqu6O51OiKKIrVu3YvHixWjatClmzZqFBg0awOfzQVVVyLJsmYulO+uwqt/vp3IZtbuV8en1eoN3Ysabq7y8HKIookGDBnjooYeCO3K33347Bg4ciJ07d6KsrAyjR4/GZZddBrfbDY/HQ9UPMLZjWkh+LHasxyUIQsQi34jLrC0QLtqBZCIvPT0dX3zxBebPn4/rr78egwcPRnl5OQB6oEqifQbrLlQ77JjAqN0TxWXkM1hBDKx20mt3n89HvWEkXj6D5rti4WLZArEtu3Q3smNa1GY8536az2DNC7HO/TSfoad7LFzhZWbaKdjKiqLA7/dThek5T5pipGFpYbJEHi3LO8mzRZMZCAQgyzJ1wKiqypRH0518X4/L7/czF1V2cSmKAqfTSW1HvXZntRPhorU7yTlD0niY1d3hcCAtLQ3Hjh3DokWLsH//fowbNw6DBg1CIBBASUlJiDyrXCzdWX3s9/shy3IEl1G7s8anHpcsy0E7sYtL+zecSxAElJaWQhAEtG7dGlOmTMG+ffswceJE/OUvf8Ho0aORnp4Oj8eDkpISS7ZAuAB6PiqrdqzHFZ7LMVouM7ZAuPx+P/UHZnp6Oj744AMsWrQId955Jy699FKUlpYG2z0VfAatLcikYNWOE+kzzIwnWZZ1uazormfHifQZJNuAXVwAPQ0TGbvhXFZ1j2but9NnGNlWouZ+4ucTwaW35oqmnSRC5HQ6qWeWaOHWWqSlpTF3TVhh/wA7sR2LS1VVZGZmMkN1zcozKsvJybFNd6M2pLW7XsRgLFy0jPvRyvviiy/w+uuvo2XLlnj22WeDbSSKYkiGelInFq5wsNpDlmV4PB7buPT62Ov1IhAIICMjI+5c5FdWWlpayOdt27ZF69atcemllwb1SE9PN5SnB0EQ4HQ64XK5IsrstmOir14qCRqXFVtQVRVZWVnUulu2bEFBQQGmTJmCdu3aAQAyMzMrhc8gz2WXPKM+TgRXIBBAWVlZQuzY5/PB7/cjMzMz7lySJEFRFFt9BssWyC5QuM+wqruRHbtcroT4DFVVkZGRwUyrYffcn52dTf2xYEX3aLjCYYZLCq9EqwDQV/ysFSlZddLqkO+zHDjrvTDhCpdpJI+mO5GVbC5FUYJb7LQy1q8fPXl67W6lj0VRxO+//44XX3wRP/74I2666Sb06NEDAPuicytcrDbXymO1O2unwmo7AewcPInkYoEsWqOTF4C33AffuZ0vh9MJt8sFrZZ6v86t2jGg7zPC6xlxmbUFPa5NmzZh9erVeOCBB9CyZcuodE+Gz2C1n1XbSoTPiBcXTZ6RzwBSw47t5mLZQqLt2G4us3ZsNC/QdI/Wjmlcerpb5WLN/XpcWnk8CjXJOH36dEpHom7YsAGrV69Gjx49cMcddwR3GWgLd47UgiofwRt/m41vamXADQWCIMJXIqNtn7/iH9d1Afu3ddVFQUEBPvjgA+Tn56NJkybJVoeDg4PDMvgCLslwOp0puXg7evQoXn31VZw5cwa33norevbsmWyVOExClcvx26FiOJtdgGpQoQoCSksKUXy6CAHgvFvAvfXWW/jiiy/w8MMPo2HDhslWh4ODgyMmGN6FSrb5wssEQWCWsT7Xcuhx0aDHZVZ3Pf0SzZWbm2tbOxm1u1EZwbp167B+/Xp06tQJDz74YPBMhfY7sXKZHTPR6G6XfuGyEs1FbCv8e6SMVVf7WcU2O6D4/RWRulABQYDf54OsqBWLN7Xis3jZsZ39b8RFg/b1ynPPPYc9e/Zg9uzZqFmzZjCayw79jOoZ6W63LdgpL5G6G3HFQ15V8xmJsONUmvvttAU9Xey2BRZPtFwEIWfgaOcQAoEAlUgUxeD77vB65DNW5AULpCy8HonICAQCERFsRvJYDcviIvqTumZ0N8ulKBWpPUjUSbi88Ik8XA/W2QnWM9H6isDhcODw4cN45ZVXcOrUKdx9991o3759MForWi5BEIKRMmbGE2knlu40ncO5tK91jdrd7PhMJBexLTLutVySJAVtNVyG9t+CIEBRs9AxrzPKSzwQBRGSoMDRsCFaX1gfARJ5eo6LPJtddsxy/ITL4XCY4jJrC4IgQJIkyLKMOXPm4NixY8HFGy1VhZHu0fgM1ni3yqV3Rocm16oPiocd281Fk6fXTnp2rLXhePuMeHDRbIH4DFI/nnacjLmfxcVaHFkZn1r/ZFb3WNYZtLlfj0srL+Qye9ZhRVqOE/J9Vpkg2HuhrSiKcbksOplcgiCgsLAQubm5VC69PjF7CTKRxToYuWLFCrzzzjsYNmwY8vLy4Ha7g4PSLBdpOzPjSdtONN2JHnpcWh2N2t3K+CSfxZuL9JX2L61cV0/5FJa8+Cx2/Z4Gp68EvxYVQapeH81qiPj+k1ewxzsB04Z3CxkXdtoxq/+tclmxBVmW8fDDD8Pn8+Gpp55CVlZWyDiy22ewnjkWLlYdO31QvOzYTi5WHjhSlwVambav4u0zyPPYyUWzhXjNx6ky97O4WPNCrHM/S/94cLGOUEXTTiGvUGmCSIeYKTOqYzeXnfISySUIQjAxrtk2tNLuLpcLxcXFWLNmDUaPHo3s7GwcOHAA8+fPR3Z2NqZNmxZMqRArVyxltM+1f1l1otUx1vGZbC5W3ZDPnHVw/cSHseOzNajRaQJ+/GA+Hlp7BPUzagJ1e+D6K7qFfD8V7NjO8VRWVoapU6fC7XZj3rx5wXQH0bRrKvkMGuzWL1X6OBYuK/Jo5ZXBZ6RSuyeby0554eXx5rLjuXgQQxIhCEJUF5XbhYyMDCxYsACPP/44evTogR07dmDr1q3o1asXrr/+et2cPxyVDN5C/O8/S5H//Br0GX8Bahw/Cp/XW/H68OwJHDx+Gk1b1Uq2lnFBSUkJpk2bhpycHMycOVN3N4CDg4OjsoIv4JIMkgU/3hBFEfv27cMzzzyDoqIiPPnkk2jatCmmTZvGI/KqIjwnsfv3LCx47V3s+3AhPjjhxuB2NZDmdADyaXx7+BiuqIILuN9++w0zZ85Eq1atcOONN/LFGwcHR5VFlV7ACQL93Az5XG8LlXV+hwXW+Q0jrsLCQtSqFTmR6tVhlRntoL388ss4dOgQgIr8bq+++ipyc3N1EzZyVFJUa4frxla8Dm9xzR0YfE2S9UkATp06hZkzZ6Jr16644YYbUFZWFgyY4ODg4KhqCIlCpUVSsBK2CkJoKDEtEoVWl3xGW4CwshYTLhJ1Es4VLo8sRARBCEauahFtdEh4Pb1LZkkkihkukrGaxcVaSFqJ8vroo4/w3HPPBT8rKyvDxIkT8eKLL2Lo0KHUnUDS5rQ+YfWxIAgh/RTteCJcrDGjqpEZq/W4rOiu1S/ZXER+OBcZD+QzrVw922JduGxkW1btmIZYuFg/ZhSl4uLsX375BXPnzsVll12GvLw8ABVXJpEzpkY+w0h3vT4m5droYDu4aOUsHqu6x8uO7eaiyTPyGUR2OBdr3oqXHdvNxTobFY/5mIZkzP0sLtq8oKe7Xrtr/ROtT/R0N8sVXm6Gi3kGjhaWy1IumlBiOztRj0srT5IkeL1ebNmyBdu2bcOJEyciFifa+qzJTi/qidUZtDI9LlVVIctyyD2idnDR2u/AgQNo2LBhMHFw9erV0bJly+Bl3w6HIyJ8ORZnTOsrUo+GWBZwpFxbN14LuERwadOIENna8ag1elEUg+PbipOJlx3TYGTHVhZwLpcLhw4dwuOPP44hQ4ZgxIgRIYvEaHxGNLobOWPCY6fjZy3gjPrEjO7RLKqs2LHdXHYu4Cq7z2C9fSHfj7cdp9LcX5kXcFZ9BnUBJwjs0F/W60ESbsu615B2TyYh1gvTpSnucDggSRI15YJW3rFjxzB37lykpaXh//7v/3DRRRfB7XZTuVjQ7oDEG4nicrlcIZccl5aWYvv27di4cSO2bduGhx56CDVr1gypQ4yD1id6fayqqm4oNivkWhAE3btVafIkSQruYGplWtVdb3wmkovIIlxFRUVYt24dBgwYgOrVq0NRFBQUFKB58+bo2rWroTxA345pthWLHdvNRdoiHN9//z3mzZuHCRMm4Morrwx+n4y/aHxGNLrr9TGRxUqPYpVLz7ZoZVZ012t3Is+udtLjkiQJfr/f1Lyg105GtqUoSlLs2A4uli2Q8ZcoO07k3M/iYs0LLN2N7FgUxYT6DEmSqAtJPS5mGpHKjtOnT2P69Ono2bMnbrzxxmSrk9KoVq0aLr/8cvTr1w/PPfccZsyYgblz5yIjIyPZqnFQIEkSXn/9dTzyyCNwOBzYsmULfvjhB2zatCnZqiUNX3zxBRYsWICbbroJ/fv3T7Y6HBwcHAlFlTi1TlajixYtQpMmTfjizQQkScI999wDt9uNVatWJVsdDgYyMzMxY8YMHDx4EPv27cP27dtx7bXX4tJLL022aknB1q1bMX/+fPzjH//gizcODo7zElViASeKIk6fPo1du3bhjjvuSLY6lRJ33HEHPv74Y91rhjiSiwEDBmD06NEAgNq1a+PWW29NskbJwbvvvosFCxZg8uTJ6N27d7LV4eDg4EgKqsQCDqg4C9OkSRNUr1492apUSjRq1Ai1a9fGDz/8kGxVUhZpaWkh5wgJyDkcvTMVNOidE2Rx3XfffcjOzkZeXh46d+4ctTxJkphpYtLS0qjnRK3qHg8Q3ZctW4Y333wTjzzyCLp06QJZlhN2XpWDg4MjlWD5MvtoIspoE1o8LrN3OBw4deoUNZ8aR3QQRRG5ubn49ddfAfzR74m+BJsVeUObpPW4rOhO9CMgC5TCwkIcP34cZ8+ehaIoyMzMpHKZPZDMSksjCALKysogCALS09NDuCRJwhVXXIHu3btj165d1MvsaQsrvTQiJSUlkCQpYhEXje6SJKFGjRpo0qRJ8HO7L7Mn33vrrbewceNGPP3002jRokWQi8hmcYUHCsXrYmrWeLfKxWoL8lx26B4vO7abiyZPr52ivWDebp+RCC5a4BvhIvXtmo9TZe7Xi0I1o7teu2t9hlndrfoM2y6zNwuaQskEK1SXwxwqaxvaHc3rcDhQXl6OV199FQcPHtR1FomEw+FA48aNsXPnTmzfvj3Z6gCo0CkzMxMTJkxAx44ddR2QWZCk1S+99BK+/PJLPP3002jcuDEzdJ/DXiTSHyTa91SlbANVuZ8Sicr2bCFpRGivWFRVZYYSk89pv+r10pIA9F0CEhLMehVFC9PXlnPEDtIv2h0SWp/o9THpJzPjScsVDuL89LjCdbGqO6lz9OhRPPnkk6hbty5uvvlmtG/fnvpdjoro7y1btuCFF14IycVmxo71+mTBggXYv38/nnrqqeDdwdqExlZ9BssHGY1PFhdrzMfCxapjl+5Gdmx2XogXl15eTrPzDNHbTp+hx0Xq28XFaqd4zMepMvfrJSG3046J7npzg11cxI5Zi8Zo2qlKpRHh4IgVgiDg7NmzmD9/Pi655BJMmDAh2SqlPHJzczF27Fh069YNc+bMQZ06ddCrV6+Y5aqqimeeeQYnTpzA7NmzkZ2dbYO2HBwcHFUDfNuKg0MDURSxfPlyVKtWjS/eTKJZs2a49dZb8dprr6G8vDwmWYqi4IknnkBpaSlmzJjBF28cHBwcYeALOA4ODYqLi7F3716MGjUq2apUSnTt2hV169bFl19+aVmG1+vFnDlzAABTp05Feno6P/PGwcHBEYbgAo71HlbvXAcrcECvjlEZSw+99/56+nOYg7YdSZtb6WOz44nVv0ZcrDFoVfeioiKUlZWhXbt21HIOfQiCgCZNmjDT0ej1lyRJKC0txcyZM5GVlYXJkycDQPDaIxqs+gyzY01vPMWLi8Vj1bYSacdmuYyeS8/GzeinxxVLO6UyVyzzcarM/XZxJcOO7X4ubR2JCJJlGWVlZREEJP0A7aClx+NBIBCIuIydhLrTDuGRX9I0BbX3TGojdggXEHmwT1EUOJ3OYDmHdaiqivLycvh8vuAF6STlAxAaSaXt4/AIq0AgAI/HA0mSqCkBaOMpfMyEc5GDotrPBUGAz+cL3qEYK5fD4UBRURFkWU5ojrOqhrS0NBw/fhyKooTYJbHj8NQkgiDA7Xbj6NGjmDt3Lpo2bYrbbrst+F29C6FZPgMAPB4P1SFH44MIHy1lUfjnhIuVRsZOLlVVg7alJy9aLj07Jv1nhcusz5BlGV6v1xafIQhCMBKa5TPIvEbjYh0et8Ll8XiC3wvvR9YcacRF+pDGRT6Llos1PqOd+0kKjVi4AOO5X1XViHGonRdY8qz4DNoCKlV9RqV5hcp32CoXeH+d3zDT/2lpaTh06BAeeOABXHTRRZg4cSIAVKrXpokc75yL43xCVR2DdnBJAIKrW9pF5nqvLwKBANxud8QOnF497S8GM1yyLCMzM5MaqisIAjVrPYc5CEJF4liXywWXywVAv09YZWTiTU9Pj7qOURkrLYUkSfB6vbZxZWRk8IkkRqiqCrfbDVEUI3xKIBBAWlpayK/pw4cPY+rUqRg8eDCuv/764OdkDLL6HjD2T5mZmdSdG8C8D4rGP4UjHlyBQMC0r7ZSRnZTEsEly3LQ/9ilO0Bvd4fDAb/fnxAuQahIDmsnF8sWyG4UbS60ez4OBAIh80Q8uWRZRnp6OnUnmNUesdpxZfEZYnglWgXWL2Fa9mGjOkZlLD2IM6HV0dOfwxxo2+FW+tjseGL1rxEXawxa1Z2PI3ugZ8fast27d+POO+/EiBEjQhZvWsTDZ5gda3rjKV5cLB6rtpVIO7Zid3pcejZuRj89rljaKZW5YpmPU2Xut4srGXZs93Np61SaV6hVBUd//A67jxQlWw0OjqSB/LL83//+hxkzZuDGG2/ENddcU6lemXJwcHAkG3wBZwkqAn7AX3YWR46ehF8Fik8cxYlSb/Abxb8ewZHjJZo6fhz95TDeWfkqXv7kMADg7IlfcPTUmYpiWYVcXo7jx46h1A94T5/E8TPFCXwmDo74QxAqok0/++wzzJ07F3fccQeGDx8OoHKdeePg4OBINkJeKrO2evW2gWllRnWMuGjQ42LJix9UbF/4MlZ89SPOyEeQmdUE9YuPYovYCi88cz+qf1uAGXPfwa++DAye/gj+3rU63pk3FQt3OpAuHkPrDpn45dAKPD73PRSeBUY+8CT6ln2OZ1/+D37PPQN/SRYuTA9gy0ngjkdmY3C7aol7Mk17Wul7q2WpII8WKcRhDTS7FAQBmZmZ2Lx5MxYuXIi7774bl1xyCVRVZV4IzZKlLbPTZ1gZT4nkSgXbShaX2Trav/HWvTJzmZUXTy4a7GzDVLFjbTntcyMuAklbQHtfy3KsoigG39WG1yOfsUJ4WSBltLBlRVGCIbRarkAgAEmSdN812w8Bpb/th6/O/+H1+6sh7/7F+OuzL6DtffNwcPde/PLqDvR54DUMr7Ue98xdjUvubo+1R+ph4aIpeO+lqdj5+x6se+pNXHTDP9H32DLMX/YyGvRugt8djfHsvPsw+e5JaDDpn5i+7J/Y/p99QLvuCXquP/qA9DurT1h9TELdaeNCK5c22EmIfDhYfavlIuM3XJ4Z3SVJigiL57AG0hdae5ckCevWrcOaNWswefJktG/fPtjeRj6DtbiOxmfQQvtZMBqfNC7yvKzxbpWLxkPaiibXiu5Gdmx2XogXF02eXjux2p2MC7t8RjK4aLZA5mNS3675OFXmfhYXy1dbGZ+kXVm2pae7VZ9BG79m2inkMntW7itWYjly6SstN5uiKNSoEUKsd1ksK3JIkqSIelp5iYseDEAVWqFDs1YQXGdQvXN3XJDtwm/pGUgv/x0/B5ri8kbVkFWvFzoUr8XPx3+Dp2Vn5EgC6rfsjG/OlEP5VsRnbzyNb9NlNOvcG4onB22atIBbDCDtwh6oXz8bmU43Mp2JfctN+ozkYyLjguVkWJFBehcC08YT4aLJI4ZKk0cWXeEyreouSRKPQrUBpK+0bbxx40asXbsW06dPR/PmzQH8kTvLyGcIAjtpayw+gwa98anH5XA4qPm0rHLp2RatzIrueu1O5NnVTkZ2R/I50sC6zJ7VTnrt7nA4oCiKbT7DiIuMXbu4WLZAxp+d83GqzP0sLta8wNLdyI5FUUyoz6DNN2baiV9mbxGyxwePNwCoXpScPQsfAvCWlELNugCda6zFzq1fo1q1f+HrhrUwuuNFaLV6Mb7c0xpfffIe1LZ/Ru6wNhjQ/y4MCnyDL49nIy1wFqWlfgAyyoqL4PEF4Cv3wOtjr8Y5OCoL1qxZg48++gj5+fnBxRvAc39xcHBwWAVfwFmCgDrtWsCfkwWICnq0bolMOFCvS2ugekNc9uAEPPbQM5hX1hg3PnkdGtTLwLhBTfDYY4+iY9dLMaRDV/QYnobHp07HwyVpGH/vdDQq/wmty3IAZKBTq3aoIwmo1q41mubUSPbDcnDEhDfeeAM7duzA9OnTUbNmTfj9fmruSA4ODg6O6MEXcJbgQOdxQ9EZAFAf945qCwC44PZrzpVfghlvXhJSo+OYiVg2RvtJb8x8vrfm/9fHuB4V//r7yPEV/xg7Gs1s152jKsO3dzM2fe3D5X8ejMgUkYkDWaA999xzOHjwIGbMmIHc3FwUFxfzpNscHBwcNoAv4Dg4UgzeE19h/ceH4GrTE8M7NwVQik/XbsQJsS1GjOgIh+d37P7pMI7v+QHOC3rgikubAoEifLr5fXz3+Yc4eqAeeiVxASeKInw+H1588UX89NNPmDNnDjXjOAcHBweHdVSJKFRyKJVHD8aO8zkK1eFwJD8KtfhHPPbGCiCrGXz716Nd0/E4u+yf2PxzNsrPfIDD7om4ocEPuPmBhRh+SUd88r/1UJ6Zh/TPHsXr29NQzfMbiqu1RDL3uDIyMvD888/j+uuvx6OPPoqMjIxg3xI7djgcpnwGj0L9o4xHoYZypUJkaCK5eBTqH1znexRqSNiEmYmLKExT3G5oOVhcfPGWGtD2UyLGRaK4EoaAB2ViIzRs2hqjRwxH07QiPLN8Nxzt26P7hZn4/JVtOOqV0LDRaORPn42xVzfF13t2Y/9Xx3DHo4/jqZuuQpPGPviS+Aherxfdu3dHfn5+cPEGRGfHdiGRXOF8ieBKFEdVs+NkzFucq3JxJQp2cBmmEVFV1XQoMQl1ZoXBkro0LrOhxNpyHtEWO0j7andIaG2r18d6aURY40nLFQ7yy4gVpk9L32BV96SPo5zWePCaUqx470t8sPczpEtXQW2ehaJjP+BkRjMMGdsRTrEQOZ0aAfBCkbLhFGRISgbSnIDD6UKmCCTzTgOfz4d+/fqFjCUCqz6DlTohVp9Bk2c0Ps2kEYmVi1YnFtsyYwsAO42I3VwkrYeZeUGvnQiM0ojYobsRF23sxsJlNo1ILPNxKs/9evOCVTsm7ZdIn8Gab6JpJ36VFgdHCkH57Tu88O9taNiuPWrJAsozauLP7eqhefVmqKMGcNqTDpfDi9+LywAoKCk5A7F6OzTt1RSvPP0ynln+Praf8sOVxA1JQRDg8yVzD5CDg4Oj6oMv4Dg4UghinY6YcGEt7Nr2KbL7jkO3Ji1x1e23IOfMTvxQUgtjRndBg4ZdcMugjgCcuKLfCFzesgH6Dvsrurp+g9R+HPJvHgFXsh+Eg4ODgyOu4FGoHBwphlZ9r0V+X80HmU1w7eR8zQfNcVVuxb86XkTS1TTD9Xdpv8PBwcHBUZXBd+A4ODg4ODg4OCoZQtKI0FIoyLJMPaAniiICgUDwP1ooMQ3aiLRwyLIMVVWZYeayLFNTAqRE+ocqAlmWg3+1Y4IV6h4OQRAgyzJ1XBC5rAOfrPBpEi4eLkvLFa6PFd0lSQo+N0dsIH1JxhMQasfh6YCMfAbr4HY0PgNAhM8I/0wrT2980riITDIOae1ghYsGUqZt11h0N7JjkurArB3bzUWTp9dOrHYn48IunxENlzYNhh1cNFuw2BwDAAAL0UlEQVQg8zFtHo9lPk6VuZ+WQow1L+jprtfuJGUJbQ6Il88gaxozXFp5Ia9QSQSJFkQx2iXN4f+FgxU1xiojPDRZZNCGc2kfkhUBxhEdtG1LjIVE2LAiZVj9yBoXrPGk5aKBVablCr8s2qruHLFDO47CP6fZMQHLZ7AWcLH4DD15euOTxaUXbWiVKxzRtIVZ3fX0i8WO7eaiLeD02onFpeWxw2ckmovW//Gcj1Nh7mdx6c0LVu1YL6I0Hlys6Opo2ikkjYgZ5YzKWApY7US9RgKA9PR0eDweqh4cxlBVFR6PB+np6QBiX8CZHTOxLOBYk3QsEwlHbCBtG97GVn2GlQWckc+w0xnHiysceqkd7F5UJWOxaKaPrS7g7PYZRlxA5OZIIvskFt1Tee4nMivrAk5vXBtxBX8gR3yjkqJly5b44Ycfkq1GpUVZWRl++ukntGrVKtmqcHBwcHBwcBigSizgVFVF8+bNkZ6ejvfffz/Z6lRKrF+/HvXq1UPt2rWTrQoHBwcHBweHAarEAk5RFDgcDlxzzTV47bXXcPDgwWSrVKmwa9cuFBQU4Lrrrku2KhwcHBwcHBxRIOQMHA1677n13sWzYFTG0iMarp49e+K6667DtGnT8Kc//Qn9+vVDdnY2k+98R2FhIT788EOsWbMGd955J9q0aRNSzjpkCVjvR9Z4YvUvqcOKDDU6y2BFd47YEYsd08r0xpPdXHrjM5FcLB6rtpVIO7abS8/GWXVYYLVhPHxGPLj0xqCduhvN/XZzWbEtvXkhVezY7v7S1pGIIL/fj+Li4giBeiH8ZWVl8Pv9cDqdIZ+T8F7aXV568kioMO2hysvLgzttelyDBg1CTk4O1q5di/fffx9ZWVkpPSkLgsAchPGEoigoLi6G2+3GpEmT0LlzZ5SUlIR8R1XV4J2BtIOWtP4AKvrR6/VS+5HV/3ry9MaT3++H3++P+FxPd5Y8h8OB4uLipPRHVYIgCCgvL0cgEEB5eXlIWVlZGWRZhiSF5hCPh88oKyuLymdEw6U3ngAEnzO8npHuZm1BVVWUl5dbkmfWjhVFsZVLr91lWYbP52P6DCu66/kMWqoIq7rrlXm93qBcu7gA+iTv8XggCEJEihmrukcz94dfmRevuT8QCNjiM6zacby4aIs4M+0UbBFRFOFyRV7AQ75MEyZJEpxOp6kFnJ48VlQGUDG5Op3OqJxx//790bdvX+zevRsnT56MyBVk1LAlJSXIzMykGhbRMxxGToZVVlJSgqysLCoXa4VuxaGpqorS0lJkZWUBAFwuFxo2bIg2bdpAVVV4vd6IfrTq+EVRhCzLEfJImZ0LOFLXjO4seaIoUnXmMA9y4XJ4exKfYcYZW/UZhMvMAs5ofBr5p/B6RrpbWcARLjt0N7I7n89nG5deuwtCRb4vFpedCziycLPDZ0RTpiiKrVwAfQ4i+cjMzMdW7U6SpKB92SEvmrnfDp9h1Y7jyRVeZqadJEIkiiLcbndEBb2Vsd/vh9vtZg5OswOQJOWlwefzwe12U50xTZ4oiujUqRNVlhH09LAbv/76K+rUqZMQLtZzKYoCt9vNXCyynKDeDlwgEDA9nvS49MLFATC5zOqenZ0Np9MJn89H/UHDYYyysjLk5uZSfQrxGeHO2Mhn6P2Y0fMZaWlpVGcMmPshZsTl9XqRlpZmy4++aJ7LTtvSa3fSX/HmcjgcQT8UrTy9Mr12J5OjXT5Dj4vUs5PL6Id9OFcs87He3O9yuSJ8ZDznfprPYM0Lsdix2+1OqM8Ih5l2Mny3SBrJTJmVOvHgItm9aXX0Mu6XlJRQ65GFiV1ciqKgsLCQycXKaK0nj5ahnZSFvyLV6qjXtono43jJM8tVo0YNZGZmYseOHdRyDn0EAgHs378fHTp0oJanus+wMp7ixWWmjlXdqwJXZda9MrZTZeZKhh3Hkyt1D4edJ6hZsybzkCNH4pGRkYGLL74Ya9asSbYqlRJbtmyBx+NBly5dkq0KBwcHR5UGX8AlEYIgULfWOZIHRVGQl5eHjIwMPPvss8lWp1Lhyy+/xNKlS3HnnXdGvO7g4ODg4LAXIZfZ07buWK/xSPQkrR7t8t5webRdJ9b7fcJFu7zWSB4NRBbrLAEpN6u7GS5yaPf06dPBSNnw52LtzLF0N2p3s32s104sLkEQYuLS0502LlhcVnQHEDxIPWnSJMyfPx/33HMPhg4dih49evCUNBQEAgEcOHAA7733Hvbs2YObb74Zbdu2DUZSaWFkx3r9b9YWtFw02yLfocmjIRqfQfMbsXCxjmQY+SczusfLju3moskz8hlEdjgXa96y6jMSzUUbS/Gaj2lIxtzP4qLNC3q667W71mewzrLGY51hlksrTwovjNZQRVEM6ax4d6Iel548Gowa1s7BrreAUxQFHo8nWDfeCzha+1nRXY9Lr6+i4bKygCPl2rqxOEiv14ucnBxMnz4da9euxebNm7Fy5Up4vd4gL01/Vn/plbFA2s0sl548s+MpGi5RFJGTk4NmzZphxowZqF+/PjweTzBaSgsjO7Z7AZcMn2Gn42ct4Iz8kxndo1lUJcpn6HHZuYCLh89IJBdtLJH5mHwnngu4VJr7K/MCzqrPoC7gBEFgRkvQnDFQETlE/qMpRnuNQohZXCT9AO1zSZIi6hnJo+lOOt2IizYB2cklCAJq1aoFSZKoZYLATlRJk6fX7oqiUPvKqu56XKqqWuZi6U5khkOSpGAUkFamVd3Dvztq1CiMGDECxcXFKC0tRSAQQGZmZoTuJDrIDBcJiKE9V1lZGQRBQHp6OpXLrDySYoA2nkpKSuB0OiNe50ejuyRJSEtLC9GT2A7LZ9Ds2KhPzNqCHle8fIbD4bDVZ+jZFusVtZ12TOQlwmdIkgS/329qXtBrJ712JxGvdvsMFhcZu3ZxsWyBjD875+NUmftZXKx5gaW7kR2LopjwdQZt7tfj0srjB1WSCEHgZ+AqA0RRRLVq1ZCZmclMj2I3SG7AROSly8jIoOZL4+Dg4OBIXfAghiRCVVUUFhZGvDLgSE3IskxN06Kq+qliWKldjNLS6HFZkcfa6mdxWdWdg4ODgyP+4Au4JMPj8SRbBQ4ODg4ODo5KBr6ASyIEQeB54Dg4ODg4ODhMIySNCC0CKBAIUEO7o4kooy1M9F67kDJWJAo5rK7lMpJH050cBKdxEf1JXTO6m+VSVRVut5uacoF8Rnstx5Kn1+6svrKqO4tLEITgLRJWuFi609pBj8uK7kQ/GhLNReqwuKzYlp4dk2ezy46NuBwOhykus7ag5QqvGy+fwRrvVrloPMRP0+Smkh3bzUWTZ8UW9OateNmx3Vw0WyBcpH4i7DiRc79eFKoZ3fXaXeszzOoeyzqDNvfrcWnlWd6B47tGsYOcgeOIHYkcj/Hm0spPJBcHRziqkl0lk68q2XFV9hmV7dlC0oiwLuNlhRKTz2mh8yR8lgXWJb564b20MH0jeazwXlInmVyCIMDr9TLbV69PWPJY7U4LZY9VdxYXaTurXDTdWeHihCtcF6u6a+WyPksEF3kmPS4z8ozsmJUCw6od281l1hb0uKzoHo3PYD1zLFysOnb6ID07NjsvxIuLlUaE1GWBZVuJ8hnkeezkYrVTPObjVJn7WVysecGqHRPd9VJ42MVF7Ji1aIymnfgZuCSjRo0alW7Vz8HBwcHBwZFchOSBU4P/Ewnqq+ZzCw9WFgy97BjMOgwdBBu5VO3fJHIJgoDMzEzz7c6QZ1Sn4hcLvYxWz6id4sJlYcyAwhWL7mbLksJlk7wK2G/HzDLuM6LnotRRUUns2GYumrzYbOH88Rlxkcft2BauWOd+QZZlVZZllJaWIis7h3koMPlQQSaa+FOpwQGaADLw5+LgiAeqqG1VVa4U9xnW3pSo55ow/s9VkfkfSEQbklsGEgHOxUYluokhgYad0Fea/Lk4OOKDKmpbVZUrxX0GT1zNkWqoRAs4Dg4ODg6OxEJRFJSUFMNT7oGSsm+oOM5H8AUcBwcHBwcHBYIgoKysDMXFJTzYjCPl8P+PtHUKL4DziQAAAABJRU5ErkJggg==;imageBackground=none;imageBorder=none;movable=0;resizable=0;rotatable=0;deletable=0;editable=0;locked=1;connectable=0;" vertex="1" parent="WIyWlLk6GJQsqaUBKTNV-1">
          <mxGeometry x="640" y="320" width="760" height="691.79" as="geometry" />
        </mxCell>
        <mxCell id="cbopwnuPYHyfXbzAhab7-2" value="" style="shape=umlActor;verticalLabelPosition=bottom;verticalAlign=top;html=1;outlineConnect=0;" vertex="1" parent="WIyWlLk6GJQsqaUBKTNV-1">
          <mxGeometry x="680" y="540" width="30" height="49" as="geometry" />
        </mxCell>
        <mxCell id="cbopwnuPYHyfXbzAhab7-5" value="" style="endArrow=classic;html=1;rounded=0;fontFamily=Helvetica;fontSize=12;fontColor=default;entryX=0;entryY=0.5;entryDx=0;entryDy=0;" edge="1" parent="WIyWlLk6GJQsqaUBKTNV-1" target="cbopwnuPYHyfXbzAhab7-14">
          <mxGeometry width="50" height="50" relative="1" as="geometry">
            <mxPoint x="710" y="570" as="sourcePoint" />
            <mxPoint x="850" y="600" as="targetPoint" />
          </mxGeometry>
        </mxCell>
        <mxCell id="cbopwnuPYHyfXbzAhab7-6" value="input at cmd to serial" style="text;html=1;strokeColor=none;fillColor=none;align=center;verticalAlign=middle;whiteSpace=wrap;rounded=0;fontSize=5;fontFamily=Helvetica;fontColor=default;rotation=20;" vertex="1" parent="WIyWlLk6GJQsqaUBKTNV-1">
          <mxGeometry x="720" y="570" width="160" height="30" as="geometry" />
        </mxCell>
        <mxCell id="cbopwnuPYHyfXbzAhab7-10" value="&lt;span lang=&quot;EN-US&quot; style=&quot;font-size: 15px;&quot;&gt;&lt;br style=&quot;font-size: 15px;&quot;&gt;&lt;/span&gt;" style="text;html=1;align=left;verticalAlign=middle;resizable=0;points=[];autosize=1;strokeColor=none;fillColor=none;fontSize=15;fontFamily=Helvetica;fontColor=default;" vertex="1" parent="WIyWlLk6GJQsqaUBKTNV-1">
          <mxGeometry x="820" y="70" width="20" height="30" as="geometry" />
        </mxCell>
        <mxCell id="cbopwnuPYHyfXbzAhab7-13" value="&lt;h1&gt;&lt;font style=&quot;font-size: 19px;&quot;&gt;DATA AT处理流程：&lt;/font&gt;&lt;br style=&quot;border-color: var(--border-color); font-size: 15px; font-weight: 400;&quot;&gt;&lt;div style=&quot;border-color: var(--border-color); font-size: 15px; font-weight: 400;&quot;&gt;atcid 是mtk的at程序，是从vcom口输入指令，由atcid程序来接收。&lt;br style=&quot;border-color: var(--border-color); font-size: 14px;&quot;&gt;&lt;div style=&quot;border-color: var(--border-color); font-size: 14px;&quot;&gt;接收完成后，检测是否是AT指令，如果是就交给客服的程序处理（客户会加载&amp;nbsp;&lt;span style=&quot;background-color: initial;&quot;&gt;liblynq-at-extension.so库&lt;/span&gt;&lt;span style=&quot;background-color: initial; border-color: var(--border-color);&quot;&gt;）。&lt;/span&gt;&lt;/div&gt;&lt;div style=&quot;border-color: var(--border-color); font-size: 14px;&quot;&gt;如果不是就检测就进行下一个判断，如果是xml的at指令就由yk自行处理（&lt;span style=&quot;background-color: initial;&quot;&gt;atcid会根据xml加载指定的.so库&lt;/span&gt;&lt;span style=&quot;background-color: initial;&quot;&gt;）。&lt;/span&gt;&lt;/div&gt;&lt;div style=&quot;border-color: var(--border-color); font-size: 14px;&quot;&gt;&lt;span style=&quot;background-color: initial;&quot;&gt;如果还不是，会检测是否是data at，如果是就会跟ril-service通讯，将data at交由lynq-ril-service，否则交给modem处理。&lt;/span&gt;&lt;/div&gt;&lt;/div&gt;&lt;/h1&gt;" style="text;html=1;strokeColor=none;fillColor=none;spacing=5;spacingTop=-20;whiteSpace=wrap;overflow=hidden;rounded=0;fontSize=12;fontFamily=Helvetica;fontColor=default;" vertex="1" parent="WIyWlLk6GJQsqaUBKTNV-1">
          <mxGeometry x="640" y="220" width="770" height="120" as="geometry" />
        </mxCell>
        <mxCell id="cbopwnuPYHyfXbzAhab7-14" value="atcid" style="text;html=1;strokeColor=none;fillColor=none;align=center;verticalAlign=middle;whiteSpace=wrap;rounded=0;fontSize=12;fontFamily=Helvetica;fontColor=default;" vertex="1" parent="WIyWlLk6GJQsqaUBKTNV-1">
          <mxGeometry x="870" y="610" width="60" height="30" as="geometry" />
        </mxCell>
      </root>
    </mxGraphModel>
  </diagram>
</mxfile>
